<?xml version="1.0" encoding="utf-8"?>
<!-- Generator: Adobe Illustrator 25.4.1, SVG Export Plug-In . SVG Version: 6.00 Build 0)  -->
<svg version="1.1" id="Calque_1" xmlns="http://www.w3.org/2000/svg" xmlns:xlink="http://www.w3.org/1999/xlink" x="0px" y="0px"
	 viewBox="0 0 200 200" style="enable-background:new 0 0 200 200;" xml:space="preserve">
<style type="text/css">
	.st0{fill:#FFFFFF;}
</style>
<path class="st0" d="M116.1,105c0.1,2.4,1.7,4,4.2,4c2.1,0,4.2-1.3,4.2-4.2v-0.4c0-2.1-1.1-3.6-3.4-4.6c-2.1-0.9-2.6-1.6-2.6-3.1
	c0-1.2,0.6-1.9,1.7-1.9c1,0,1.6,0.6,1.7,1.6l0,0v0.1c0,0.5,0.3,1.5,1.2,1.5c0.8,0,1.1-0.9,1.2-1.4c-0.1-2.5-1.7-4-4.2-4
	s-4.1,1.7-4.1,4.3c0,2.1,1.1,3.6,3.4,4.6c2.1,0.9,2.6,1.6,2.6,3.2c0,1.2-0.7,1.9-1.8,1.9c-1,0-1.6-0.6-1.8-1.6l0,0v-0.1
	c0-0.5-0.3-1.5-1.2-1.5C116.4,103.5,116.1,104.6,116.1,105"/>
<path class="st0" d="M112.5,106.9h-3.7v-5.3h3.2c0.7,0,1.2-0.4,1.2-1s-0.5-1-1.2-1h-3.2v-4.8h3.7c0.7,0,1.2-0.4,1.2-1s-0.5-1-1.2-1
	h-5h-0.1c-0.6,0.1-0.9,0.7-0.9,1.4v13.2c0,0.7,0.4,1.3,0.9,1.4h0.1h5c0.7,0,1.2-0.4,1.2-1S113.2,106.9,112.5,106.9"/>
<path class="st0" d="M126.8,105c0.1,2.4,1.7,4,4.2,4c2.1,0,4.2-1.3,4.2-4.2v-0.4c0-2.1-1.1-3.6-3.4-4.6c-2.1-0.9-2.6-1.6-2.6-3.1
	c0-1.2,0.6-1.9,1.7-1.9c1,0,1.6,0.6,1.7,1.6l0,0v0.1c0,0.5,0.3,1.5,1.2,1.5c0.8,0,1.1-0.9,1.2-1.4c-0.1-2.5-1.7-4-4.2-4
	s-4.1,1.7-4.1,4.3c0,2.1,1.1,3.6,3.4,4.6c2.1,0.9,2.6,1.6,2.6,3.2c0,1.2-0.7,1.9-1.8,1.9c-1,0-1.6-0.6-1.8-1.6l0,0v-0.1
	c0-0.5-0.3-1.5-1.2-1.5C127,103.5,126.8,104.6,126.8,105"/>
<path class="st0" d="M127.3,86.8l-1.2,0.4c-0.3,0.1-0.4,0.2-0.4,0.4v0.7c0,0.7,0.3,1.1,0.9,1.1s0.9-0.4,0.9-1.1c0,0,0.1-0.8,0.8-0.8
	c0.6,0,0.7,0.6,0.7,0.8c0,1.4-0.9,2.5-2.4,2.5c-1.5,0-2.4-1.1-2.4-2.7v-3.7c0-1.6,1-2.7,2.4-2.7c1.5,0,2.4,1.2,2.4,2.6
	C129,85.6,128.6,86.3,127.3,86.8 M126.8,85.4c0.5-0.2,0.7-0.6,0.7-1.1l0,0c0-0.7-0.4-1.2-0.9-1.2s-0.9,0.5-0.9,1.2V86
	c0-0.1,0.2-0.2,0.3-0.2L126.8,85.4z"/>
<path class="st0" d="M115.8,81.7c-1.4,0-2.4,1.1-2.4,2.7V88c0,1.6,1,2.7,2.4,2.7s2.4-1.1,2.4-2.7v-3.6
	C118.3,82.8,117.3,81.7,115.8,81.7 M116.8,88.2c0,0.7-0.4,1.1-0.9,1.1c-0.6,0-0.9-0.5-0.9-1.1v-3.9c0-0.7,0.4-1.1,0.9-1.1
	c0.6,0,0.9,0.5,0.9,1.1V88.2z"/>
<path class="st0" d="M117.4,79.8l-1.1-1.4c0-0.1-0.1-0.1-0.2-0.1l0,0l0,0l0,0c-0.1,0-0.1-0.1-0.2-0.1c0,0,0,0-0.1,0l0,0
	c-0.1,0-0.2,0-0.3,0.1l0,0l-0.1,0.1l-1.1,1.3c-0.2,0.3-0.2,0.6,0,0.8c0.3,0.2,0.6,0.1,0.8-0.2l0.7-0.9l0.7,0.9
	c0.2,0.3,0.6,0.4,0.8,0.2C117.6,80.5,117.6,80.1,117.4,79.8"/>
<path class="st0" d="M109.1,78.7h-2.2c-0.3,0-0.5,0.2-0.5,0.6v10.5v0.1c0.1,0.5,0.3,0.8,0.8,0.8l0,0l0,0c0.5,0,0.8-0.4,0.8-0.9
	c0,0,0,0,0-0.1V86h1c1.7,0,2.8-1.3,2.8-3.1v-1.1C111.9,79.9,110.9,78.7,109.1,78.7 M110.3,82.9c0,1.1-0.4,1.7-1.2,1.7h-1v-4.4h1
	c0.8,0,1.2,0.6,1.2,1.7V82.9z"/>
<path class="st0" d="M122.9,89.5L122.9,89.5c0-0.1-0.1-0.2-0.2-0.2c-0.7-0.5-1-1.2-1-2.4v-4.7l0,0v-3.1c0-0.5-0.3-0.9-0.8-0.9
	s-0.8,0.4-0.8,0.9v3.1v4.7c0,1.6,0.4,2.7,1.3,3.5l0,0l0.3,0.2c0.2,0.2,0.8,0.4,1.2-0.1C123.1,90.2,123,89.8,122.9,89.5"/>
<path class="st0" d="M106.6,112.7h0.8c0.4,0,0.6,0.1,0.8,0.2c0.2,0.1,0.4,0.4,0.4,0.7s-0.1,0.6-0.4,0.7c-0.2,0.1-0.4,0.2-0.8,0.2
	h-0.5v1.2h-0.3V112.7z M106.8,114.2h0.4c0.3,0,0.4,0,0.6-0.1s0.3-0.3,0.3-0.5s-0.1-0.4-0.3-0.5c-0.2-0.1-0.3-0.1-0.6-0.1h-0.4V114.2
	z"/>
<path class="st0" d="M109.6,112.7h0.3l1.3,2.9h-0.3l-0.4-1h-1.4l-0.4,1h-0.3L109.6,112.7z M109.2,114.4h1.1l-0.6-1.4L109.2,114.4z"
	/>
<polygon class="st0" points="112,114.7 111,112.7 111.3,112.7 112.2,114.3 113,112.7 113.3,112.7 112.3,114.7 112.3,115.6
	112,115.6 "/>
<path class="st0" d="M113.8,114.8c0,0.4,0.3,0.6,0.6,0.6c0.3,0,0.6-0.2,0.6-0.6c0-0.5-0.5-0.6-0.7-0.6c-0.3-0.1-0.8-0.2-0.8-0.8
	c0-0.5,0.4-0.8,0.8-0.8c0.5,0,0.8,0.4,0.8,0.8h-0.3c0-0.3-0.2-0.5-0.5-0.5s-0.5,0.3-0.5,0.5c0,0.4,0.3,0.4,0.7,0.6
	c0.7,0.2,0.7,0.8,0.7,0.9c0,0.5-0.4,0.9-0.9,0.9c-0.4,0-0.9-0.2-0.9-0.9h0.4V114.8z"/>
<path class="st0" d="M116.5,113.7h0.6c0.2,0,0.5,0.1,0.6,0.2c0.3,0.2,0.4,0.6,0.4,0.8s-0.1,0.6-0.4,0.8c-0.2,0.1-0.4,0.2-0.6,0.2
	h-0.6V113.7z M116.7,115.5h0.3c0.2,0,0.4,0,0.7-0.2c0.1-0.1,0.3-0.3,0.3-0.6s-0.1-0.5-0.3-0.6c-0.2-0.1-0.3-0.1-0.6-0.1h-0.3v1.5
	H116.7z"/>
<polygon class="st0" points="118.5,113.7 119.6,113.7 119.6,113.9 118.7,113.9 118.7,114.6 119.6,114.6 119.6,114.8 118.7,114.8
	118.7,115.5 119.6,115.5 119.6,115.6 118.5,115.6 "/>
<polygon class="st0" points="120.6,112.7 121,112.7 122,115.3 123,112.7 123.4,112.7 122.1,115.6 121.9,115.6 "/>
<rect x="123.8" y="112.7" class="st0" width="0.3" height="2.9"/>
<polygon class="st0" points="125.2,113 124.6,113 124.6,112.7 126.2,112.7 126.2,113 125.5,113 125.5,115.6 125.2,115.6 "/>
<path class="st0" d="M126.6,112.7h0.7c0.4,0,0.6,0,0.7,0.1c0.3,0.2,0.5,0.5,0.5,0.8c0,0.4-0.3,0.9-0.9,0.9l0.8,1.1H128l-1-1.3
	c0.4,0,0.5,0,0.6,0c0.3-0.1,0.5-0.4,0.5-0.6c0-0.2-0.1-0.5-0.3-0.6c-0.2-0.1-0.3-0.1-0.6-0.1h-0.5v2.7h-0.1V112.7z"/>
<path class="st0" d="M129.2,112.7h1.6v0.3h-1.3v1.1h1.3v0.3h-1.3v1.1h1.3v0.3h-1.6V112.7z M130.3,111.9l0.1,0.2l-0.8,0.4l-0.1-0.2
	L130.3,111.9z"/>
<path class="st0" d="M106.6,117.8h0.8c0.4,0,0.6,0.1,0.8,0.2c0.2,0.1,0.4,0.4,0.4,0.7s-0.1,0.6-0.4,0.7c-0.2,0.1-0.4,0.2-0.8,0.2
	h-0.5v1.2h-0.3V117.8z M106.8,119.3h0.4c0.3,0,0.4,0,0.6-0.1s0.3-0.3,0.3-0.5s-0.1-0.4-0.3-0.5c-0.2-0.1-0.3-0.1-0.6-0.1h-0.4V119.3
	z"/>
<path class="st0" d="M110.3,117.8c0.8,0,1.6,0.7,1.6,1.5c0,0.9-0.7,1.5-1.6,1.5c-0.8,0-1.6-0.7-1.6-1.5
	C108.8,118.4,109.6,117.8,110.3,117.8 M110.3,120.6c0.7,0,1.3-0.6,1.3-1.3s-0.6-1.3-1.3-1.3c-0.7,0-1.3,0.5-1.3,1.3
	C109.1,120,109.7,120.6,110.3,120.6"/>
<path class="st0" d="M112.4,117.8h0.7c0.4,0,0.6,0,0.7,0.1c0.3,0.2,0.5,0.5,0.5,0.8c0,0.4-0.3,0.9-0.9,0.9l0.8,1.1h-0.4l-1-1.3
	c0.4,0,0.5,0,0.6,0c0.3-0.1,0.5-0.4,0.5-0.6c0-0.2-0.1-0.5-0.3-0.6c-0.2-0.1-0.3-0.1-0.6-0.1h-0.4v2.7h-0.3L112.4,117.8L112.4,117.8
	z"/>
<polygon class="st0" points="115.2,118.1 114.5,118.1 114.5,117.8 116.2,117.8 116.2,118.1 115.5,118.1 115.5,120.8 115.2,120.8 "/>
<polygon class="st0" points="116.5,117.8 118.1,117.8 118.1,118.1 116.8,118.1 116.8,119.2 118.1,119.2 118.1,119.4 116.8,119.4
	116.8,120.5 118.1,120.5 118.1,120.8 116.5,120.8 "/>
<path class="st0" d="M119.3,118.9h0.6c0.2,0,0.5,0.1,0.6,0.2c0.3,0.2,0.4,0.6,0.4,0.8s-0.1,0.6-0.4,0.8c-0.2,0.1-0.4,0.2-0.6,0.2
	h-0.6V118.9z M119.4,120.6h0.3c0.2,0,0.4,0,0.7-0.2c0.1-0.1,0.3-0.3,0.3-0.6s-0.1-0.5-0.3-0.6c-0.2-0.1-0.3-0.1-0.6-0.1h-0.3v1.5
	H119.4z"/>
<polygon class="st0" points="121.2,118.9 122.2,118.9 122.2,119.1 121.4,119.1 121.4,119.7 122.2,119.7 122.2,119.9 121.4,119.9
	121.4,120.6 122.2,120.6 122.2,120.8 121.2,120.8 "/>
<path class="st0" d="M123.4,117.8h0.7c0.9,0,1,0.7,1,0.8c0,0.3-0.2,0.5-0.3,0.6c0.3,0.1,0.5,0.4,0.5,0.7s-0.1,0.5-0.3,0.7
	c-0.3,0.1-0.4,0.2-0.8,0.2h-0.7v-3H123.4z M123.7,119.1h0.4c0.2,0,0.4,0,0.5-0.1s0.2-0.2,0.2-0.4c0-0.1,0-0.2-0.1-0.3
	s-0.3-0.2-0.6-0.2h-0.4V119.1z M123.7,120.5h0.4c0.2,0,0.4,0,0.6-0.1s0.3-0.3,0.3-0.5s-0.2-0.4-0.3-0.5c-0.1-0.1-0.3-0.1-0.6-0.1
	h-0.4V120.5z"/>
<path class="st0" d="M125.6,117.8h0.7c0.4,0,0.6,0,0.7,0.1c0.3,0.2,0.5,0.5,0.5,0.8c0,0.4-0.3,0.9-0.9,0.9l0.8,1.1H127l-1-1.3
	c0.4,0,0.5,0,0.6,0c0.3-0.1,0.5-0.4,0.5-0.6c0-0.2-0.1-0.5-0.3-0.6c-0.2-0.1-0.3-0.1-0.6-0.1h-0.5v2.7h-0.1V117.8z"/>
<polygon class="st0" points="128.1,117.8 129.7,117.8 129.7,118.1 128.4,118.1 128.4,119.2 129.6,119.2 129.6,119.4 128.4,119.4
	128.4,120.5 129.7,120.5 129.7,120.8 128.1,120.8 "/>
<polygon class="st0" points="130.6,118.1 129.9,118.1 129.9,117.8 131.6,117.8 131.6,118.1 130.9,118.1 130.9,120.8 130.6,120.8 "/>
<path class="st0" d="M132.7,117.8h0.3l1.3,2.9H134l-0.4-1h-1.4l-0.4,1h-0.3L132.7,117.8z M132.3,119.5h1.1l-0.6-1.4L132.3,119.5z"/>
<path class="st0" d="M137.5,119.4c-0.1,0.9-0.8,1.4-1.6,1.4c-0.9,0-1.6-0.7-1.6-1.5s0.6-1.5,1.6-1.5c0.8,0,1.3,0.5,1.4,0.8H137
	c-0.2-0.3-0.6-0.6-1-0.6c-0.7,0-1.3,0.6-1.3,1.3s0.5,1.3,1.3,1.3c0.6,0,1.1-0.5,1.2-0.9h-1.6v-0.3H137.5z"/>
<polygon class="st0" points="138,117.8 138.4,117.8 140,120.3 140.1,120.3 140.1,117.8 140.3,117.8 140.3,120.8 140.1,120.8
	138.3,118.2 138.3,118.2 138.3,120.8 138,120.8 "/>
<polygon class="st0" points="140.9,117.8 142.5,117.8 142.5,118.1 141.2,118.1 141.2,119.2 142.5,119.2 142.5,119.4 141.2,119.4
	141.2,120.5 142.5,120.5 142.5,120.8 140.9,120.8 "/>
<path class="st0" d="M73.8,86.2c1.7,0,3.3,0.6,4.6,1.6c0.5,0.4,0.9,0.8,1.2,1.2c1,1.2,1.6,2.8,1.6,4.5v0.1c0,2.3,1.9,4.2,4.2,4.2
	c2.3,0,4.2-1.9,4.2-4.2s-1.9-4.2-4.2-4.2c-1.7,0-3.3-0.6-4.6-1.6c-0.5-0.4-0.9-0.8-1.2-1.2c-1-1.2-1.6-2.8-1.6-4.5V82
	c0-2.3-1.9-4.2-4.2-4.2c-2.3,0-4.2,1.9-4.2,4.2C69.6,84.3,71.5,86.2,73.8,86.2"/>
<path class="st0" d="M96.9,112.7c-1.7,0-3.3-0.6-4.6-1.6c-0.5-0.4-0.9-0.8-1.2-1.2c-0.9-1.1-1.5-2.5-1.6-4.5c0-1.9,0.6-3.5,1.6-4.7
	c0.4-0.5,0.8-0.9,1.2-1.2c1.2-1,2.8-1.6,4.5-1.6h0.1c2.3,0,4.2-1.9,4.2-4.2c0-0.1,0-0.3,0-0.4c-0.2-2.1-2-3.8-4.2-3.8
	c-1.7,0-3.3-0.6-4.6-1.6c-0.5-0.4-0.9-0.8-1.2-1.2c-1-1.2-1.6-2.8-1.6-4.5v-0.1c0-2.3-1.9-4.2-4.2-4.2c-2.3,0-4.2,1.9-4.2,4.2
	s1.9,4.2,4.2,4.2c1.7,0,3.3,0.6,4.6,1.6c0.5,0.4,0.9,0.8,1.2,1.2c1,1.2,1.6,2.8,1.6,4.5c0,0,0,0,0,0.1l0,0c0,1.7-0.6,3.3-1.6,4.6
	c-0.4,0.5-0.8,0.9-1.2,1.2c-1.2,1-2.8,1.6-4.5,1.6h-0.1c-0.7,0-1.4,0.2-2,0.5c-1.3,0.7-2.2,2.1-2.2,3.7c0,1.7-0.6,3.3-1.6,4.6
	c-0.4,0.5-0.8,0.9-1.2,1.2c-1.2,0.9-2.9,1.6-4.6,1.6s-3.3-0.6-4.6-1.6c-0.5-0.4-0.9-0.8-1.2-1.2c-1-1.2-1.6-2.8-1.6-4.5l0,0l0,0
	c0-1.7,0.6-3.3,1.6-4.6c0.4-0.5,0.8-0.9,1.2-1.2c1.2-1,2.8-1.6,4.5-1.6h0.1c2.3,0,4.2-1.9,4.2-4.2s-1.9-4.2-4.2-4.2
	c-2.3,0-4.2,1.9-4.2,4.2c0,1.7-0.6,3.3-1.6,4.6c-0.4,0.5-0.8,0.9-1.2,1.2c-1.2,1-2.8,1.6-4.5,1.6h-0.1c-2.3,0-4.2,1.9-4.2,4.2
	c0,0.4,0.1,0.9,0.2,1.3c0.5,1.7,2.1,3,4,3c1.7,0,3.3,0.6,4.6,1.6c0.5,0.4,0.9,0.8,1.2,1.2c0.9,1.2,1.5,2.8,1.6,4.6
	c0,2.3,1.9,4.2,4.2,4.2c1.6,0,3-0.9,3.7-2.2c0.3-0.6,0.5-1.3,0.5-2c0-1.6,0.5-3.3,1.6-4.5c0.4-0.4,0.8-0.9,1.2-1.2
	c1.2-1,2.8-1.6,4.5-1.6l0,0l0,0c1.7,0,3.3,0.6,4.6,1.6c0.5,0.4,0.9,0.8,1.2,1.2c1,1.2,1.6,2.8,1.6,4.5v0.1c0,2.3,1.9,4.2,4.2,4.2
	c2.3,0,4.2-1.9,4.2-4.2C101.2,114.6,99.3,112.7,96.9,112.7"/>
<path class="st0" d="M73.7,101.1c-2.3,0-4.2,1.9-4.2,4.2s1.9,4.2,4.2,4.2c2.3,0,4.2-1.9,4.2-4.2C78,103,76.1,101.1,73.7,101.1"/>
</svg>
