<?xml version="1.0" encoding="utf-8"?>
<!-- Generator: Adobe Illustrator 25.4.1, SVG Export Plug-In . SVG Version: 6.00 Build 0)  -->
<svg version="1.1" id="Calque_1" xmlns="http://www.w3.org/2000/svg" xmlns:xlink="http://www.w3.org/1999/xlink" x="0px" y="0px"
	 viewBox="0 0 155.7 155.7" style="enable-background:new 0 0 155.7 155.7;" xml:space="preserve">
<style type="text/css">
	.st0{fill:none;}
	.st1{fill:#C7C1C0;}
	.st2{fill:#F9D4AC;}
	.st3{fill:#193F79;}
</style>
<path class="st0" d="M137.4,75.8c0.2,0,0.3,0,0.5,0"/>
<path class="st1" d="M62.1,104.4c1.2,7.8,2.8,16.3,4.3,23.7c2.1,10.2,3.9,21.1,6.4,20.1c0.2-0.1,10.8,0.7,14.4-0.5
	c2.8-1,4.3-13.2,5.2-19.5c1.2-9.6,1.8-17.1,2.1-23.7H62.1z"/>
<path class="st2" d="M127,54.5c2.7-4.8,2.8-10.8,2.2-16c-1.9-15-17.1-16.4-35.9-15.8c-16.6,0.6-28.1,2.6-27.9,15.2
	c0.2,11.6,3.3,22.9,22.9,24.7c7.4,0.7,14.9,0.8,22.4,0.3c3.9-0.2,7-1,9.5-2.2c1.3,0.9,2.7,1.7,4.2,2.2c5.2,2,11.3,1.6,16.2-1.1
	C135.6,60.3,131,57.7,127,54.5z"/>
<path class="st2" d="M142.9,75.9c-0.6-4.4-5-4.8-10.5-4.6c-4.9,0.2-8.2,0.8-8.2,4.5c0,1.5,0.2,3,0.9,4.2c-1.3,1.9-2.9,3.6-4.8,4.8
	c2.3-0.4,6.2-0.9,9-2.1c0.5,0.1,1,0.2,1.6,0.3c2.2,0.2,4.4,0.2,6.5,0.1C142.9,82.7,143.3,78.8,142.9,75.9z"/>
<path class="st2" d="M143.1,17.6c0.8-1.6,0.9-3.6,0.6-5.3c-0.6-5.1-5.8-5.6-12.2-5.4c-5.7,0.2-9.6,0.9-9.5,5.2
	c0.1,4,1.1,7.8,7.8,8.4c2.5,0.2,5.1,0.3,7.6,0.1c1.2-0.1,2.2-0.3,3.1-0.7c0.4,0.3,0.8,0.5,1.2,0.7c1.8,0.7,3.9,0.6,5.8,0
	C145.6,19.4,144.2,18.4,143.1,17.6z"/>
<path class="st2" d="M58.8,55.9c-1.2-9.4-10.7-10.3-22.4-9.9c-10.4,0.4-17.6,1.6-17.4,9.5c0.1,3.5,0.5,6.9,2.4,9.7
	c-1.9,2.7-5.2,5-8.1,5.6c4.6,1,9.9,1.6,13.7-1.3c1.7,0.7,3.8,1.2,6.3,1.4c4.6,0.4,9.3,0.5,14,0.2C58.6,70.5,59.6,62.2,58.8,55.9z"/>
<path class="st2" d="M53.6,31.8c-1.6-0.3-3.1-0.7-4.5-1.4c1.4-2.1,1.4-4.9,1.1-7.2c-0.8-6.5-7.4-7.1-15.4-6.8
	c-7.2,0.3-12.1,1.1-12,6.6c0.1,5,1.4,9.9,9.9,10.6c3.2,0.3,6.4,0.3,9.6,0.1c1.7-0.1,3.1-0.5,4.2-1C48.8,33.5,51.7,33,53.6,31.8z"/>
<g>
	<path class="st3" d="M72.3,86.8c4.4-0.3,8.7-0.6,13.1-0.9c1-0.1,2-0.9,2-2c0-1-0.9-2.1-2-2c-4.4,0.3-8.7,0.6-13.1,0.9
		c-1,0.1-2,0.9-2,2C70.3,85.9,71.2,86.9,72.3,86.8L72.3,86.8z"/>
</g>
<g>
	<path class="st3" d="M106.5,54.3C106.4,54.1,106.4,54,106.5,54.3L106.5,54.3z"/>
	<path class="st3" d="M105.4,50.1C105.4,50.1,105.3,50.1,105.4,50.1c0-0.1-0.1-0.1-0.1-0.1C105.3,50,105.3,50.1,105.4,50.1
		C105.4,50.1,105.4,50.1,105.4,50.1z"/>
	<path class="st3" d="M50.4,45C50.2,45.1,50,45.3,50.4,45L50.4,45z"/>
	<path class="st3" d="M61.6,41.2C62.1,41.2,61.7,41.2,61.6,41.2L61.6,41.2z"/>
	<path class="st3" d="M110.7,61.5c0.2-2.3,0.1-4.6-0.2-6.8c-0.3-3-1.1-5.8-2.7-8.4c-3-4.8-8.3-7.4-13.7-8.6
		c-6.7-1.5-13.7-1.5-20.5-1.2c-3.6,0.1-7.2,0.3-10.8,0.7c-3.1,0.3-6.2,0.8-9.2,1.8c-2.5,0.8-5,2-6.9,3.9c-1.9,1.8-3.1,4.1-3.7,6.6
		c-0.3,1.4-0.4,2.9-0.4,4.3c0.1,5.1,0.7,10.2,3.1,14.8c1.2,2.3,2.8,4.3,4.8,5.9c0.3,0.2,0.6,0.5,0.9,0.7C50.1,80.9,50,87,51.1,92.9
		c0.3,1.8,0.8,3.5,1.3,5.2c0.1,0.4,0.3,0.9,0.4,1.3c0.4,1.3,1.1,2.4,2,3.3c1.5,1.5,3.4,2.4,5.4,3c0.6,3.8,1.2,7.6,1.9,11.4
		c0.7,3.7,1.4,7.5,2.2,11.2c0.9,4.4,1.7,8.8,2.8,13.2c0.4,1.6,0.8,3.2,1.4,4.8c0.5,1.3,1.1,2.7,2.3,3.5c0.6,0.4,1.3,0.5,2.1,0.4
		c0.1,0,0.1,0,0.2,0c0.9,0,1.9,0.1,2.8,0.1c2.9,0.1,5.8,0.2,8.7-0.2c1.2-0.1,2.8-0.2,3.8-0.9c1.2-0.8,1.8-2,2.3-3.3
		c1.2-2.8,1.7-5.9,2.2-8.9c0.6-3.4,1-6.9,1.4-10.3c0.9-7,1.4-14.1,1.8-21.2c1.2-0.2,2.4-0.5,3.6-0.8c0.9-0.3,1.9-0.6,2.7-1.1
		c0.6-0.4,1.1-0.9,1.6-1.4c1.1-1.3,1.8-2.8,2.4-4.4c0.6-1.7,1-3.4,1.2-5.2c0.3-1.9,0.3-3.8,0.2-5.7c-0.3-3.8-1.2-7.9-3.6-11
		c0,0,0-0.1-0.1-0.1c0.2-0.2,0.4-0.4,0.6-0.5C108.7,71.6,110.3,66.6,110.7,61.5z M48.7,46.6c-0.1,0.1-0.1,0.1-0.1,0.1
		C48.6,46.7,48.6,46.7,48.7,46.6z M54.8,91c0-0.3-0.1-0.5-0.1-0.8c0-0.1,0-0.2,0-0.3c0-0.1,0-0.1,0-0.2c-0.2-1.3-0.3-2.6-0.3-3.9
		c0-1.6,0-3.3,0.2-4.9c0-0.2,0-0.4,0.1-0.7c0-0.1,0.1-0.3,0.1-0.4c0,0,0,0,0-0.1c0,0,0,0,0-0.1c0,0,0,0,0,0c0,0,0,0,0,0
		c0-0.1,0-0.2,0-0.3c0-0.2,0.1-0.5,0.1-0.7c0-0.1,0.1-0.3,0.1-0.4c1.8,0.7,3.6,1.1,5.5,1.4c0.2,0,0.3,0,0.5,0.1
		c-0.1,0.1-0.3,0.2-0.4,0.3c-0.2,0.2-0.4,0.6-0.5,0.9c0,0.1-0.1,0.4,0,0.3c0,0.4,0,0.4,0-0.1c0,0.1,0,0.1-0.1,0.2
		c-0.2,0.4-0.3,0.9-0.4,1.4c-0.2,0.5-0.3,1-0.4,1.5c-0.3,0.9-0.5,1.9-0.8,2.8c-0.4,1.6-0.7,3.2-1,4.8C57.1,91.7,57,91.8,57,92
		c-0.3,1.6-0.6,3.2-0.8,4.9c-0.4-1.4-0.8-2.8-1.1-4.3C55,92,54.9,91.5,54.8,91z M62.1,87.5c0.3,0.8,0.5,1.6,0.8,2.3
		c-0.5,0-0.9,0.1-1.4,0.1C61.7,89.2,61.9,88.4,62.1,87.5z M60,101.5C60,101.5,60,101.5,60,101.5C60.1,101.5,60,101.5,60,101.5z
		 M72.2,146.3C72,146.3,71.9,146.3,72.2,146.3L72.2,146.3z M72.4,146.2C72.3,146.2,72.3,146.2,72.4,146.2
		C72.4,146.2,72.4,146.2,72.4,146.2z M86.4,145.8C86.4,145.8,86.4,145.8,86.4,145.8c0,0,0.1,0,0.1-0.1
		C86.5,145.7,86.4,145.8,86.4,145.8z M91.3,119.1c-0.2,2.3-0.5,4.5-0.7,6.8c-0.1,1-0.3,2-0.4,3c0,0.3-0.1,0.7-0.1,1
		c0,0.2,0,0.3-0.1,0.5c0,0.1,0,0.2,0,0.3c-0.4,3.2-0.9,6.5-1.6,9.6c-0.3,1.4-0.7,2.7-1.2,4c0,0.1-0.1,0.2-0.1,0.4
		c0-0.1,0.1-0.2,0.1-0.2c0,0.1-0.1,0.2-0.1,0.2c-0.1,0.2-0.2,0.5-0.4,0.7c0,0.1-0.1,0.2-0.1,0.2c0,0,0,0,0.1-0.1
		c0,0-0.1,0.1-0.1,0.1c0,0,0,0,0,0c0,0,0,0.1-0.1,0.1c0,0,0,0,0,0c0,0,0,0,0,0c0,0,0,0,0,0c0,0,0,0,0,0c0,0,0,0,0,0c0,0,0,0,0,0
		c0,0,0,0,0,0c0,0,0,0,0,0c-0.1,0.1-0.2,0.1,0.1-0.1c0,0,0,0,0,0c-0.2,0.1-0.4,0.1-0.6,0.2c-0.3,0.1-0.5,0.1-0.8,0.1c0,0,0,0-0.1,0
		c-0.1,0-0.3,0-0.4,0c-1.4,0.1-2.9,0.2-4.3,0.2c-2.3,0-4.7-0.1-7-0.2c-0.1,0-0.2,0-0.3,0c-0.1-0.1-0.1-0.2-0.2-0.3
		c-0.1-0.1-0.1-0.2-0.2-0.3c0,0,0-0.1-0.1-0.2c0-0.1-0.1-0.2-0.1-0.3c-0.1-0.2-0.1-0.3-0.2-0.5c-1.3-3.7-2-7.6-2.7-11.4
		c-0.8-4-1.6-8-2.4-11.9c-0.7-3.8-1.4-7.5-2.1-11.3c-0.2-1.1-0.4-2.2-0.5-3.3c2.8,0.3,5.6,0.3,8.5,0.4c3,0,6.1,0,9.1-0.1
		c3-0.1,6.1-0.3,9.1-0.6c0.4,0,0.8-0.1,1.2-0.1C92,110.5,91.7,114.8,91.3,119.1z M103.9,91c0,0.2,0,0.4-0.1,0.6c0,0.1,0,0.2,0,0.3
		c0,0,0,0,0,0c-0.1,0.4-0.1,0.8-0.2,1.2c-0.1,0.4-0.2,0.8-0.3,1.2c0-1.2-0.6-2.4-1.4-3.3c-0.8-1-2-1.5-3.2-1.9
		c-0.5-0.2-1-0.3-1.5-0.5c-0.1,0-0.2-0.1-0.3-0.1c-0.2-0.1-0.4-0.2-0.6-0.3c0,0,0,0,0,0c-0.1,0-0.1-0.1-0.2-0.1c0,0,0,0,0,0
		c0,0,0-0.1,0-0.1c0,0,0,0,0,0c0,0,0-0.1,0-0.1c0,0,0,0,0-0.1c0-0.1,0.1-0.1,0.1-0.2c0.1-0.1,0.2-0.1,0.2-0.2c0,0,0,0,0.1,0
		c0,0,0,0,0.1,0c0.2,0,0.4-0.1,0.6-0.2c0,0,0,0,0.1,0c0.1,0,0.3,0,0.4,0c0.1,0,0.3,0.1,0.4,0.1c0,0,0,0,0,0c0.1,0,0.2,0.1,0.2,0.1
		c0.1,0.1,0.3,0.4,0,0c0,0,0,0,0,0c0.6,0.8,1.7,1.2,2.6,0.6c0.8-0.5,1.4-1.8,0.7-2.7c-1.6-2.2-4.7-2.7-7-1.5c-1.2,0.6-2,1.7-2.4,2.9
		c-0.4,1.4-0.1,2.8,0.8,3.9c0.8,0.9,1.9,1.4,3,1.8c0.4,0.1,0.8,0.3,1.2,0.4c0.2,0.1,0.4,0.2,0.6,0.2c0.1,0.1,0.3,0.1,0.4,0.2
		c0.1,0.1,0.2,0.1,0.3,0.2c0,0,0,0,0,0c0.1,0.1,0.2,0.1,0.2,0.2c0,0,0.1,0.2,0.2,0.2c0,0,0,0,0,0c0,0.1,0.1,0.2,0.1,0.3
		c0,0.1,0,0.1,0,0.2c0,0,0,0.1,0,0.1c0,0.1,0,0.1,0,0.2c0,0,0,0,0,0c0,0,0,0,0,0c0,0,0,0,0,0c0,0,0,0,0-0.1c0,0,0,0,0,0
		c0,0.1,0,0.1,0,0.2c0,0,0,0,0,0.1c0,0-0.1,0.2-0.1,0.3c0,0,0,0,0,0.1c0,0.1-0.1,0.2-0.2,0.2c0,0,0,0,0,0c-0.1,0.1-0.2,0.2-0.3,0.3
		c0,0,0,0,0,0c-0.1,0.1-0.3,0.2-0.4,0.3c-0.1,0.1-0.2,0.1-0.3,0.2c0,0-0.1,0-0.1,0.1c-0.3,0.1-0.6,0.2-0.9,0.3c0,0,0,0,0,0
		c0,0-0.1,0-0.1,0c0,0,0,0,0,0c-0.1,0-0.1-0.1-0.2-0.1c0,0-0.1-0.1-0.1-0.1c0,0,0,0,0,0c0.1-1-0.4-2-1.4-2.2c-1-0.2-2.2,0.3-2.4,1.4
		c-0.3,1.4,0.2,2.9,1.3,3.9c0.6,0.5,1.2,0.8,1.9,1c0.7,0.2,1.5,0.2,2.2,0c1.6-0.3,3.1-1.2,4.1-2.5c-0.2,0.4-0.4,0.8-0.7,1.2
		c-0.1,0.1-0.1,0.2-0.2,0.3c0,0-0.1,0.1-0.1,0.1c-0.2,0.2-0.4,0.4-0.6,0.6c0,0-0.1,0.1-0.1,0.1c-0.1,0-0.1,0.1-0.1,0.1
		c-0.1,0.1-0.2,0.1-0.3,0.2c0,0,0,0,0,0c-1.2,0.4-2.5,0.8-3.8,1.1c-0.7,0.1-1.3,0.2-2,0.3c-0.2,0-0.4,0.1-0.5,0.1c0,0,0,0,0,0
		c0,0-0.1,0-0.1,0c-0.4,0-0.7,0.1-1.1,0.1c-2.9,0.3-5.8,0.5-8.7,0.7c-5.8,0.3-11.7,0.3-17.5,0c-0.4,0-0.7,0-1.1-0.1
		c-0.2,0-0.4,0-0.6-0.1c-0.1,0-0.2,0-0.3,0c-1.3-0.2-2.6-0.5-3.8-0.9c-0.1,0-0.3-0.1-0.4-0.1c0,0,0,0-0.1,0c0,0,0,0,0,0
		c-0.3-0.1-0.6-0.3-0.8-0.4c0,0-0.1-0.1-0.1-0.1c0.4-0.4,0.6-0.9,0.7-1.5c0.1-0.8,0.2-1.6,0.3-2.4c0,0,0-0.1,0-0.1c0,0,0,0,0,0.1
		c0-0.2,0.1-0.4,0.1-0.6c0.1-0.4,0.1-0.8,0.2-1.2c0.1-0.4,0.1-0.8,0.2-1.3c1.2-0.1,2.3-0.2,3.5-0.2c0.2,0.6,0.4,1.2,0.6,1.9
		c0.5,1.7,1,3.4,1.5,5c0.3,1,1.4,1.7,2.4,1.4c0.6-0.2,1.1-0.7,1.4-1.3c1.5,0.8,3.3,0.9,4.9,0.4c1-0.3,1.7-1.4,1.4-2.4
		c-0.3-1-1.4-1.7-2.4-1.4c-0.1,0-0.3,0.1-0.4,0.1c0,0-0.1,0-0.1,0c-0.2,0-0.5,0-0.7,0c-0.1,0-0.2,0-0.3-0.1c-0.1,0-0.1,0-0.2-0.1
		c0,0-0.1,0-0.1-0.1c-0.2-0.1-0.3-0.2-0.5-0.3c-0.1-0.1-0.2-0.2-0.3-0.2c0,0,0,0-0.1-0.1c0,0,0,0,0,0c0-0.1-0.1-0.1-0.1-0.2
		c0,0,0,0,0,0c0-0.1,0-0.1-0.1-0.2c0,0,0,0,0,0c0-0.2,0-0.5,0-0.7c0-0.1,0-0.3,0-0.4c0,0,0,0,0,0c0-0.3,0.1-0.5,0.2-0.8
		c0-0.1,0.1-0.3,0.1-0.5c0,0,0,0,0.1-0.1c0-0.1,0.1-0.2,0.2-0.3c0,0,0.1-0.1,0.1-0.1c0,0,0,0,0,0c0.1-0.1,0.1-0.1,0.2-0.2
		c0,0,0.1-0.1,0.1-0.1c0,0,0.1-0.1,0.1-0.1c0.1-0.1,0.2-0.1,0.3-0.2c0,0,0,0,0,0c0.1,0,0.3-0.1,0.4-0.1c0,0,0,0,0,0
		c0.1,0,0.3,0,0.4,0c0,0,0.1,0,0.2,0c-0.1,0-0.3-0.1,0,0c0,0,0,0,0,0c0,0,0.1,0,0.1,0c0,0,0,0-0.1,0c0.2,0,0.3,0.1,0.5,0.1
		c1,0.3,2.2-0.4,2.4-1.4c0.2-1.1-0.3-2.1-1.4-2.4c-1.6-0.5-3.4-0.3-4.9,0.5c-1.1,0.6-1.8,1.6-2.3,2.6c-0.8-2.3-1.6-4.7-2.4-7
		c-0.5-1.5-1-3.1-1.7-4.5c-0.1-0.2-0.2-0.4-0.4-0.5c1.1,0.1,2.2,0.2,3.4,0.3c1.4,0.2,2.8,0.3,4.2,0.4c4.7,0.3,9.5,0.4,14.2,0.3
		c3-0.1,6-0.2,8.9-0.7c0.1,0,0.2,0,0.4-0.1c0.3-0.1,0.6-0.1,0.9-0.2c0.2,0,0.4-0.1,0.5-0.1c1.8-0.4,3.6-1,5.4-1.6
		c0.2,0.2,0.3,0.5,0.5,0.7c0.2,0.4,0.4,0.7,0.6,1.1c0.1,0.2,0.2,0.3,0.2,0.5c0,0,0,0,0,0.1c0,0.1,0.1,0.1,0.1,0.2
		c0.3,0.8,0.6,1.7,0.8,2.5c0.1,0.4,0.2,0.9,0.3,1.3c0,0.2,0.1,0.4,0.1,0.6c0,0,0,0,0,0c0,0.1,0,0.2,0,0.2
		C104.1,87.4,104.1,89.2,103.9,91z M96.2,87.7C96.2,87.7,96.2,87.7,96.2,87.7C96.2,87.8,96.2,87.8,96.2,87.7
		C96.2,87.8,96.2,87.7,96.2,87.7z M96.2,87.8C96.2,87.8,96.2,87.8,96.2,87.8C96.2,87.8,96.2,87.8,96.2,87.8
		C96.2,87.9,96.2,87.8,96.2,87.8z M98.4,87.3C98.4,87.3,98.4,87.3,98.4,87.3C98.4,87.3,98.4,87.3,98.4,87.3z M98.4,87.3
		C98.4,87.3,98.4,87.3,98.4,87.3C98.4,87.3,98.4,87.3,98.4,87.3C98.4,87.3,98.4,87.3,98.4,87.3z M98.3,87.3
		C98.3,87.3,98.3,87.3,98.3,87.3C98.3,87.3,98.3,87.3,98.3,87.3C98.3,87.3,98.3,87.3,98.3,87.3z M71.3,93.7c0-0.1,0.1-0.2,0.1-0.2
		C71.4,93.5,71.4,93.6,71.3,93.7z M101.1,73.2c0,0,0.1-0.1,0.2-0.1C101.3,73.1,101.2,73.2,101.1,73.2z M104,70.2
		c-0.1,0.2-0.3,0.4-0.4,0.6c0,0,0,0,0,0.1c-0.1,0.1-0.2,0.2-0.3,0.4c-0.4,0.4-0.8,0.8-1.2,1.2c-0.2,0.2-0.4,0.4-0.6,0.5c0,0,0,0,0,0
		c-0.1,0.1-0.3,0.2-0.4,0.3c-0.5,0.4-1.1,0.7-1.6,1c-0.3,0.2-0.6,0.3-0.9,0.4c-0.1,0.1-0.3,0.1-0.4,0.2c-0.1,0-0.1,0.1-0.2,0.1
		c0.1,0,0.2-0.1,0.2-0.1c-0.1,0-0.1,0.1-0.2,0.1c-0.7,0.3-1.4,0.5-2.1,0.7c-0.8,0.2-1.5,0.4-2.3,0.5c-0.3,0.1-0.6,0.1-0.9,0.1
		c-0.7,0.1-1.4,0.1-2.1,0.1c-1.8,0-3.6,0.1-5.5,0.1c-3.9,0.1-7.9,0.1-11.8,0c-1.9-0.1-3.8-0.1-5.7-0.3c-0.4,0-0.7-0.1-1.1-0.1
		c-0.2,0-0.4,0-0.7-0.1c0,0,0,0,0,0c-0.1,0-0.2,0-0.3,0c-0.3,0-0.5-0.1-0.8-0.1c-1.7-0.3-3.3-0.7-5-1.2c-0.7-0.2-1.4-0.5-2.2-0.8
		c0.6,0.2,0.1,0-0.1,0c-0.2-0.1-0.3-0.1-0.5-0.2c-0.3-0.2-0.6-0.3-1-0.5c-0.6-0.3-1.1-0.6-1.7-1c-0.3-0.2-0.5-0.4-0.8-0.6
		c0,0,0,0-0.1-0.1c-0.1-0.1-0.2-0.2-0.4-0.3c-0.9-0.8-1.7-1.6-2.4-2.5c-0.1-0.1-0.2-0.2-0.3-0.4c-0.2-0.3-0.3-0.5-0.5-0.8
		c-0.3-0.5-0.6-1-0.8-1.5c-0.1-0.2-0.2-0.5-0.3-0.7c0-0.1-0.1-0.2-0.1-0.3c0,0,0,0,0,0.1c0,0,0-0.1-0.1-0.1c0,0,0,0,0,0
		c0-0.1-0.1-0.2-0.1-0.2c-0.2-0.5-0.4-1-0.5-1.5c-0.3-1.1-0.6-2.2-0.8-3.4c0-0.3-0.1-0.5-0.1-0.8c0-0.1,0-0.2,0-0.3c0,0,0,0.1,0,0.1
		c0,0,0-0.1,0-0.1c0,0,0,0,0-0.1c0-0.1,0-0.3,0-0.2c-0.1-0.6-0.1-1.1-0.2-1.7c-0.1-1.2-0.1-2.3-0.2-3.5c0-0.7,0-1.4,0.1-2.1
		c0-0.1,0-0.3,0.1-0.4c-0.1,0.7,0,0.2,0,0c0.1-0.3,0.1-0.6,0.2-0.9c0.1-0.5,0.3-1,0.5-1.5c0,0.1,0,0,0-0.1c0,0,0,0,0,0
		c0-0.1,0.1-0.1,0.1-0.2c0,0.1,0,0.1,0,0.1c0-0.1,0.1-0.2,0.1-0.3c0.1-0.3,0.3-0.5,0.4-0.7c0.1-0.2,0.3-0.4,0.4-0.7
		c0.1-0.1,0.1-0.2,0.2-0.3c0,0,0,0,0.1-0.1c0.3-0.4,0.7-0.8,1.1-1.1c0.2-0.2,0.4-0.3,0.6-0.5c0,0,0,0-0.1,0.1c0,0,0,0,0.1,0
		c0.1-0.1,0.2-0.2,0.4-0.2c0.5-0.3,1-0.6,1.5-0.9c0.2-0.1,0.5-0.2,0.7-0.4c0.1,0,0.2-0.1,0.3-0.1c0,0,0.1,0,0.1-0.1
		c0.6-0.2,1.2-0.4,1.8-0.6c1.3-0.4,2.7-0.7,4.1-1c0.7-0.1,1.5-0.3,2.2-0.4c0,0,0,0,0,0c0,0-0.1,0-0.1,0c0.1,0,0.1,0,0.2,0
		c0.2,0,0.4,0,0.6-0.1c0.4,0,0.8-0.1,1.2-0.1c1.7-0.2,3.4-0.3,5.1-0.4c3.6-0.2,7.2-0.3,10.8-0.3c3.3,0,6.5,0.1,9.8,0.5
		c0.2,0,0.3,0,0.5,0.1c0.1,0,0.1,0,0.2,0c0.4,0.1,0.8,0.1,1.2,0.2c0.7,0.1,1.4,0.3,2.1,0.4c1.3,0.3,2.6,0.7,3.9,1.1
		c0.3,0.1,0.6,0.2,0.9,0.3c0,0-0.5-0.2-0.2-0.1c0.1,0,0.2,0.1,0.2,0.1c0.2,0.1,0.3,0.1,0.5,0.2c0.5,0.3,1.1,0.5,1.6,0.9
		c0.5,0.3,1,0.6,1.4,1c0,0,0,0,0,0c0.1,0.1,0.2,0.2,0.4,0.3c0.2,0.2,0.5,0.4,0.7,0.6c0.4,0.4,0.8,0.8,1.2,1.3c0,0,0,0,0,0
		c0.1,0.1,0.2,0.2,0.2,0.3c0.2,0.3,0.3,0.5,0.5,0.8c0.3,0.5,0.6,1,0.8,1.6c-0.1-0.2,0,0,0.1,0.1c0,0,0,0,0,0c0,0,0,0.1,0.1,0.1
		c0,0,0-0.1,0-0.1c0.1,0.1,0.1,0.3,0.1,0.4c0.1,0.3,0.2,0.6,0.3,1c0.2,0.6,0.4,1.3,0.5,2c0.1,0.3,0.1,0.7,0.2,1c0-0.1,0-0.1,0-0.2
		c0,0.1,0,0.2,0,0.2c0,0.1,0,0.3,0,0.4c0.1,1.1,0.2,2.2,0.2,3.3c0,1.1,0,2.2-0.1,3.3c0,0.3,0,0.6-0.1,0.8c0,0.1,0,0.3,0,0.4
		c0,0,0,0.1,0,0.1c-0.1,0.5-0.2,1-0.3,1.5c-0.2,1.1-0.5,2.2-1,3.2c0,0,0,0,0,0c0,0.1-0.1,0.2-0.1,0.3c-0.1,0.3-0.2,0.5-0.4,0.8
		C104.6,69.2,104.3,69.7,104,70.2z"/>
	<path class="st3" d="M98,75C98.1,74.9,98.1,74.9,98,75L98,75z"/>
	<path class="st3" d="M47.5,48.6C47.5,48.6,47.5,48.6,47.5,48.6c0,0.1,0,0.1-0.1,0.2C47.5,48.7,47.5,48.6,47.5,48.6
		C47.5,48.5,47.5,48.6,47.5,48.6z"/>
	<path class="st3" d="M48.6,65.2C48.6,65.2,48.6,65.3,48.6,65.2c0,0.1,0.1,0.1,0.1,0.2c-0.1-0.2-0.1-0.3-0.1-0.3
		C48.6,65.1,48.6,65.2,48.6,65.2z"/>
	<path class="st3" d="M47,59C47,59,47,59,47,59c0,0.1,0,0.1,0,0.2c0-0.1,0-0.2,0-0.3C47,58.9,47,58.9,47,59z"/>
	<path class="st3" d="M54.7,79.5C54.7,79.5,54.7,79.5,54.7,79.5c0,0,0,0.1,0,0.2C54.7,79.7,54.7,79.6,54.7,79.5z"/>
	<path class="st3" d="M73.4,92.5C73.4,92.5,73.4,92.5,73.4,92.5C73.4,92.5,73.4,92.5,73.4,92.5C73.5,92.5,73.4,92.5,73.4,92.5z"/>
	<path class="st3" d="M79.1,82.9c-1,0-2.1,0.9-2,2c0.3,4.7,0.2,9.5-0.3,14.2c-0.1,0.2-0.1,0.4-0.1,0.7c0,0.2,0,0.4,0,0.5
		c0,1,0.9,2,2,2c0.5,0,1-0.2,1.4-0.6c0.4-0.4,0.5-0.9,0.6-1.4c0.7-5.1,0.8-10.3,0.5-15.5C81,83.8,80.2,82.8,79.1,82.9z"/>
	<path class="st3" d="M90.2,88.1c-1.1,0.1-1.9,0.9-2,2c0,0.8-0.1,1.7-0.2,2.5c0,0,0,0.1,0,0.1c0,0.1,0,0.1,0,0.2
		c0,0.2-0.1,0.4-0.1,0.6c-0.1,0.4-0.1,0.8-0.2,1.2c-0.2,0.8-0.3,1.6-0.6,2.3c0,0,0,0.1,0,0.1c0,0,0,0,0,0.1c0,0-0.1-0.1-0.1-0.1
		c0,0,0,0,0-0.1c-0.1-0.2-0.3-0.7-0.4-0.8c0.2,0.5,0-0.1-0.1-0.2c-0.1-0.2-0.1-0.4-0.2-0.6c-0.2-0.7-0.4-1.5-0.5-2.3
		c0-0.1,0-0.3,0-0.3c0-0.2,0-0.4,0-0.6c0-0.4,0-0.8,0-1.2c0-1-0.9-2-2-2c-1.1,0-2,0.9-2,2c-0.1,1.6,0.1,3.3,0.5,4.8
		c0.2,0.8,0.5,1.6,0.9,2.4c0.3,0.7,0.7,1.4,1.3,1.9c1.6,1.3,4.1,1.5,5.5-0.1c1.1-1.2,1.3-2.8,1.7-4.3c0.4-1.9,0.6-3.7,0.7-5.6
		C92.3,89.1,91.3,88.1,90.2,88.1z M87,97.2c0,0-0.1-0.1-0.1-0.1C86.9,97.1,86.9,97.1,87,97.2z"/>
	<path class="st3" d="M99.4,94.5C99.4,94.5,99.4,94.5,99.4,94.5c0-0.1,0-0.1,0-0.2C99.4,94.3,99.4,94.4,99.4,94.5z"/>
	<path class="st3" d="M87.1,144.5C87.1,144.4,87.2,144.3,87.1,144.5L87.1,144.5z"/>
	<path class="st3" d="M86.3,145.8C86.3,145.8,86.3,145.8,86.3,145.8C86.3,145.8,86.3,145.8,86.3,145.8
		C86.3,145.8,86.3,145.8,86.3,145.8C86.4,145.8,86.4,145.8,86.3,145.8C86.3,145.8,86.3,145.8,86.3,145.8
		C86.3,145.8,86.3,145.8,86.3,145.8z"/>
	<path class="st3" d="M86.4,145.8c0,0,0.1-0.1,0.1-0.1c0,0,0,0,0,0C86.4,145.7,86.4,145.8,86.4,145.8
		C86.4,145.8,86.4,145.8,86.4,145.8z"/>
</g>
</svg>
