<?xml version="1.0" encoding="utf-8"?>
<!-- Generator: Adobe Illustrator 25.4.1, SVG Export Plug-In . SVG Version: 6.00 Build 0)  -->
<svg version="1.1" id="Calque_1" xmlns="http://www.w3.org/2000/svg" xmlns:xlink="http://www.w3.org/1999/xlink" x="0px" y="0px"
	 viewBox="0 0 155.7 155.7" style="enable-background:new 0 0 155.7 155.7;" xml:space="preserve">
<style type="text/css">
	.st0{fill:none;}
	.st1{fill:#F9D4AC;}
	.st2{fill:#193F79;}
	.st3{fill:#C7C1C0;}
</style>
<path class="st0" d="M137.4,75.8c0.2,0,0.3,0,0.5,0"/>
<path class="st1" d="M40.3,67.4C50.8,57,61.4,46.6,71.9,36.1c3.2-3.2,6.6-6.5,11-7.5c5.2-1.2,10.6,1,15.3,3.5
	C113.9,40.2,128,51,140,63.8c-33.4-0.1-67-0.3-100.2,4.1"/>
<path class="st2" d="M119.5,69.8c-5.4-5.8-11.3-11.2-17.6-16.2c-6.4-5-13.1-9.5-20.1-13.4c-3.6-2-7.4-4.1-11.3-5.4
	c-1.6-0.5-3.2-0.9-4.9-1c0.1-0.2,0.1-0.4,0.1-0.6c-0.2-3.5-0.2-6.9-0.2-10.4c0,0,0.1,0,0.1,0c0.1,0,0.1,0,0.2,0
	c0.6,0.1,1.2,0.2,1.7,0.4c1.2,0.3,2.3,0.7,3.5,1.1c2.5,0.8,5.1,1.4,7.7,1c4.1-0.7,7.3-4.5,8-8.5c0.5-2.4,0.2-4.9-1.1-7
	c-0.4-0.7-1.4-1.2-2.2-0.9c-0.6,0.2-1.3,0.4-1.9,0.5c-0.3,0.1-0.6,0.1-0.9,0.2c-0.1,0-0.1,0-0.2,0c0,0-0.1,0-0.2,0
	c-0.1,0-0.2,0-0.2,0c-1.3,0.1-2.6,0.1-4,0c-0.3,0-0.6-0.1-1-0.1c-0.2,0-0.3,0-0.5-0.1c0,0-0.1,0-0.1,0c0,0,0,0,0,0
	c-0.7-0.1-1.3-0.2-2-0.3c-1.3-0.3-2.7-0.6-4-1c-1.4-0.4-2.8-0.8-4.2-1.3c-0.2-0.1-0.3-0.1-0.5-0.1c-0.1,0-0.2,0-0.2,0c0,0,0,0,0,0
	c0,0,0,0,0,0c-0.6,0-1.2,0.3-1.6,0.8c0,0.1-0.1,0.1-0.1,0.2c0,0,0,0.1-0.1,0.1c-0.1,0.3-0.2,0.5-0.2,0.9c0.4,6.4,0.1,12.8,0.2,19.2
	c0,1.8,0.1,3.5,0.2,5.3c0,0.2,0.1,0.5,0.2,0.7c-1.4,0.2-2.8,0.6-4.1,1.2c-3.5,1.6-6.4,4.3-9.1,7c-3.2,3.2-6.5,6.4-9.7,9.6
	C32.5,58.1,26,64.5,19.5,71c-0.8,0.8-1.6,1.6-2.4,2.4c-0.1,0.1-0.2,0.2-0.2,0.3c-0.1,0.1-0.2,0.1-0.2,0.2c-0.3,0.3-0.6,0.9-0.6,1.4
	c0,0.9,0.9,2.1,2,2c12.9-1.7,26-2.7,39-3.3c13.1-0.6,26.1-0.8,39.2-0.8c7.3,0,14.7,0,22,0C119.9,73.1,120.6,71,119.5,69.8z
	 M65.9,37.7C65.9,37.7,65.8,37.7,65.9,37.7L65.9,37.7z M82.4,17.5C82.4,17.5,82.4,17.5,82.4,17.5L82.4,17.5z M83,13.7
	c0-0.1,0-0.2,0-0.2C83,13.6,83,13.6,83,13.7z M79.6,13.6c1.1-0.1,2.2-0.3,3.3-0.5c0.1,0.2,0.1,0.4,0.1,0.6c0,0,0,0.1,0,0.1
	c0,0,0,0,0,0c0,0.2,0,0.4,0,0.7c0,0.2,0,0.4,0,0.6c0,0.1,0,0.2,0,0.3c0,0,0,0,0,0c-0.1,0.4-0.2,0.8-0.3,1.2
	c-0.1,0.2-0.1,0.4-0.2,0.6c0,0.1-0.1,0.1-0.1,0.2c0,0,0,0,0,0c-0.2,0.4-0.4,0.8-0.6,1.1c-0.1,0.2-0.2,0.3-0.3,0.5c0,0,0,0.1-0.1,0.1
	c0,0-0.1,0.1-0.1,0.1c-0.3,0.3-0.6,0.6-0.9,0.9c-0.1,0.1-0.2,0.1-0.2,0.2c-0.1,0.1-0.3,0.2-0.4,0.3c-0.2,0.1-0.4,0.2-0.5,0.3
	C79.2,21,79.1,21,79,21c0,0-0.1,0-0.1,0.1c0,0-0.1,0-0.1,0c-0.1,0-0.2,0.1-0.3,0.1c-0.2,0.1-0.4,0.1-0.6,0.2c-0.1,0-0.2,0-0.3,0.1
	c-0.3,0-0.5,0-0.8,0c-0.3,0-0.6,0-0.8,0c-0.1,0-0.3,0-0.4,0c0,0-0.1,0-0.1,0c-1.1-0.2-2.2-0.5-3.3-0.9c-2.2-0.7-4.4-1.5-6.7-1.7
	c0-1.6,0-3.2,0-4.8c0-0.9,0-1.7-0.1-2.6C70,12.8,74.8,14,79.6,13.6z M78.9,69.3C65.9,69.5,52.8,70,39.8,71c-5.5,0.4-11,1-16.4,1.6
	c5.2-5.1,10.4-10.3,15.6-15.4c3.2-3.2,6.4-6.4,9.7-9.5c1.5-1.5,2.9-2.9,4.4-4.3c0.7-0.6,1.4-1.3,2.1-1.9c0.2-0.1,0.3-0.3,0.5-0.4
	c0.1-0.1,0.2-0.1,0.3-0.2c0,0,0.1-0.1,0.1-0.1c0,0,0.1-0.1,0.1-0.1c0.1-0.1,0.2-0.1,0.3-0.2c0.2-0.1,0.4-0.3,0.6-0.4
	c0.8-0.5,1.5-1,2.4-1.4c0.1,0,0.4-0.2,0.4-0.2c0.2-0.1,0.3-0.1,0.5-0.2c0.5-0.2,0.9-0.3,1.4-0.4c0.2-0.1,0.5-0.1,0.7-0.1
	c0.1,0,0.1,0,0.2,0c0,0,0.1,0,0.1,0c0.5,0,1.1-0.1,1.6-0.1c0.5,0,0.9,0,1.4,0.1c0.1,0,0.2,0,0.3,0c0,0,0,0,0.1,0
	c0.3,0,0.6,0.1,0.9,0.2c1,0.2,1.9,0.5,2.9,0.8c0.5,0.2,1,0.3,1.5,0.5c0.1,0,0.2,0.1,0.3,0.1c0,0,0.1,0,0.1,0
	c0.2,0.1,0.5,0.2,0.7,0.3c1.8,0.8,3.6,1.7,5.3,2.7c6.9,3.7,13.5,7.9,19.7,12.7c0.2,0.1,0.4,0.3,0.6,0.4c0.1,0.1,0.2,0.2,0.3,0.3
	c0,0,0.1,0.1,0.2,0.1c0.1,0,0.1,0.1,0.1,0.1c0.1,0.1,0.2,0.1,0.3,0.2c0.2,0.2,0.4,0.3,0.6,0.5c0.8,0.6,1.5,1.2,2.3,1.9
	c1.5,1.2,3,2.5,4.5,3.8c2.5,2.2,4.9,4.5,7.2,6.8C102,69.2,90.4,69.1,78.9,69.3z"/>
<path class="st3" d="M22.6,83c0,0-5,43-0.8,60.6c0,0,10.4,5.1,24.7,0c0,0-6.3-49.8-9.9-62.2C36.5,81.5,30.8,81.6,22.6,83z"/>
<g>
	<path class="st3" d="M100.7,143.7c0,0-2.3-40.5,0-65.9c0,0,11.7-0.6,15.1,0.1c0,0,8.8,44.6,7.8,65.9
		C123.6,143.7,108,147.3,100.7,143.7z"/>
	<g>
		<path class="st2" d="M38.4,81L38,79.5l-1.5,0c-0.2,0-6,0.1-14.2,1.6l-1.4,0.3l-0.2,1.4c-0.2,1.8-5,43.5-0.8,61.3l0.2,0.9l0.8,0.4
			c0.3,0.1,5.2,2.5,12.8,2.5c3.9,0,8.4-0.6,13.4-2.4l1.5-0.5l-0.2-1.6C48.2,141.4,42,93.4,38.4,81z M23.5,142.3
			c-3.3-15.8,0.1-50.1,0.9-57.5c4.8-0.8,8.7-1.1,10.6-1.2c3.2,12.7,8.2,50.6,9.3,58.8C34,145.5,26,143.2,23.5,142.3z"/>
		<path class="st2" d="M117.8,77.4l-0.3-1.3l-1.3-0.3c-3.6-0.7-14.4-0.2-15.6-0.1l-1.7,0.1l-0.2,1.7c-2.3,25.3,0,65.8,0,66.2
			l0.1,1.1l1,0.5c2.7,1.3,6.4,1.8,10.1,1.8c6.9,0,13.6-1.5,14.1-1.6l1.4-0.3l0.1-1.5C126.6,122.5,118.1,79.3,117.8,77.4z
			 M121.7,142.1c-4.7,0.9-13.9,2.1-19.1,0.3c-0.3-6.8-1.9-40.2-0.1-62.7c3.3-0.1,8.7-0.3,11.7,0C115.6,87,122.2,122.9,121.7,142.1z"
			/>
	</g>
</g>
<path class="st1" d="M53.3,145.2c13.9,0.1,27.8,0.2,41.7,0.4c-0.5-3.1-1-6.3-1.5-9.4c0-0.3-0.1-0.5-0.3-0.7
	c-0.2-0.1-0.4-0.1-0.7-0.2c-8.1-0.3-16.2-0.5-24.3-0.8c-5.2-0.2-10.5-0.3-15.7,0.1C52.6,134.6,52.5,145.2,53.3,145.2z"/>
<path class="st1" d="M89.5,125c-8.7-1.1-18.5-1.1-27.3-1.2c-3,0-6.9,0.2-8.6,1.2l0.8,5.2c2.6,0.3,27.1,1,36.1,0.5
	C90.2,128.8,89.8,126.9,89.5,125z"/>
<path class="st1" d="M86,116.2c-7.3-1-15.7-1-23.1-1c-2.5,0-5.8,0.1-7.3,1l0.7,4.4c2.2,0.3,23,0.8,30.6,0.5
	C86.6,119.4,86.3,117.8,86,116.2z"/>
</svg>
