<?xml version="1.0" encoding="utf-8"?>
<!-- Generator: Adobe Illustrator 25.4.1, SVG Export Plug-In . SVG Version: 6.00 Build 0)  -->
<svg version="1.1" id="Calque_1" xmlns="http://www.w3.org/2000/svg" xmlns:xlink="http://www.w3.org/1999/xlink" x="0px" y="0px"
	 viewBox="0 0 155.7 155.7" style="enable-background:new 0 0 155.7 155.7;" xml:space="preserve">
<style type="text/css">
	.st0{fill:none;}
	.st1{fill:#F9D4AC;}
	.st2{fill:#C7C1C0;}
	.st3{fill:#193F79;}
</style>
<path class="st0" d="M137.4,75.8c0.2,0,0.3,0,0.5,0"/>
<g>
	<path class="st1" d="M131.5,118.5C130.9,118.4,131.1,118.5,131.5,118.5L131.5,118.5z"/>
	<path class="st1" d="M120.5,115.5c-3.3,2.6,3.4,6.6,5.7,2.5c3-5.3-5.8-5.9-5.9-1.9"/>
</g>
<path class="st1" d="M40.5,50.6c-0.2-2.7-0.5-11.5-0.8-14.2c-0.1-0.6-0.1-1.4-0.2-2.2c8.2,1.9,17.5-2.9,25.6-6.7
	c-4.8-1.4-7.6-0.2-13.3-0.4c-4.9-0.1-10.6,2.7-15.3,4.2l-0.1-0.9c-0.1,0-0.1,0.1-0.2,0.1l-0.3-1c-1.8-10.5-9.7-18-19.4-22.4
	c2,4.5,4.1,9.1,6.7,13.2c2.7,4.2,6,8,10.2,10.6l0.8,0.7c-8.2,5.4-13.8,14.6-14.6,24.4c3.6-3.4,7.2-6.8,10.3-10.7
	c2.2-2.8,4.1-5.9,5.4-9.2c-0.1,3.3-0.2,9.4-0.3,11.3c-0.2,5.6-0.5,11.2-0.7,16.8c-0.2,4.8-1.1,25.9-1.4,30.7c0,0-1.3,6.1,10.9,1.3
	c-0.9-8.9-1.4-17.8-2-26.7C41.5,63.3,41,56.9,40.5,50.6z"/>
<path class="st1" d="M148.7,117.6c-0.1,0-0.2-0.1-0.3-0.1c-1.7-0.4-5.5-1.3-8.1-1.1c0.2-2.2-0.1-4.4-0.9-6.4
	c0.9-0.8,1.7-1.8,2.4-2.4c1.6-1.3,3.4-4,4-6c1.2-4.2-3.7-7.9-7.4-8.4c-0.8-0.1-1.5-0.1-2.2,0.1c-0.8,0.2-1.5,0.4-2.1,0.8
	c0.1-12.5-0.1-39.7-1.1-43.6c0,0-11.9,0.3-25.1,0.3L92.1,33.2l0.4,13.4L76.4,31.4c0,0-1.2,23.6-1.5,21.8c-4.8-8-14.2-20-14.2-20
	s1.6,59.7,2,67.2c3,1.5,16,1.7,30,1.5c-0.3-5.8-0.3-13.4-0.3-13.4c5.4,0,15.9-0.4,15.9-0.4c1.3,10.3,0.4,20.1,0.4,20.1
	c-0.3,0.5-0.6,1-0.9,1.5c-1.2,2.3-1.8,4.9-1.8,7.5c-3.7,0.7-8.1,1.8-10,4.5c-2.3,3.2,0.7,11.1,4.6,11.9c0.1,0,0.2,0,0.3,0
	c2.6,0.2,4.7-1.7,6.7-3c0.7-0.4,1.7-0.8,2.6-1.2c1.2,1.4,2.6,2.6,4.2,3.4c1,0.6,2.1,1,3.1,1.3c0,3-0.1,9.3,2.5,11.2
	c2.5,1.7,6.6,0.3,8.6-1.6c2.9-2.8,2.7-6.9,1.5-10.5c-0.1-0.2-0.2-0.4-0.4-0.6c2.1-1.2,3.9-2.7,5.5-4.6c3.3,2,7.5,4.6,11.3,2.9
	c3.3-1.5,4.9-6.1,4.9-9.4C151.6,118.9,151,118.2,148.7,117.6z M129.7,100.6c0,0.1-0.1,0.1-0.1,0.2c-0.2-0.1-0.4-0.1-0.6-0.2
	C129.2,100.7,129.5,100.6,129.7,100.6z M132.1,119.1c-1.2,3.9-5.3,6.1-9.3,6.2c-4,0-7.9-2.7-8.4-6.8c-0.2-1.9,0.5-3.8,1.8-5.3
	c0.7-0.8,1.7-1.8,2.8-2c1.5-0.3,3,0.5,4.5,0.1c1.3-0.3,2.3-1.4,3.6-1.5c1.3-0.1,2.5,0.8,3.4,1.7
	C132.3,113.4,132.9,116.4,132.1,119.1z"/>
<path class="st2" d="M82.1,115.9c-1.9-10.6-10.2-19.8-20.5-23.1c-10.3-3.3-22.2-0.6-30.4,6.4c-4.5,3.9-7.8,9.1-9.7,14.8
	c-1,3.1-2.1,6.6-2.1,10l-1-0.2c-1.9,1.6-3.8,3.4-5,5.6c-1.2,2.2-3.1,5.5,0.7,7.9c3,1.9,10.7,5.5,14.1,6.6c10.5,3.3,24.2-4,36.9-10.9
	l0,0c4-1.4,7.9-3.1,11.6-5.3c1.7-1,3.5-2.2,4.5-3.9C82.6,121.6,82.5,118.6,82.1,115.9z"/>
<g>
	<path class="st3" d="M16.1,128.8C16.1,128.8,16.1,128.8,16.1,128.8c0,0.1-0.1,0.1-0.1,0.1C16,129,16.1,129,16.1,128.8z"/>
	<path class="st3" d="M14.2,132.1C14.2,132.1,14.2,132.1,14.2,132.1c0,0.1,0,0.1-0.1,0.2C14.1,132.4,14.1,132.4,14.2,132.1z"/>
	<path class="st3" d="M48.5,93.6c0,0-0.1,0-0.1,0c0,0,0,0,0,0C48.6,93.7,48.6,93.6,48.5,93.6z"/>
	<path class="st3" d="M68.6,129.7C68.6,129.7,68.6,129.7,68.6,129.7c0,0-0.1,0-0.1,0C68.5,129.8,68.5,129.7,68.6,129.7z"/>
	<path class="st3" d="M63.3,95.5C63.5,95.6,63.4,95.6,63.3,95.5L63.3,95.5z"/>
	<path class="st3" d="M23.7,130.1C23.3,129.8,23.5,130,23.7,130.1L23.7,130.1z"/>
	<g>
		<path class="st3" d="M63.6,97.4C63.5,97.4,63.3,97.5,63.6,97.4L63.6,97.4z"/>
		<path class="st3" d="M40.3,98.6C40.2,98.7,40.2,98.8,40.3,98.6L40.3,98.6z"/>
		<path class="st3" d="M46.1,95.2C46.1,95.2,46.1,95.2,46.1,95.2C46.5,95.1,46.2,95.2,46.1,95.2z"/>
		<path class="st3" d="M26.9,110.4C26.6,110.5,26.8,110.5,26.9,110.4L26.9,110.4z"/>
		<path class="st3" d="M27.9,109.4c0,0,0.1-0.1,0.1-0.1c0,0,0,0,0,0c0,0,0,0,0-0.1C27.9,109.4,27.9,109.5,27.9,109.4z"/>
		<path class="st3" d="M128.9,88.4c-0.1-10.7-0.4-24.2-1.1-27.2l-0.4-1.5l-1.5,0c-0.1,0-11.5,0.3-24.2,0.3L83,39.4l0.4,17.2
			L67.6,37.7l-0.2,4.9c-0.2,4.8-0.6,11.6-0.9,16.3c-4.9-7.3-11.1-15.2-11.4-15.6l-3.6-4.5l0.2,5.8c0,1.6,0.7,25.9,1.3,45
			c-0.7,0-1.5,0-2.2,0C44.8,89.9,39,91.7,34,94.9c-5.2,3.3-9.4,8-12.2,13.5c-1.4,2.9-2.5,6-3.3,9.1c-0.4,1.5-0.7,3.1-0.9,4.7
			c-0.2,0.1-0.4,0.2-0.5,0.3c-2.1,1.8-4.1,3.7-5.4,6.2c-1,2-1.9,4-1.5,6.2c0.4,2.4,2.6,3.8,4.6,4.9c1.8,1,3.7,1.9,5.6,2.8
			c2,0.9,4,1.8,6,2.6c2,0.8,4.2,1.2,6.4,1.3c5.2,0.3,10.5-1.2,15.3-3.1c5.6-2.2,10.9-5,16.1-7.8c0.6-0.3,1.2-0.7,1.8-1
			c1.2-0.4,2.4-0.9,3.6-1.4c3-1.2,5.9-2.6,8.6-4.3c1.4-0.9,2.8-1.8,3.8-3.1c1.1-1.3,1.8-2.9,2.1-4.6c0.3-2.1,0.2-4.2-0.2-6.3
			c19.5-0.2,41.5-1.4,43.1-1.5l0.9-0.1l0.5-0.7c0.5-0.6,0.5-0.7,0.5-8.4C128.9,99.7,128.9,93.9,128.9,88.4z M50.3,98.1
			c-2.3,1.4-4.5,3-6.4,4.9c-2,1.9-3.6,4.2-4.6,6.8c-0.9,2.2-1.1,4.8-0.5,7.1c0.4,1.7,1.3,3.2,2.4,4.6c1.9,2.4,4.5,4.1,6.7,6.2
			c0.5,0.5,1.1,1.1,1.5,1.6c0,0,0.1,0.1,0.1,0.1c0.1,0.1,0.2,0.3,0.3,0.4c0.2,0.3,0.4,0.6,0.6,1c0.1,0.2,0.2,0.3,0.2,0.5
			c0,0,0,0.1,0,0.1c0,0,0,0,0,0c0.1,0.4,0.2,0.7,0.3,1.1c0,0.2,0.1,0.4,0.1,0.5c0,0.1,0,0.1,0,0.2c0,0.3,0,0.7,0,1
			c-0.2,0-0.4,0-0.5,0.1c-1.5,0.1-3,0.2-4.5,0.3c-3,0.1-6-0.1-9-0.4c-0.1,0-0.2,0-0.3,0c0,0,0,0-0.1,0c0.2,0,0,0-0.1,0
			c-0.1,0-0.2,0-0.3,0c-0.4-0.1-0.7-0.1-1.1-0.2c-0.7-0.1-1.5-0.3-2.2-0.4c-2.1-0.4-4.2-0.9-6.2-1.6c-0.2-0.1-0.5-0.2-0.7-0.3
			c0,0,0,0,0,0c-0.1-0.1-0.3-0.1-0.4-0.2c-0.5-0.2-1-0.5-1.5-0.8c-0.2-0.1-0.4-0.3-0.6-0.4c0,0,0,0,0,0c0,0,0,0,0.1,0.1
			c-0.1-0.1-0.2-0.2-0.3-0.3c-0.4-0.3-0.7-0.7-1-1c0,0,0,0,0-0.1c-0.1-0.1-0.1-0.2-0.2-0.3c-0.1-0.2-0.3-0.5-0.4-0.7
			c0-0.1-0.1-0.2-0.1-0.4c-0.1-0.3-0.2-0.6-0.2-0.9c0-0.1,0-0.3-0.1-0.4c0-0.1,0-0.2,0-0.3c0-0.4-0.1-0.8-0.1-1.3
			c0-0.8,0-1.6,0.1-2.3c0-0.1,0-0.1,0-0.2c0,0,0,0,0,0c0-0.2,0.1-0.4,0.1-0.6c0.1-0.4,0.1-0.8,0.2-1.2c0.2-0.8,0.4-1.6,0.6-2.4
			c0.2-0.7,0.4-1.3,0.6-2c2.7-0.4,5.2-1.3,7.2-3.2c1.6-1.6,2.5-3.6,3.4-5.6c0.5-1,1-2,1.6-3c0.2-0.2,0.3-0.5,0.5-0.7c0,0,0,0,0-0.1
			c0.1-0.1,0.2-0.2,0.3-0.4c0.5-0.5,1-1.1,1.5-1.6c0.5-0.5,1.1-1.1,1.6-1.6c0.3-0.2,0.6-0.5,0.9-0.7c0.1-0.1,0.3-0.2,0.4-0.3
			c0.1,0,0.1-0.1,0.2-0.1c-0.1,0-0.1,0.1-0.1,0.1c0.1-0.1,0.1-0.1,0.2-0.1c1.3-0.9,2.6-1.8,4-2.5c0.4-0.2,0.8-0.4,1.3-0.6
			c0.1,0,0.2-0.1,0.3-0.1c0,0,0,0,0,0c0.2-0.1,0.5-0.2,0.7-0.3c0.9-0.4,1.8-0.7,2.8-0.9c0.5-0.1,1-0.2,1.5-0.3
			c0.3-0.1,0.5-0.1,0.8-0.1c0.2,0,0.6-0.2,0.8-0.1c0,0-0.5,0.1-0.1,0c0.2,0,0.4,0,0.5-0.1c0.1,0,0.3,0,0.4,0c0.6,0,1.3,0.1,1.9,0.1
			c0.3,0,0.7,0.1,1,0.1c0,0,0.1,0,0.1,0c0,0,0,0,0,0c0.2,0,0.4,0.1,0.5,0.1c0.7,0.1,1.3,0.2,2,0.4c0.3,0.1,0.5,0.1,0.8,0.2
			C56.4,95.1,53.2,96.4,50.3,98.1z M44.8,107.6c0,0-0.1,0.1-0.1,0.1C44.7,107.6,44.8,107.6,44.8,107.6z M42.9,110.7
			C42.9,110.6,42.9,110.6,42.9,110.7C43,110.4,43,110.5,42.9,110.7z M42.9,110.7C42.9,110.7,42.9,110.7,42.9,110.7
			C42.9,110.7,42.9,110.7,42.9,110.7z M49.4,129.2c0,0,0.1,0.1,0.1,0.1c0,0,0,0,0,0C49.4,129.3,49.4,129.2,49.4,129.2z M50.6,131.1
			c0,0,0.1,0.1,0.1,0.2C50.6,131.2,50.6,131.1,50.6,131.1z M22.4,128.8C22.6,129.1,22.5,129,22.4,128.8L22.4,128.8z M21.4,126.1
			C21.4,126.1,21.4,126,21.4,126.1C21.3,125.7,21.4,126,21.4,126.1z M27.6,106.1c0.2-0.3,0.4-0.6,0.6-0.8c0.1-0.1,0.1-0.1,0.2-0.2
			c0,0,0,0,0,0c0,0,0.1-0.1,0.1-0.1c0.1-0.1,0.1-0.2,0.2-0.3c0.5-0.6,0.9-1.1,1.5-1.7c1-1,2-2,3.1-2.9c0.1-0.1,0.2-0.1,0.3-0.2
			c-1,1.2-1.9,2.4-2.6,3.9c-0.9,1.8-1.6,3.8-2.8,5.5c0,0,0,0,0.1-0.1c0,0-0.1,0.1-0.1,0.1c0,0,0,0,0,0c0,0.1-0.1,0.1-0.1,0.1
			c-0.1,0.1-0.1,0.1-0.2,0.2c-0.2,0.2-0.4,0.4-0.6,0.6c0,0-0.1,0.1-0.1,0.1c0,0,0.1,0,0.1-0.1c-0.1,0.1-0.3,0.2-0.4,0.3
			c-0.3,0.2-0.6,0.4-0.9,0.5c-0.1,0.1-0.3,0.1-0.4,0.2c-0.1,0-0.1,0.1-0.2,0.1c-0.2,0.1-0.4,0.1-0.6,0.2c0.3-0.6,0.5-1.1,0.8-1.7
			C26,108.6,26.7,107.3,27.6,106.1z M37.1,142.7C36.8,142.7,37,142.7,37.1,142.7C37.1,142.7,37.1,142.7,37.1,142.7z M48.9,139.1
			c-0.1,0-0.1,0.1-0.2,0.1C48.5,139.3,48.8,139.2,48.9,139.1c-0.2,0.1-0.4,0.2-0.6,0.2c-0.3,0.1-0.6,0.2-0.9,0.4
			c-0.6,0.3-1.3,0.5-2,0.7c-1.2,0.4-2.4,0.8-3.7,1.2c-1.2,0.3-2.4,0.6-3.6,0.8c-0.3,0.1-0.6,0.1-0.9,0.1c0,0-0.1,0-0.1,0
			c-0.1,0-0.3,0-0.4,0.1c-0.6,0.1-1.2,0.1-1.7,0.1c-1.1,0.1-2.3,0-3.4-0.1c-0.1,0-0.2,0-0.2,0c-0.1,0-0.1,0-0.2,0
			c-0.3,0-0.6-0.1-0.8-0.2c-0.5-0.1-1.1-0.2-1.6-0.4c-0.7-0.2-1.5-0.5-2.2-0.8c-0.2-0.1-0.4-0.2-0.6-0.3c-0.1,0-0.2-0.1-0.3-0.1
			c0,0,0,0,0,0c0,0,0,0,0,0c-0.5-0.2-0.9-0.4-1.4-0.6c-1.9-0.9-3.9-1.8-5.8-2.8c-0.8-0.4-1.6-0.8-2.4-1.3c-0.3-0.2-0.6-0.4-0.9-0.6
			c-0.1-0.1-0.2-0.2-0.4-0.2c0,0,0,0,0,0c0,0,0,0,0,0c-0.1-0.1-0.2-0.2-0.3-0.3c-0.1-0.1-0.2-0.2-0.3-0.3c0,0,0,0,0,0
			c-0.1-0.1-0.1-0.2-0.2-0.3c0,0,0,0,0,0c0-0.1-0.1-0.2-0.1-0.2c0-0.1,0-0.1,0-0.2c0-0.2,0-0.4,0-0.6c0-0.1,0-0.2,0-0.2
			c0.1-0.2,0.1-0.4,0.2-0.6c0-0.1,0.1-0.2,0.1-0.3c0,0,0-0.1,0.1-0.2c0,0,0-0.1,0-0.1c0,0,0,0.1,0,0.1c0,0,0,0,0,0
			c0-0.1,0.1-0.2,0.2-0.3c0.4-0.9,0.9-1.8,1.5-2.6c0-0.1,0.1-0.1,0.2-0.2c0,0,0-0.1,0.1-0.1c0,0,0,0,0,0c0,0,0,0,0,0c0,0,0,0,0,0
			c0,0,0.1-0.1,0.1-0.1c0.2-0.3,0.4-0.5,0.7-0.8c0.3-0.3,0.5-0.6,0.8-0.8c0,0.3,0.1,0.6,0.2,0.8c1.2,5.1,6.7,7.3,11.3,8.5
			c1,0.3,2,0.5,3.1,0.7c6.2,1.2,12.7,1.6,19,0.9c0.1,0,0.2,0,0.2,0C50.6,138.4,49.7,138.8,48.9,139.1z M80.4,120c0,0.2,0,0.3,0,0.5
			c0,0.1,0,0.2,0,0.3c-0.1,0.3-0.1,0.7-0.3,1c-0.1,0.2-0.1,0.3-0.2,0.5c0,0,0,0.1,0,0.1c0,0.1-0.1,0.1-0.1,0.1
			c-0.2,0.3-0.3,0.6-0.5,0.9c0,0,0,0.1-0.1,0.1c0,0,0,0,0,0c-0.1,0.1-0.3,0.3-0.4,0.4c-0.2,0.3-0.5,0.5-0.8,0.7
			c-0.1,0.1-0.1,0.1-0.2,0.2c-0.2,0.1-0.3,0.2-0.5,0.3c-0.6,0.4-1.2,0.8-1.8,1.2c-1.3,0.8-2.6,1.5-4,2.2c-0.6,0.3-1.3,0.6-2,0.9
			c-0.3,0.1-0.6,0.3-0.9,0.4c0,0,0,0,0,0c0,0,0,0-0.1,0c0,0,0,0,0,0c-0.2,0.1-0.1,0.1-0.1,0c0,0,0,0-0.1,0c-0.2,0.1-0.4,0.2-0.6,0.3
			c-1.4,0.6-2.8,1.1-4.2,1.5c-2.8,0.9-5.7,1.6-8.6,2.1c0-1-0.2-2-0.5-3c-0.5-1.7-1.5-3.1-2.6-4.4c-2-2.3-4.5-4-6.7-6.1
			c-0.3-0.3-0.5-0.5-0.8-0.8c-0.2-0.3-0.5-0.5-0.7-0.8c0-0.1,0.3,0.4,0.2,0.2c0,0-0.1-0.1-0.1-0.1c-0.1-0.1-0.1-0.1-0.2-0.2
			c-0.1-0.2-0.2-0.3-0.3-0.5c-0.2-0.3-0.4-0.6-0.5-0.9c-0.1-0.2-0.3-0.8-0.1-0.1c-0.1-0.2-0.1-0.4-0.2-0.5c-0.1-0.4-0.2-0.7-0.3-1.1
			c0-0.2-0.1-0.6-0.1-0.4c0-0.1,0-0.2,0-0.3c0-0.3,0-0.6,0-0.8c0-0.2,0-0.3,0-0.5c0-0.2,0.1-0.6,0-0.1c0.1-0.6,0.2-1.1,0.4-1.7
			c0.1-0.3,0.2-0.5,0.3-0.8c0,0,0-0.1,0-0.1c0.1-0.2,0.2-0.3,0.2-0.5c0.3-0.5,0.6-1.1,0.9-1.5c0.2-0.3,0.3-0.5,0.5-0.7
			c0,0,0,0,0-0.1c0,0,0,0,0,0c0.1-0.2,0.2-0.3,0.4-0.5c0.8-1,1.7-1.8,2.6-2.7c0.5-0.4,0.9-0.8,1.4-1.2c-0.4,0.3,0,0,0.1-0.1
			c0.1-0.1,0.2-0.2,0.4-0.3c0.3-0.2,0.5-0.4,0.8-0.6c1-0.7,2.1-1.4,3.2-1.9c0.6-0.3,1.1-0.6,1.7-0.8c0.1-0.1,0.3-0.1,0.4-0.2
			c0,0,0.1,0,0.1,0c0,0,0,0,0,0c0.3-0.1,0.6-0.2,0.9-0.4c1.2-0.4,2.4-0.8,3.6-1.1c0.6-0.2,1.2-0.3,1.8-0.4c0.3-0.1,0.6-0.1,0.9-0.2
			c0.2,0,0.3,0,0.5-0.1c0.1,0,0.1,0,0.2,0c0,0,0,0-0.1,0c0,0,0,0,0,0c0.6-0.1,1.3-0.1,1.9-0.2c0.3,0,0.5-0.1,0.8-0.2
			c0.9,0.5,1.9,1.1,2.8,1.8c0.1,0.1,0.2,0.2,0.4,0.3c0,0,0.1,0,0.1,0.1c0.2,0.2,0.5,0.4,0.7,0.6c0.5,0.4,1,0.8,1.4,1.3
			c0.9,0.9,1.8,1.8,2.7,2.8c0.2,0.2,0.4,0.5,0.5,0.7c0,0,0.1,0.1,0.1,0.1c0.1,0.1,0.2,0.3,0.3,0.4c0.4,0.5,0.7,1,1.1,1.6
			c0.7,1.1,1.3,2.2,1.8,3.3c0.1,0.3,0.2,0.5,0.4,0.8c0,0,0,0.1,0,0.1c0.1,0.2,0.1,0.4,0.2,0.5c0.2,0.6,0.4,1.2,0.6,1.8
			c0.4,1.3,0.7,2.5,0.9,3.9c0,0,0,0,0,0c0,0,0,0.1,0,0.1c0,0.2,0,0.4,0.1,0.5c0,0.4,0.1,0.8,0.1,1.1C80.5,119.3,80.5,119.6,80.4,120
			z M125,109.8c-12.5,0.7-28.7,1.3-42.2,1.4c-0.8-2.4-1.9-4.6-3.2-6.7c-3-4.6-7.2-8.6-12-11.2c-3.4-1.8-7-3-10.8-3.5
			c-0.4-13.9-0.9-30.8-1.1-39.5c3.1,4.1,7.6,10.3,10.4,15c0.4,0.8,1.2,1.2,1.9,1.2c1.7-0.1,1.8-1.7,1.9-2.7c0.1-0.6,0.1-1.5,0.2-2.5
			c0.1-1.8,0.3-4.4,0.5-7.6c0.1-2.1,0.2-4.3,0.3-6.1l16.5,19.8L87,49.5l13,14.4h0.8c10.1,0,19.7-0.2,23.4-0.3
			C125.1,71.7,125.2,102.6,125,109.8z"/>
	</g>
</g>
</svg>
