<?xml version="1.0" encoding="utf-8"?>
<!-- Generator: Adobe Illustrator 25.4.1, SVG Export Plug-In . SVG Version: 6.00 Build 0)  -->
<svg version="1.1" id="Calque_1" xmlns="http://www.w3.org/2000/svg" xmlns:xlink="http://www.w3.org/1999/xlink" x="0px" y="0px"
	 viewBox="0 0 155.7 155.7" style="enable-background:new 0 0 155.7 155.7;" xml:space="preserve">
<style type="text/css">
	.st0{fill:none;}
	.st1{fill:#C7C1C0;}
	.st2{fill:#193F79;}
	.st3{fill:#F9D4AC;}
</style>
<path class="st0" d="M137.4,75.8c0.2,0,0.3,0,0.5,0"/>
<path class="st1" d="M38.6,107c-7.1-0.5-29.6-0.6-26.1,8.4c0.9,2.4,4.8,3.6,8.3,4.1c6.6,1,13.6,0.8,20-0.7c2.3-0.5,4.6-1.2,6.4-2.4
	c1.8-1.2,2.9-2.8,2.6-4.5c-0.4-1.6-2.2-3-4.3-3.7C43.4,107.4,41,107.1,38.6,107z"/>
<path class="st1" d="M128.9,140.5c-0.5-7.4-12.4-8.7-17.7-9c-4.9-0.3-9.8,0-14.7,1c-4.1,0.8-6.9,2-11,4.8c-2,1.3-5.1,4.2-4.4,6.4
	c0.9,3.2,4.6,4.7,7.9,5.5c11.3,2.6,23.3,1.7,34.1-2.5C125.9,145.6,129.1,143.6,128.9,140.5z"/>
<path class="st1" d="M124.2,55.4c-6.1-0.4-25.5-0.5-22.5,7.2c0.8,2,4.1,3.1,7.2,3.5c5.7,0.9,11.7,0.7,17.3-0.6c2-0.4,4-1,5.5-2
	c1.5-1,2.5-2.4,2.2-3.9c-0.3-1.4-1.9-2.6-3.7-3.2C128.4,55.8,126.3,55.5,124.2,55.4z"/>
<path class="st1" d="M62.6,33c-4.3-0.3-17.8-0.4-15.7,5c0.6,1.4,2.9,2.1,5,2.5c4,0.6,8.2,0.5,12.1-0.4c1.4-0.3,2.8-0.7,3.9-1.4
	c1.1-0.7,1.8-1.7,1.5-2.7c-0.2-1-1.3-1.8-2.6-2.3C65.5,33.3,64,33.1,62.6,33z"/>
<path class="st1" d="M38.6,107c-7.1-0.5-29.6-0.6-26.1,8.4c0.9,2.4,4.8,3.6,8.3,4.1c6.6,1,13.6,0.8,20-0.7c2.3-0.5,4.6-1.2,6.4-2.4
	c1.8-1.2,2.9-2.8,2.6-4.5c-0.4-1.6-2.2-3-4.3-3.7C43.4,107.4,41,107.1,38.6,107z"/>
<path class="st1" d="M128.9,140.5c-0.5-7.4-12.4-8.7-17.7-9c-4.9-0.3-9.8,0-14.7,1c-4.1,0.8-6.9,2-11,4.8c-2,1.3-5.1,4.2-4.4,6.4
	c0.9,3.2,4.6,4.7,7.9,5.5c11.3,2.6,23.3,1.7,34.1-2.5C125.9,145.6,129.1,143.6,128.9,140.5z"/>
<path class="st1" d="M124.2,55.4c-6.1-0.4-25.5-0.5-22.5,7.2c0.8,2,4.1,3.1,7.2,3.5c5.7,0.9,11.7,0.7,17.3-0.6c2-0.4,4-1,5.5-2
	c1.5-1,2.5-2.4,2.2-3.9c-0.3-1.4-1.9-2.6-3.7-3.2C128.4,55.8,126.3,55.5,124.2,55.4z"/>
<g>
	<path class="st1" d="M62.6,33c-4.3-0.3-17.8-0.4-15.7,5c0.6,1.4,2.9,2.1,5,2.5c4,0.6,8.2,0.5,12.1-0.4c1.4-0.3,2.8-0.7,3.9-1.4
		c1.1-0.7,1.8-1.7,1.5-2.7c-0.2-1-1.3-1.8-2.6-2.3C65.5,33.3,64,33.1,62.6,33z"/>
	<g>
		<path class="st2" d="M47.8,112.6c0,0,0,0.1,0,0.1C47.8,112.6,47.8,112.6,47.8,112.6C47.8,112.6,47.8,112.6,47.8,112.6z"/>
		<path class="st2" d="M47.7,112.7C47.8,112.7,47.8,112.7,47.7,112.7C47.8,112.7,47.8,112.7,47.7,112.7
			C47.8,112.7,47.8,112.7,47.7,112.7z"/>
		<path class="st2" d="M47.8,112.6C47.8,112.6,47.8,112.6,47.8,112.6C47.8,112.6,47.8,112.6,47.8,112.6
			C47.8,112.6,47.8,112.6,47.8,112.6C47.8,112.6,47.8,112.6,47.8,112.6z"/>
		<path class="st2" d="M47.8,112.6C47.8,112.5,47.8,112.5,47.8,112.6c0-0.1,0-0.1,0-0.1c0,0,0,0,0-0.1c0,0,0,0,0,0
			C47.7,112.4,47.7,112.4,47.8,112.6z"/>
		<path class="st2" d="M14.3,113.3C14.3,113.4,14.3,113.4,14.3,113.3C14.3,113.4,14.3,113.3,14.3,113.3
			C14.3,113.3,14.3,113.3,14.3,113.3z"/>
		<path class="st2" d="M83.2,143C83.2,143.1,83.2,143.1,83.2,143C83.2,143.1,83.2,143.1,83.2,143c0,0.1,0,0.1,0,0.1
			C83.2,143.1,83.2,143.1,83.2,143z"/>
		<path class="st2" d="M86.1,139.5C86.1,139.5,86.1,139.5,86.1,139.5C86,139.6,85.7,139.9,86.1,139.5z"/>
		<path class="st2" d="M83.3,143.5c0,0.1,0.1,0.1,0.1,0.2C83.4,143.6,83.4,143.6,83.3,143.5C83.3,143.5,83.3,143.5,83.3,143.5z"/>
		<path class="st2" d="M83.4,142.5C83.4,142.5,83.4,142.5,83.4,142.5c0,0.1-0.1,0.1-0.1,0.2c0,0,0,0,0,0.1
			C83.4,142.6,83.4,142.5,83.4,142.5z"/>
		<path class="st2" d="M92.2,136c-0.1,0-0.1,0-0.2,0.1c0,0,0,0,0,0C92.3,136,92.3,136,92.2,136z"/>
		<path class="st2" d="M126.6,141.7c0,0,0-0.1,0.1-0.1c0,0,0,0,0-0.1C126.5,141.7,126.5,141.7,126.6,141.7z"/>
		<path class="st2" d="M126.8,140.5C126.8,140.5,126.8,140.5,126.8,140.5c0-0.1,0-0.1,0-0.1C126.8,140.5,126.8,140.6,126.8,140.5
			C126.8,140.6,126.8,140.6,126.8,140.5z"/>
		<path class="st2" d="M83.7,144.3C83.7,144.3,83.7,144.3,83.7,144.3c0.1,0.1,0.1,0.1,0.1,0.2c0,0,0,0,0,0
			C83.9,144.5,83.9,144.4,83.7,144.3z"/>
		<path class="st2" d="M126.2,142.3c0-0.1,0.1-0.1,0.1-0.1c0,0,0,0,0,0C126.2,142.2,126.1,142.3,126.2,142.3z"/>
		<path class="st2" d="M83.2,143C83.2,143,83.2,143,83.2,143C83.2,143,83.2,143,83.2,143C83.2,143,83.2,143,83.2,143z"/>
		<path class="st2" d="M122.6,144.6C122.6,144.6,122.6,144.6,122.6,144.6c0.1-0.1,0.2-0.1,0.3-0.1
			C122.9,144.5,122.9,144.5,122.6,144.6z"/>
		<path class="st2" d="M104.2,60C104.2,60,104.2,60,104.2,60C104.2,60,104.2,60,104.2,60C104.3,59.9,104.3,60,104.2,60z"/>
		<path class="st2" d="M127.4,53.6c-1.1-0.1-2.1-0.3-3.2-0.3c-3.6-0.3-7.3-0.2-11,0.1c-2.2,0.2-4.4,0.5-6.6,1
			c-1.9,0.5-3.8,1.2-5.3,2.5c-1.4,1.1-2.2,2.9-2,4.7c0.1,1.4,0.6,2.8,1.7,3.8c0.8,0.8,1.8,1.4,2.9,1.8c-5.6,3.4-11.2,6.8-16.8,10.1
			c-6.8,4-13.7,8-20.6,12c-6.6,3.9-13.2,7.8-19.7,11.8c-1,0.6-4.6,2.3-6.8,4c-0.5,0-0.9-0.1-1.4-0.1c-0.1,0-0.3,0-0.4,0
			c0.1-0.4,0.2-0.7,0.3-1c0.9-2.6,1.8-5.2,2.7-7.8c1.1-3.2,2.2-6.4,3.3-9.6c1.2-3.5,2.4-7,3.6-10.5c1.2-3.5,2.4-7,3.6-10.5
			c1.1-3.3,2.3-6.6,3.4-9.9c1-2.8,1.9-5.6,2.9-8.3c0.3-0.9,1.2-2.6,1.6-4.1c2.1-0.2,4.2-0.5,6.2-1.1c1.5-0.4,3-1.1,4.2-2.2
			c1.4-1.3,1.9-3.3,1.1-5.1c-0.7-1.5-2.3-2.4-3.8-2.9c-1.5-0.6-3.2-0.7-4.8-0.8c-2.6-0.2-5.3-0.2-7.9,0.1c-2.9,0.3-6.4,0.7-8.7,2.7
			c-1.2,1.1-1.7,2.7-1.4,4.3c0.4,2.4,2.7,3.7,4.9,4.3c1.3,0.4,2.7,0.5,4,0.7c0.4,0,0.9,0.1,1.3,0.1c-0.1,0.4-0.2,0.9-0.4,1.3
			c-0.9,2.6-1.8,5.2-2.7,7.8c-1.1,3.2-2.2,6.4-3.3,9.6c-1.2,3.5-2.4,7-3.6,10.5c-1.2,3.5-2.4,7-3.6,10.5c-1.1,3.3-2.3,6.6-3.4,9.9
			c-1,3-2,6-3.1,9c-0.3,0.9-0.9,2-1,3.1c-2.6,0-5.3,0.1-7.9,0.3c-2.5,0.2-5.1,0.5-7.5,1.2c-2.2,0.6-4.3,1.4-6,2.8
			c-1.5,1.2-2.5,3.2-2.3,5.2c0.2,1.5,0.7,3,1.9,4.1c1.4,1.3,3.2,2.1,5.1,2.7c2,0.6,4.1,0.9,6.2,1.1c2.2,0.2,4.3,0.3,6.5,0.3
			c4.3,0,8.7-0.5,12.9-1.6c0.6,0.3,1.3,0.5,1.8,0.6c3.1,1.2,6.2,2.4,9.3,3.6c3.4,1.3,6.8,2.7,10.2,4c3.4,1.3,6.9,2.7,10.3,4
			c3,1.2,6.2,2.1,9,3.5c-0.1,0.1-0.3,0.2-0.4,0.3c-1.6,1.3-3,2.8-3.7,4.7c-0.8,2.1,0.1,4.3,1.5,6c1.3,1.6,3.2,2.5,5.1,3.2
			c1.9,0.7,3.9,1.1,5.9,1.4c4.6,0.8,9.3,1.1,14,0.8c4.7-0.3,9.4-1.1,14-2.5c2.1-0.7,4.3-1.4,6.2-2.4c1.7-0.9,3.5-2.3,4.4-4
			c0.5-1,0.8-2.1,0.7-3.2c-0.1-1.6-0.6-3.1-1.5-4.4c-0.9-1.3-2.1-2.3-3.5-3.1c-2.5-1.5-5.5-2.3-8.3-2.8c-3-0.5-6.1-0.8-9.2-0.9
			c-2.5,0-4.9,0.1-7.4,0.3c-2.4,0.3-4.8,0.6-7.2,1.2c-2.2,0.6-4.4,1.5-6.4,2.6c-0.2-0.1-0.4-0.1-0.5-0.2c-3.1-1.2-6.2-2.4-9.3-3.6
			c-3.4-1.3-6.8-2.7-10.2-4c-3.4-1.3-6.9-2.7-10.3-4c-2.9-1.1-5.8-2.3-8.8-3.4c0.1-0.1,0.2-0.1,0.3-0.2c1.8-1.3,3.5-3.3,3.3-5.7
			c-0.3-3.1-2.8-5-5.6-6.1c0.1-0.1,0.3-0.2,0.4-0.3c6.4-4,12.9-7.9,19.4-11.7c6.9-4,13.8-8,20.6-12c6.2-3.7,12.5-7.3,18.6-11.1
			c0.8-0.5,3-1.6,4.4-2.7c0.3,0,0.6,0.1,0.9,0.1c1.9,0.2,3.8,0.3,5.8,0.3c3.9-0.1,7.8-0.5,11.5-1.5c1.8-0.5,3.6-1.1,5.1-2.2
			c1.6-1.2,3.1-3,2.9-5.2C135.7,55.7,130.9,54.1,127.4,53.6z M66.8,36.8c0.1,0,0.1-0.1,0.2-0.1C66.9,36.8,66.8,36.8,66.8,36.8z
			 M67.2,36.5C67.2,36.5,67.2,36.5,67.2,36.5C67.2,36.5,67.2,36.5,67.2,36.5z M67.2,36.4C67.2,36.4,67.2,36.4,67.2,36.4
			C67.2,36.4,67.2,36.4,67.2,36.4C67.2,36.4,67.2,36.4,67.2,36.4z M67.2,36.5C67.2,36.5,67.2,36.5,67.2,36.5
			C67.2,36.5,67.2,36.5,67.2,36.5C67.2,36.6,67.2,36.6,67.2,36.5C67.3,36.6,67.3,36.6,67.2,36.5C67.3,36.7,67.3,36.7,67.2,36.5z
			 M67.3,36.3C67.3,36.2,67.3,36.2,67.3,36.3C67.3,36.2,67.3,36.2,67.3,36.3z M48.7,37.1C48.7,37.2,48.7,37.2,48.7,37.1
			C48.7,37.2,48.7,37.2,48.7,37.1z M49,37.4C49,37.4,49,37.4,49,37.4C49,37.4,49,37.4,49,37.4C49,37.4,49,37.4,49,37.4z M53.4,38.6
			c-0.2,0-0.3,0-0.5-0.1c0,0-0.3,0-0.3,0c-0.1,0-0.1,0-0.1,0c-0.1,0-0.3,0-0.4-0.1c-0.3,0-0.6-0.1-0.8-0.2c-0.5-0.1-0.9-0.2-1.3-0.4
			c0,0-0.1,0-0.1,0c0,0-0.1,0-0.1-0.1c-0.2-0.1-0.4-0.2-0.6-0.4c0,0-0.1-0.1-0.1-0.1c0,0,0,0,0,0c0,0,0,0,0,0c0,0,0,0,0-0.1
			c0,0,0,0,0,0.1c0,0,0,0,0,0c0,0,0,0,0,0.1c0-0.1,0-0.1-0.1-0.2c0,0,0,0,0-0.1c0,0,0,0.1,0,0.1c0,0,0,0,0-0.1c0,0,0,0,0,0
			c0,0,0-0.1,0-0.1c0,0,0,0,0,0c0,0,0,0,0,0c0,0,0,0,0,0c0,0,0,0.1,0,0.1c0,0,0,0,0,0c0,0,0,0,0,0c0,0,0,0,0,0c0,0,0,0,0-0.1
			c0,0,0,0,0,0c0,0,0,0,0,0c0.1-0.1,0.2-0.2,0.3-0.3c0.1,0,0.1-0.1,0.2-0.1c0.2-0.1,0.4-0.2,0.6-0.3c0.1-0.1,0.3-0.1,0.4-0.1
			c0.3-0.1,0.6-0.2,0.9-0.3c0.6-0.2,1.2-0.3,1.9-0.4c0.2,0,0.3-0.1,0.5-0.1c0.3,0,0.7-0.1,1-0.1c2.6-0.2,5.3-0.3,8-0.1
			c0.3,0,0.6,0,0.9,0.1c0.1,0,0.3,0,0.4,0c0,0,0,0,0.1,0c0,0,0,0,0,0c0.6,0.1,1.2,0.2,1.7,0.4c0.1,0,0.3,0.1,0.4,0.1c0,0,0,0,0.1,0
			c0.2,0.1,0.2,0.1-0.1,0c0.2,0,0.5,0.2,0.7,0.3c0,0,0.1,0.1,0.2,0.1c-0.1-0.1-0.1-0.1,0,0c0,0,0,0,0,0c0,0,0.1,0.1,0.1,0.1
			c0,0,0,0,0,0c0,0,0,0,0.1,0.1c0,0,0,0,0-0.1c0,0,0,0,0,0.1c0,0,0,0,0,0c0,0,0,0,0,0c0,0,0,0.1,0,0.1c0,0,0,0,0,0
			c0,0-0.1,0.1-0.2,0.2c-0.1,0-0.1,0.1-0.2,0.1c-0.1,0.1-0.2,0.1-0.3,0.2c-0.2,0.1-0.4,0.2-0.6,0.3c0,0,0,0,0,0c0,0,0,0,0,0
			c-0.1,0-0.2,0.1-0.4,0.1c-0.3,0.1-0.6,0.2-0.9,0.3c-1.1,0.3-2.3,0.5-3.5,0.7c0,0,0,0,0,0c0,0,0,0,0,0c-0.1,0-0.2,0-0.3,0
			c-0.3,0-0.6,0.1-0.8,0.1c-0.7,0.1-1.4,0.1-2,0.1c-1.2,0-2.4,0-3.6-0.1C53.9,38.6,53.6,38.6,53.4,38.6z M91.8,136.2
			c0.1,0,0.2-0.1,0.2-0.1c0,0,0,0,0,0c0,0,0,0,0,0c0,0,0,0,0,0c0.1,0,0.2-0.1,0.2-0.1c0.3-0.1,0.7-0.3,1-0.4c1.9-0.6,3.8-1,5.8-1.4
			c0.3,0,0.6-0.1,0.9-0.1c0.1,0,0.2,0,0.3,0c0,0,0,0,0.1,0c0,0,0,0,0.1,0c0.6-0.1,1.2-0.1,1.7-0.2c1.2-0.1,2.3-0.2,3.5-0.2
			c3.2-0.1,6.4,0,9.5,0.4c0.1,0,0.3,0,0.4,0.1c0.4,0.1,0.7,0.1,1.1,0.2c0.7,0.1,1.3,0.3,2,0.4c1.3,0.3,2.5,0.7,3.8,1.2c0,0,0,0,0,0
			c0.1,0.1,0.3,0.1,0.4,0.2c0.3,0.1,0.6,0.3,0.9,0.5c0.3,0.1,0.5,0.3,0.8,0.5c0.1,0,0.1,0.1,0.2,0.1c0.1,0.1,0.2,0.1,0.2,0.2
			c0.2,0.2,0.4,0.4,0.6,0.6c0.1,0.1,0.2,0.2,0.3,0.3c0,0,0.1,0.1,0.1,0.1c0,0,0,0,0,0c0.1,0.2,0.2,0.4,0.3,0.5
			c0.1,0.1,0.1,0.3,0.2,0.4c0,0,0,0,0,0c0.1,0.3,0.2,0.5,0.2,0.8c0,0.1,0,0.2,0.1,0.3c0,0,0-0.1,0-0.2c0,0.1,0,0.1,0,0.2
			c0,0,0,0,0,0.1c0,0,0,0,0,0c0,0,0,0.1,0,0.1c0,0,0,0.1,0-0.1c0,0.2,0,0.3,0,0.5c0,0.1,0,0.1,0,0.2c0,0.1,0,0.1-0.1,0.2
			c0,0,0,0,0,0c0,0,0-0.1,0.1-0.1c0,0-0.1,0.1-0.1,0.1c0,0.1-0.1,0.1-0.1,0.1c0,0.1-0.1,0.2-0.1,0.2c0,0.1-0.1,0.1-0.1,0.2
			c0,0,0,0,0.1-0.1c0,0-0.1,0.1-0.1,0.1c0,0,0,0,0,0c0,0.1-0.1,0.1-0.1,0.1c-0.1,0.1-0.1,0.1-0.2,0.2c-0.1,0.1-0.3,0.3-0.4,0.4
			c-0.1,0.1-0.1,0.1-0.2,0.2c-0.2,0.1-0.3,0.3-0.5,0.3c-0.2,0.1-0.4,0.2-0.5,0.3c-0.4,0.2-0.8,0.4-1.1,0.6c-0.1,0-0.2,0.1-0.3,0.1
			c0,0-0.1,0-0.1,0.1c0,0-0.1,0-0.1,0c0,0,0,0-0.1,0c0,0,0,0,0,0c-0.1,0-0.2,0.1-0.2,0.1c-0.5,0.2-1,0.4-1.5,0.6
			c-2,0.7-4.1,1.3-6.2,1.8c-1.1,0.2-2.1,0.5-3.2,0.6c-0.5,0.1-1,0.2-1.5,0.2c-0.1,0-0.3,0-0.4,0.1c-0.3,0-0.6,0.1-0.9,0.1
			c-4.3,0.5-8.7,0.5-13,0c-0.2,0-0.5-0.1-0.7-0.1c-0.1,0-0.3,0-0.4-0.1c0,0,0,0,0,0c-0.5-0.1-1.1-0.2-1.6-0.3
			c-1.1-0.2-2.1-0.4-3.2-0.6c-0.8-0.2-1.6-0.4-2.4-0.7c-0.2-0.1-0.4-0.1-0.5-0.2c-0.1,0-0.2-0.1-0.2-0.1c-0.4-0.2-0.8-0.4-1.1-0.6
			c-0.3-0.2-0.5-0.3-0.7-0.5c-0.1-0.1-0.3-0.2-0.3-0.3c-0.2-0.1-0.3-0.3-0.4-0.4c0,0,0,0-0.1-0.1c0,0,0-0.1-0.1-0.1
			c0,0,0-0.1-0.1-0.1c0,0,0,0,0,0c-0.1-0.1-0.2-0.2-0.2-0.4c0-0.1-0.1-0.1-0.1-0.2c0,0,0,0-0.1-0.1c0,0,0,0,0-0.1c0,0,0-0.1-0.1-0.1
			c0,0,0,0.1,0.1,0.1c0-0.1-0.1-0.2-0.1-0.3c0,0.1,0,0.1,0,0.2c0-0.1,0-0.1,0-0.2c0,0,0,0,0,0c0,0,0,0,0,0c0,0,0,0,0,0c0,0,0,0,0,0
			c0,0,0,0,0-0.1c0,0,0,0,0,0.1c0-0.1,0-0.2,0-0.1c0-0.1,0-0.1,0-0.1c0,0,0,0,0,0.1c0,0,0,0,0,0.1c0-0.1,0.1-0.2,0.1-0.3
			c0,0,0,0.1-0.1,0.1c0-0.1,0.1-0.1,0.1-0.2c0,0,0,0,0,0c0-0.1,0.1-0.1,0.1-0.1c0.1-0.2,0.2-0.3,0.3-0.5c0.1-0.1,0.5-0.7,0.1-0.2
			c0.3-0.3,0.5-0.7,0.8-1c0.3-0.3,0.6-0.6,0.9-0.9c0.2-0.1,0.3-0.3,0.5-0.4c0.1,0,0.1-0.1,0.2-0.1c0,0,0,0-0.1,0
			c0.8-0.6,1.6-1.1,2.5-1.6c0.8-0.5,1.7-1,2.6-1.4C91.4,136.4,91.6,136.3,91.8,136.2z M14.6,114.7C14.6,114.7,14.6,114.7,14.6,114.7
			C14.6,114.7,14.6,114.7,14.6,114.7C14.6,114.8,14.6,114.7,14.6,114.7z M47.4,113.5C47.4,113.5,47.4,113.4,47.4,113.5
			C47.4,113.4,47.4,113.5,47.4,113.5z M47.4,111.8c0,0,0.1,0.1,0.1,0.1c0.1,0.1,0.1,0.3,0.2,0.4c0,0,0,0,0,0c0,0,0,0,0,0
			c0,0,0,0,0,0c0,0,0,0.1,0,0.1c0,0,0,0,0,0c0,0,0,0,0,0.1c0-0.1,0-0.1,0,0c0,0,0,0,0,0.1c0,0,0,0,0,0c0,0,0,0,0,0c0,0,0,0,0,0.1
			c0,0,0,0.1,0,0.1c0,0,0,0,0-0.1c0,0.2-0.1,0.3-0.1,0.5c0.1-0.6,0.1-0.1-0.1,0.1c-0.1,0.1-0.1,0.2-0.2,0.3c0,0,0,0,0,0
			c-0.1,0.1-0.4,0.4-0.4,0.4c-0.1,0.1-0.3,0.3-0.4,0.4c-0.1,0.1-0.2,0.1-0.2,0.2c-0.4,0.3-0.8,0.5-1.2,0.7c-0.2,0.1-0.4,0.2-0.6,0.3
			c0,0,0,0,0,0c-0.1,0-0.2,0.1-0.3,0.1c-0.5,0.2-0.9,0.3-1.4,0.5c-1.9,0.6-3.9,1-5.9,1.3c-0.2,0-0.4,0.1-0.7,0.1c0,0,0,0,0,0
			c0,0,0,0,0,0c-0.1,0-0.3,0-0.4,0.1c-0.5,0.1-1,0.1-1.5,0.2c-1,0.1-2.1,0.2-3.1,0.2c-2.1,0.1-4.1,0-6.2-0.1c-1-0.1-2-0.1-3-0.3
			c0.6,0.1-0.3,0-0.4-0.1c-0.2,0-0.4-0.1-0.6-0.1c-0.4-0.1-0.9-0.2-1.3-0.3c-0.8-0.2-1.7-0.4-2.5-0.7c-0.2-0.1-0.3-0.1-0.5-0.2
			c-0.1,0-0.1-0.1-0.2-0.1c-0.4-0.2-0.7-0.4-1-0.6c-0.1,0-0.2-0.2-0.3-0.2c-0.1-0.1-0.1-0.1-0.1-0.1c-0.1-0.1-0.2-0.2-0.3-0.3
			c0,0,0-0.1-0.1-0.1c-0.1-0.2-0.2-0.6-0.1-0.1c0,0,0,0,0,0c0-0.1-0.1-0.1-0.1-0.2c-0.1-0.2-0.1-0.4-0.2-0.6c0,0,0-0.1,0-0.1
			c0-0.1,0-0.3,0-0.4c0,0.4,0,0.1,0,0c0,0,0,0,0,0c0,0,0,0,0,0c0-0.1,0-0.1,0-0.2c0,0,0,0,0,0c0,0.1,0,0.1,0,0.2
			c0-0.1,0.1-0.2,0.1-0.4c0,0,0,0,0,0c0.1-0.1,0.1-0.2,0.2-0.3c0,0,0,0,0.1-0.1c0.1-0.1,0.3-0.3,0.4-0.4c0,0,0.1,0,0.1-0.1
			c0.1-0.1,0.3-0.2,0.4-0.3c0.4-0.2,0.7-0.4,1.1-0.6c0.1,0,0.1-0.1,0.2-0.1c0.2-0.1,0.4-0.2,0.6-0.2c0.5-0.2,0.9-0.3,1.4-0.4
			c1-0.3,2-0.5,3.1-0.7c0.3,0,0.5-0.1,0.8-0.1c0.1,0,0.3,0,0.4-0.1c0,0,0,0,0,0c0.6-0.1,1.1-0.1,1.7-0.2c4.1-0.4,8.3-0.5,12.5-0.2
			c0.3,0,0.7,0,1,0.1c0.5,0,1,0.1,1.5,0.1c0.3,0,0.5,0.1,0.8,0.1c0.1,0,0.2,0,0.3,0c0.1,0,0.1,0,0.2,0c1,0.1,2,0.3,3,0.6
			c0.2,0.1,0.4,0.1,0.6,0.2c0.1,0,0.2,0.1,0.3,0.1c0,0,0.3,0.1,0.3,0.1c0,0,0,0,0,0c0.1,0,0.2,0.1,0.3,0.1c0.2,0.1,0.4,0.2,0.6,0.3
			c0.2,0.1,0.3,0.2,0.5,0.3c0.1,0,0.1,0.1,0.2,0.1C47.1,111.5,47.2,111.6,47.4,111.8z M126.4,57.7c-0.1,0-0.2,0-0.2,0
			C126.2,57.7,126.3,57.7,126.4,57.7z M103.5,61.1C103.5,61.1,103.5,61.1,103.5,61.1C103.5,61.1,103.5,61.1,103.5,61.1
			C103.5,61.1,103.5,61.1,103.5,61.1z M130.9,61.4c0,0-0.1,0.1-0.1,0.1c-0.1,0.1-0.2,0.1-0.2,0.2c-0.3,0.2-0.7,0.4-1,0.6
			c-0.1,0-0.2,0.1-0.3,0.1c0,0,0,0-0.1,0c0,0,0,0,0,0c-0.1,0-0.2,0.1-0.3,0.1c-0.4,0.1-0.8,0.3-1.2,0.4c-1.7,0.5-3.4,0.8-5.1,1.1
			c-0.1,0-0.3,0.1-0.4,0.1c0,0,0,0-0.1,0c-0.1,0-0.2,0-0.3,0c-0.4,0.1-0.9,0.1-1.3,0.1c-0.9,0.1-1.8,0.1-2.7,0.2
			c-1.8,0.1-3.5,0-5.3-0.1c-0.4,0-0.8-0.1-1.3-0.1c-0.2,0-0.4,0-0.6-0.1c-0.1,0-0.2,0-0.3,0c0,0-0.6-0.1-0.2,0c0.3,0-0.1,0-0.1,0
			c-0.1,0-0.2,0-0.3,0c-0.2,0-0.3-0.1-0.5-0.1c-0.4-0.1-0.8-0.1-1.1-0.2c-0.7-0.2-1.5-0.4-2.2-0.6c-0.1,0-0.2-0.1-0.3-0.1
			c-0.1,0-0.1-0.1-0.2-0.1c-0.3-0.1-0.6-0.3-0.9-0.5c0,0-0.1,0-0.1-0.1c-0.1-0.1-0.2-0.1-0.2-0.2c-0.1-0.1-0.1-0.1-0.2-0.2
			c0,0,0-0.1-0.1-0.1c0,0,0-0.1-0.1-0.1c0,0,0,0,0,0c-0.1-0.2-0.1-0.3-0.1-0.5c0-0.1,0-0.2,0-0.3c0-0.1,0-0.2,0.1-0.2c0,0,0,0,0,0
			c0-0.1,0.2-0.2,0.2-0.3c0.1-0.1,0.2-0.2,0.3-0.3c-0.3,0.2-0.1,0.1,0,0c0,0,0,0,0,0c0,0,0,0,0,0c0.1,0,0.1-0.1,0.2-0.1
			c-0.1,0-0.1,0.1-0.1,0.1c0.1-0.1,0.3-0.2,0.4-0.3c0.3-0.2,0.6-0.4,1-0.5c0,0,0,0,0.1,0c0.2-0.1,0.4-0.1,0.6-0.2
			c0.4-0.1,0.8-0.3,1.2-0.4c0.9-0.2,1.8-0.4,2.7-0.6c0.2,0,0.5-0.1,0.7-0.1c0.1,0,0.2,0,0.3,0c0.5-0.1,1-0.1,1.4-0.2
			c3.5-0.3,7.1-0.4,10.7-0.2c0.3,0,0.6,0,0.9,0.1c0.4,0,0.8,0.1,1.3,0.1c0.2,0,0.4,0,0.7,0.1c0,0,0,0,0.1,0c0,0,0,0,0,0
			c0.1,0,0.2,0,0.2,0c0.8,0.1,1.7,0.3,2.5,0.5c0.2,0.1,0.4,0.1,0.5,0.2c0.1,0,0.2,0.1,0.3,0.1c0.1,0,0.1,0,0.1,0
			c0.3,0.1,0.6,0.3,0.8,0.5c0.2,0.1,0.3,0.2,0.4,0.3c0,0,0,0,0.1,0c0.1,0.1,0.2,0.2,0.3,0.3c0,0,0.1,0.1,0.1,0.1
			c0,0.1,0.1,0.2,0.2,0.3c0,0,0,0,0,0c0,0,0,0,0,0c0,0,0,0.1,0,0.1c0,0,0,0,0,0.1c-0.1,0.1-0.1,0.3-0.2,0.4c0,0,0,0.1-0.1,0.1
			c-0.1,0.1-0.3,0.3-0.4,0.4C131,61.3,131,61.4,130.9,61.4z"/>
		<path class="st2" d="M48.8,37.1c0,0,0,0.1,0,0.1C48.8,37.2,48.8,37.1,48.8,37.1C48.8,37.1,48.8,37.1,48.8,37.1
			C48.8,37.1,48.8,37.1,48.8,37.1C48.8,37.1,48.8,37.1,48.8,37.1C48.8,37.1,48.8,37.1,48.8,37.1C48.8,37.2,48.8,37.2,48.8,37.1
			C48.8,37.2,48.8,37.2,48.8,37.1C48.8,37.2,48.8,37.2,48.8,37.1c0,0.1,0,0.1,0,0.1c0,0,0,0,0,0c0,0,0,0,0,0c0,0,0,0,0,0
			c0,0,0,0,0,0c0,0,0,0,0,0c0,0,0,0,0,0c0,0,0,0,0,0c0,0,0,0,0,0c0,0,0-0.1,0-0.1C48.8,37.2,48.8,37.1,48.8,37.1z"/>
		<path class="st2" d="M67.1,36.4C67,36.4,67,36.3,67.1,36.4c-0.1-0.1-0.1-0.1-0.1-0.1C67,36.3,67,36.4,67.1,36.4z"/>
		<path class="st2" d="M67.1,36.5C67.1,36.5,67.1,36.5,67.1,36.5C67.1,36.5,67.1,36.5,67.1,36.5C67.1,36.4,67.1,36.4,67.1,36.5
			C67.1,36.5,67.1,36.5,67.1,36.5C67.1,36.5,67.1,36.5,67.1,36.5z"/>
	</g>
</g>
<path class="st3" d="M36.4,77c2.8,5.3,6.1,9.5,10.1,13.8c0.4,0.4,0.9,0.9,1.4,0.6c-1.1-5.4-2.4-9.9-5.8-14.2
	c-3.1-4-6.1-6.6-10.7-8.7c-0.1-0.1-0.3-0.1-0.3-0.3c-0.1-0.3,0.2-0.5,0.4-0.6c1.5-0.9,3.5-4.5,1.1-9.4c-0.6-1.2-1.8-1.8-3-2.3
	c-2.2-0.9-5.7-0.4-6.4,1.9c-2.2,7.2,3.1,9.7,4.4,11.5c-3,2.2-5.6,4.4-8.1,7.2c-2,2.2-4.8,9.9-4.4,13.2c1.9,0.5,4.5-5.8,5.9-7.3
	c0.9-0.6,1.8-1.4,2.7-1.7c1.2,3.2-0.8,9.4-1.1,12.9c-0.4,4.7-0.8,9.4-1,14.2c-0.1,2-0.1,4,0.8,5.8c0.8,0.5,1.6-0.6,1.9-1.5
	c1.9-6.4,3.3-13.1,6.8-18.8c-0.4,5.9-2.4,15.3,1.3,20.6c1.3-0.9,1.6-3.1,2-4.5C40.8,87.3,36.4,77,36.4,77z"/>
<path class="st3" d="M109.2,31.4c0,1.7-3.3,5-4.2,6.7c-0.6,1.2-3.7,7.3-2.9,8.4c-1.8-2.5-2.1-5.9-1.3-8.9c0.9-3.4,3-7.2,5.8-9.4
	c2.1-1.7,4.7-3.7,7.3-4.5c-1.2-0.6-5.9-5.7,0-10.5c1-0.8,2.7-1,3.7-0.3c5.9,4.1,1.2,10.6-0.2,11.6c0.8-0.6,6.5,6.7,7,7.6
	c1.7,2.7,3.4,7,3,10.2c-0.1,0.6-3.7-4.2-3.8-4.4c-0.9-1.3-3.2-4.5-4.7-2.2c-0.5,0.8,0.6,4.5,0.8,5.4c0.3,2.3,0.5,4.5,0.7,6.8
	c0.3,4.6,0.4,9.1,0.2,13.7c0,0.9-1.9-1.9-2-2c-0.7-1.4-1.1-3.3-1.6-4.7c-1.2-3.4-2.4-6.8-3.6-10.2c-0.6,3.4,1.3,27.6-2.6,14.4
	C105.4,40.3,109.2,31.4,109.2,31.4z"/>
<path class="st3" d="M51.5,15c-2-1.7-3.5-3.8-5.1-5.8c-1.5-2-3.3-3.8-3.7-6.4c0,0.2,3.2,2.5,3.6,2.9c1.3,1.4,3,2.5,4.6,3.5
	c0.6,0.3,1.1,0.6,1.7,0.8c1.5,0.4,1.2-0.7,0.4-1.4c-0.7-0.6-1.2-1.5-1.3-2.4c-0.1-0.5-0.1-1.1,0.1-1.6c0.4-1.2,1.9-2.3,3.2-2.3
	c5.9,0,3.1,5.7,2.6,6.8c-0.2,0.4-0.1,0.9,0.2,1.3c0.3,0.3,0.7,0.4,1,0.6c0.4,0.2,0.6,0.5,0.9,0.8c0.5,0.6,7.1,10,6,10.3
	c-1.1,0.3-4.1-2.9-4.9-3.8L59,17c0.9,5.3,0.4,10.9,1.3,16.6c0.2,1.6,0.1,3.9-1.2,4c-1.4-4-1.9-8.5-2.8-12.7c-0.2-1-0.5-2.1-1.3-2.7
	c-1.3,3.3-1,5.8-0.7,9.1c0.2,1.8,0.3,4.2-0.5,5.8c-0.7-0.7-1-1.7-1.3-2.7C48.8,21.2,51.5,15,51.5,15z"/>
<path class="st3" d="M91.8,95.2c1.7-1.4,5.3-0.6,5.7-2.9c0.2-1-0.2-1.9-0.7-2.8c-0.5-0.8-1.1-1.6-1.6-2.5c-1.2-2.6-0.1-5.8,2.4-7.2
	c2.5-1.4,6.7-0.9,7.9,1.6c3.5,7.8-1.7,9.5-1,10.6c1.8,2.8,8.9,1.6,10.9-0.7c2.3-2.7,6.4-8.5,10.5-8.6c-1.9,13-16.2,18.1-16.2,18.1
	c1.8,9.9,2.7,24.7,4.6,35.4c0.5,2.9,0.2,7.2-2.4,7.5c-2.6-7-7.2-18.3-9.7-24.9c-0.8,4.5,4.6,35.3-3.4,18.9
	c-2.4-4.9-3.4-10.5-4.4-15.8c-0.5-2.4-0.7-4.8-1-7.2c-0.1-1.1-0.8-9.5-0.7-10c-0.5,3-1.8,11.5-2.3,14.6c-0.2,1.1-0.4,2.3-1.3,3
	c-1.6-1.3-1.8-3.4-2-5.3c-0.5-6.6-0.4-13.5,2.9-19.4C90.3,96.6,91,95.8,91.8,95.2z"/>
</svg>
