<?xml version="1.0" encoding="utf-8"?>
<!-- Generator: Adobe Illustrator 25.4.1, SVG Export Plug-In . SVG Version: 6.00 Build 0)  -->
<svg version="1.1" id="Calque_1" xmlns="http://www.w3.org/2000/svg" xmlns:xlink="http://www.w3.org/1999/xlink" x="0px" y="0px"
	 viewBox="0 0 155.7 155.7" style="enable-background:new 0 0 155.7 155.7;" xml:space="preserve">
<style type="text/css">
	.st0{fill:#F9D4AC;}
	.st1{fill:#C7C1C0;}
	.st2{fill:#193F79;}
	.st3{fill:none;}
</style>
<path class="st0" d="M6,104.9c12.1,3.3,25.4,3.9,37.8,4.7c5.8,0.4,36.9,5.1,39.6,0.6c-5-6.3-10.1-12.7-15.1-19
	c-5.5-6.9-11.1-14-14.4-22.2c-3.3-8.2-4.1-17.9-0.1-25.7c14.5,0.2,25.5,12.6,34.5,23.9c9.8,12.3,19.7,24.7,29.5,37
	c8,10.1,18,7,29.6,7.3c-1.3-34.9-4.8-55.1-9.4-76.8c-4.3-0.9-8.9-3.7-9.2,2.4c-0.2,3.1-0.2,4.8-2.4,7.2c-6.1,6.7-19.6,2.9-26.9,1
	c-4.4-1.1-9.6-2.5-7.6-8.3c1.4-4.1,5.7-4.5,8.2-7.5c-1.8-1.8-6.1-1.2-8.5-1.4c-8.4-0.6-16.9-1-25.5-1.1c-11.5-0.1-13.8,1.8-13.8,1.8
	C25.7,60,6,104.8,6,104.9z"/>
<path class="st1" d="M67.6,68.3c2.2,2.8,4.3,5.6,6.5,8.5c1.9,2.5,3.8,5,5.9,7.3c2.5,2.9,4.3,9.1,7,11.8c14,14.4,29.4,34.9,39.9,42.4
	c-1.4-4.8-0.1-12.5,3.3-16.3s8.4-4.7,13.6-2.7c-1.6-0.3-9.5-13.9-11.3-15.9c-4.7-5.1-9.9-9.7-15.1-14.4c-10.4-9.3-20.9-18-30.1-28.5
	c-1.7-1.9-3.4-3.9-5.5-5.4c-4.3-3-15.5-1.9-17.9,3.6C62.6,61.5,66,66.3,67.6,68.3z"/>
<g>
	<path class="st2" d="M130,139.2C130,139.3,130,139.3,130,139.2c0,0.1,0,0.1,0,0.1c0,0,0,0,0,0c0,0,0,0,0,0
		C130,139.1,130,139.1,130,139.2z"/>
	<path class="st2" d="M128.7,133.5C128.7,133.5,128.7,133.5,128.7,133.5c0,0.1,0,0.1,0,0.1c0,0,0,0.1,0,0.1c0,0,0,0,0,0
		C128.7,133.6,128.7,133.5,128.7,133.5z"/>
	<path class="st2" d="M151.9,133c-0.4-3.2-0.9-6.4-1.7-9.5c-0.4-1.5-0.8-3-1.5-4.4c-0.2-0.4-0.5-0.9-0.9-1.2c0,0,0,0,0,0
		c-2.1-2.5-4.5-4.8-6.8-7.2c-3.8-3.9-7.7-7.7-11.5-11.5c-4.7-4.6-9.3-9.2-14-13.7c-4.7-4.6-9.5-9.2-14.2-13.8
		c-4-3.9-8.1-7.8-12.1-11.7c-2.6-2.5-5.2-5-7.8-7.5c-0.5-0.5-1-1-1.5-1.5c-0.2-0.2-0.5-0.4-0.8-0.6c-1.1-0.8-2.2-1.5-3.4-2.2
		c-1.8-1.2-3.7-2.2-5.6-3.2c-1-0.5-2-1-3-1.4c-1-0.4-1.9-0.9-2.9-1.1c-0.1-0.1-0.2-0.1-0.3-0.1c0,0,0,0,0,0c-0.1,0-0.7-0.2-0.2-0.1
		c-0.1,0-0.3-0.1-0.4-0.2c-0.3-0.1-0.6-0.3-0.9-0.4c-0.6-0.3-1.3-0.6-1.9-1c-1-0.5-2-1.1-3.1-1.6c-0.8-0.4-1.6-0.4-2.3,0.2
		c-0.7,0.5-1,1.4-0.8,2.2c0.6,2.2,1.1,4.4,1.7,6.6c0.1,0.5,0.3,1.1,0.5,1.6c0,0,0,0,0,0c0,0.2,0,0.3,0.1,0.5
		c0.1,0.9,0.3,1.7,0.6,2.6c0.9,3.5,2.2,7,3.7,10.3c0.2,0.5,0.4,1,0.6,1.4c0.1,0.2,0.1,0.3,0.2,0.5c0,0,0,0,0,0.1
		c0.3,0.5,0.6,0.9,0.9,1.4c2.4,3.4,5.1,6.7,7.7,10c3.8,4.8,7.7,9.6,11.6,14.4c4.5,5.5,9,11,13.6,16.4c4.4,5.3,8.8,10.6,13.3,15.9
		c3.5,4.2,7.1,8.4,10.7,12.6c1.2,1.4,2.4,2.8,3.6,4.2c0.7,0.8,1.4,1.6,2.1,2.4c0.9,1,2,2,3.2,2.7c0.5,0.3,1,0.6,1.6,0.7
		c0.3,0.1,0.6,0.2,0.9,0.1c0,0,0,0,0,0c2.5-0.1,5-0.4,7.6-0.6c1-0.1,2-0.1,3-0.2c0.7-0.1,1.2-0.2,1.7-0.7c0.2-0.2,0.4-0.4,0.6-0.6
		c2-2,3.9-4,5.9-6c0.6-0.6,1.2-1.2,1.8-1.8C152.2,134.8,152,134,151.9,133z M144.8,120.8C144.8,120.8,144.8,120.8,144.8,120.8
		c0,0,0,0.1,0.1,0.1C144.8,120.9,144.8,120.9,144.8,120.8C144.8,120.8,144.8,120.8,144.8,120.8z M86.6,63.4c3,2.9,6.1,5.9,9.1,8.8
		c3.5,3.4,7.1,6.8,10.6,10.3c3.7,3.6,7.3,7.1,11,10.7c3.5,3.4,7,6.9,10.5,10.3c3,2.9,5.9,5.9,8.9,8.9c1.3,1.3,2.6,2.7,3.9,4
		c-0.9-0.1-1.8-0.3-2.7-0.4c-0.8-0.1-1.5-0.2-2.3-0.4c-0.3,0-0.6-0.1-0.9,0c-4.5-4.7-9-9.4-13.6-14.1c-3.8-3.9-7.6-7.7-11.4-11.5
		c-3.4-3.4-6.8-6.8-10.2-10.2c-3.6-3.6-7.1-7.2-10.7-10.8c-4.2-4.3-8.3-8.6-12.4-12.9c0.7,0,1.5,0,2.2,0.1c0.1,0,0.1,0,0.2,0
		c0.3,0.3,0.7,0.7,1,1C82.2,59.1,84.4,61.3,86.6,63.4z M128.5,119.7c-0.9,0.7-1.7,1.5-2.4,2.4c-4.2-4.7-8.4-9.4-12.6-14.1
		c-3.6-4.1-7.2-8.2-10.8-12.3c-3.2-3.7-6.5-7.4-9.7-11.1c-3.4-3.9-6.8-7.8-10.1-11.6c-4-4.6-8.1-9.2-12.1-13.7
		c-0.3-0.3-0.6-0.7-0.9-1c0,0,0.1-0.1,0.1-0.1c0,0,0,0,0,0c0.1-0.1,0.3-0.2,0.4-0.3c0.5-0.3,0.9-0.6,1.5-0.8
		c4.2,4.5,8.5,9,12.8,13.4c3.6,3.7,7.2,7.3,10.8,11c3.4,3.4,6.8,6.8,10.2,10.2c3.7,3.8,7.5,7.5,11.2,11.3c4.6,4.7,9.2,9.4,13.7,14.2
		c0.2,0.2,0.5,0.5,0.7,0.7C130.2,118.4,129.4,119,128.5,119.7z M65,47.1C64.9,47.1,64.9,47.1,65,47.1C64.9,47.1,64.9,47.1,65,47.1z
		 M60.6,49.1c0.1-0.2,0.2-0.5,0.3-0.5c0,0,0-0.1,0.1-0.1c0.1-0.1,0.1-0.1,0.2-0.2c0.2-0.2,0.4-0.5,0.7-0.7c0.2-0.2,0.4-0.3,0.6-0.5
		c0,0,0.1,0,0.1-0.1c0.1-0.1,0.2-0.2,0.4-0.2c0.2-0.1,0.3-0.2,0.5-0.3c0.1,0,0.1,0,0.2,0.1c0.4,0.1,0.8,0.3,1.1,0.4c0,0,0.1,0,0.1,0
		c0,0,0,0,0,0c0.2,0.1,0.4,0.2,0.6,0.3c0.8,0.4,1.6,0.7,2.3,1.1c2.1,1.1,4.1,2.3,6,3.5c-1.2,0.2-2.4,0.6-3.6,1.1
		c-2.6,1.1-4.6,3.1-6.3,5.3c-0.1,0.1-0.2,0.3-0.3,0.4c-0.6-1.5-1.2-3.1-1.7-4.6c-0.5-1.4-0.9-2.9-1.2-4.3
		C60.7,49.6,60.7,49.3,60.6,49.1z M117.3,126.6c-3.1-3.6-6.1-7.3-9.2-10.9c-3.5-4.1-6.9-8.2-10.3-12.4c-3.5-4.2-7-8.4-10.4-12.6
		c-3.2-3.9-6.4-7.8-9.6-11.8c-2.6-3.2-5.1-6.4-7.6-9.6c-0.1-0.2-0.3-0.3-0.4-0.5c0,0-0.1-0.1-0.1-0.1c-0.2-0.3-0.5-0.6-0.7-0.9
		c-0.4-0.6-0.9-1.1-1.3-1.7c-0.7-0.9-1.3-1.8-1.9-2.7c0,0,0,0,0,0c0.4-0.7,0.8-1.4,1.3-2c3.9,4.4,7.8,8.7,11.6,13.1
		c3.4,3.9,6.9,7.8,10.3,11.8c3.2,3.7,6.4,7.4,9.6,11.1c3.5,4.1,7.1,8.1,10.7,12.1c4.4,4.9,8.8,9.9,13.2,14.8c0.6,0.7,1.2,1.3,1.8,2
		c0,0.5,0,1,0,1.4c0,2.5,0.2,5.1,0.6,7.6c-0.1-0.1-0.2-0.3-0.4-0.4C122,132.1,119.7,129.4,117.3,126.6z M141.1,140.1
		c-0.2,0.2-0.3,0.3-0.5,0.5c-3.1,0.2-6.2,0.5-9.3,0.7c-0.1-0.1-0.1-0.1-0.2-0.2c0,0-0.1-0.1-0.1-0.1c-0.4-0.5-0.7-1.1-0.9-1.6
		c0,0,0,0.1,0,0.1c0-0.1-0.1-0.1-0.1-0.2c0,0,0-0.1,0-0.1c-0.1-0.1-0.1-0.3-0.2-0.4c-0.1-0.4-0.2-0.7-0.4-1.1
		c-0.2-0.8-0.4-1.5-0.5-2.3c-0.1-0.4-0.1-0.8-0.2-1.2c0-0.2,0-0.3-0.1-0.5c0,0,0,0.1,0,0.1c0,0,0-0.1,0-0.1c0,0,0,0,0,0
		c0,0,0-0.1,0-0.1c0,0,0,0,0,0c0,0,0,0,0,0c0,0,0-0.1,0-0.1c-0.1-0.7-0.2-1.5-0.2-2.2c-0.1-1.2-0.1-2.4-0.2-3.7c0-0.4,0-0.8,0-1.3
		c0.1-0.2,0.3-0.5,0.5-0.7c0.1-0.1,0.1-0.2,0.2-0.3c0,0,0.1-0.2,0.2-0.2c0,0,0.1-0.1,0.1-0.1c0.1-0.1,0.1-0.2,0.2-0.2
		c0.7-0.8,1.4-1.5,2.2-2.1c0.2-0.2,0.4-0.3,0.5-0.4c0,0,0,0,0,0c0.1-0.1,0.2-0.1,0.3-0.2c0.4-0.3,0.8-0.6,1.2-0.9
		c0.6-0.4,1.3-0.9,2-1.3c2.9,0.5,5.8,0.9,8.7,1.4c0.2,0,0.5,0.1,0.7,0.1c0,0,0.1,0.1,0.1,0.1c0,0.1,0.1,0.1,0.1,0.2
		c0.1,0.2,0.2,0.5,0.3,0.7c0.4,1.2,0.7,2.4,1,3.6c0.5,2.4,0.9,4.8,1.2,7.2c0,0,0,0.1,0,0.1c0,0.1,0,0.1,0,0.2
		C145.5,135.7,143.3,137.9,141.1,140.1z"/>
</g>
<g>
	<path class="st2" d="M98.6,31.8C98.5,31.8,98.5,31.8,98.6,31.8C98.4,31.9,98.2,32,98.6,31.8z"/>
	<path class="st2" d="M93.9,36C93.9,36,93.9,36,93.9,36C93.9,36,93.9,36,93.9,36C93.9,36,93.9,36,93.9,36z"/>
	<path class="st2" d="M118.3,46.7c0,0,0.1,0,0.1,0c0,0,0.1,0,0.1,0C118.1,46.7,118.2,46.7,118.3,46.7z"/>
	<path class="st2" d="M93.7,40.3C93.7,40.3,93.7,40.3,93.7,40.3c0,0,0.1,0.1,0.1,0.1C93.8,40.3,93.8,40.3,93.7,40.3z"/>
	<path class="st2" d="M133.7,15.6C133.6,15.8,133.5,16,133.7,15.6L133.7,15.6z"/>
	<path class="st2" d="M138.4,31.5c0.4-0.1,0.3-0.1,0.2-0.1C138.6,31.4,138.6,31.4,138.4,31.5C138.5,31.5,138.5,31.5,138.4,31.5z"/>
	<path class="st2" d="M127,22.1C127.1,21.9,127.1,21.8,127,22.1L127,22.1z"/>
	<path class="st2" d="M150.6,24.9c-2.5-1.4-5.2-2.7-8.1-3.3c-2.9-0.7-5.8-0.8-8.7-0.4c-0.7,0.1-1.4,0.2-2,0.3
		c0.2-0.6,0.4-1.3,0.6-1.9c0.3-1,0.6-2,1-3c0.1-0.2,0.2-0.5,0.3-0.7c0-0.1,0.1-0.2,0.1-0.3c0,0.1,0,0.1-0.1,0.1c0,0,0-0.1,0-0.1
		c0.2-0.4,0.4-0.8,0.6-1.1c0.4-0.7,0.3-1.7-0.2-2.3c-0.5-0.7-1.4-0.9-2.2-0.8c-8,1.5-15.4,5-21.7,10.1c-1.7,1.4-3.3,2.9-4.8,4.5
		c-0.1,0.1-0.2,0.3-0.3,0.4c-1.1,0.1-2.1,0.2-3.2,0.4c-1.6,0.2-3.2,0.6-4.7,1.2c-3.4,1.4-6.2,3.7-7.5,7.2c-1.2,3.4-0.5,7.3,2.1,9.8
		c1.2,1.2,2.7,2,4.3,2.7c1.7,0.7,3.5,1.4,5.3,1.9c3.6,1,7.3,1.6,11,1.7c3.3,0.1,6.9-0.1,10.1-1.1c3-0.9,6-2.8,7.4-5.8
		c1.1-2.4,1.1-5.1,0.4-7.5c0.6-0.5,1.1-1,1.7-1.5c0.1-0.1,0.1-0.1,0.2-0.2c0.1-0.1,0.1-0.1,0.1-0.1c0.1-0.1,0.2-0.1,0.3-0.2
		c0.3-0.2,0.6-0.4,0.9-0.7c1.2-0.8,2.4-1.5,3.7-2.2c0.3-0.1,0.6-0.3,0.9-0.4c0.1-0.1,0.2-0.1,0.3-0.1c0,0,0,0,0,0c0,0,0.1,0,0.1,0
		c0,0,0,0,0,0c0,0,0,0,0.1,0c0,0,0.1,0,0.1,0c0.6-0.3,1.3-0.5,1.9-0.7c1.3-0.4,2.7-0.8,4.1-1.1c0.8-0.2,1.7-0.3,2.5-0.5
		c0.1,0,0.7-0.1,1.1-0.2c-0.1,0-0.1,0,0,0c0,0,0,0,0,0c0.1,0,0.1,0,0.1,0c0,0,0,0,0,0c0.1,0,0.2,0,0.3,0c0.2,0,0.5-0.1,0.7-0.1
		c0.9-0.1,1.8-0.6,2-1.5C151.7,26.4,151.4,25.4,150.6,24.9z M122.6,45.6C122.6,45.6,122.6,45.6,122.6,45.6
		C122.3,45.7,122.5,45.6,122.6,45.6z M126.2,42.4C126.2,42.4,126.2,42.4,126.2,42.4C126.3,42.2,126.3,42.1,126.2,42.4z M126.6,40.9
		c0,0.1,0,0.2,0,0.2c-0.1,0.3-0.1,0.6-0.2,0.9c0,0.1-0.2,0.3-0.2,0.5c0,0.1-0.1,0.1-0.1,0.2c-0.2,0.3-0.3,0.6-0.5,0.8c0,0,0,0,0,0
		c0,0,0,0,0,0c-0.1,0.1-0.2,0.3-0.4,0.4c-0.2,0.2-0.4,0.4-0.7,0.6c0,0,0,0,0,0c-0.1,0.1-0.3,0.2-0.4,0.3c-0.3,0.2-0.5,0.3-0.8,0.5
		c-0.1,0.1-0.3,0.2-0.4,0.2c0,0-0.1,0-0.1,0.1c-0.6,0.2-1.2,0.5-1.9,0.6c-0.6,0.2-1.3,0.3-2,0.4c-0.1,0-0.2,0-0.3,0c0,0,0,0,0,0
		c0,0-0.1,0-0.1,0c0,0,0,0-0.1,0c0,0,0,0-0.1,0c0,0,0,0,0,0c-0.4,0-0.8,0.1-1.2,0.1c-0.8,0.1-1.7,0.1-2.5,0.1c-1.7,0-3.3,0-5-0.2
		c-0.4,0-0.8-0.1-1.2-0.1c-0.1,0-0.1,0-0.2,0c0,0,0,0,0,0c-0.2,0-0.4-0.1-0.6-0.1c-0.8-0.1-1.7-0.3-2.5-0.5
		c-1.6-0.4-3.2-0.8-4.8-1.4c-0.4-0.1-0.8-0.3-1.1-0.4c-0.2-0.1-0.3-0.1-0.5-0.2c-0.1,0-0.2-0.1-0.3-0.1c-0.6-0.3-1.3-0.6-1.9-0.9
		c-0.3-0.2-0.6-0.4-0.9-0.6c-0.1,0-0.1-0.1-0.2-0.1c-0.1-0.1-0.3-0.2-0.4-0.4c-0.2-0.2-0.4-0.4-0.6-0.7c0,0-0.1-0.1-0.1-0.1
		c-0.1-0.2-0.2-0.3-0.3-0.5c0,0-0.1-0.2-0.1-0.3c0,0.1,0,0.1,0,0c0,0,0-0.1,0-0.1c0,0,0,0,0,0c0,0,0,0,0,0c0,0,0-0.1,0-0.1
		c-0.1-0.3-0.2-0.7-0.2-1c0,0,0,0,0,0c0-0.2,0-0.3,0-0.5c0-0.2,0-0.3,0-0.5c0-0.1,0-0.2,0-0.3c0-0.1,0.1-0.5,0-0.1
		c-0.1,0.4,0-0.2,0-0.2c0-0.2,0.1-0.3,0.1-0.5c0-0.1,0.3-0.8,0.3-1c0,0.1-0.2,0.3-0.1,0.1c0,0,0-0.1,0.1-0.1c0,0,0,0,0,0
		c0,0,0,0,0,0c0,0,0-0.1,0.1-0.1c0.1-0.1,0.1-0.3,0.2-0.4c0.2-0.3,0.4-0.6,0.5-0.8c0-0.1,0.1-0.1,0.1-0.2c0.1-0.1,0.2-0.2,0.3-0.4
		c0.3-0.3,0.5-0.5,0.8-0.8c0,0,0,0,0.1-0.1c0,0,0,0,0,0c0.1-0.1,0.3-0.2,0.4-0.3c0.3-0.2,0.6-0.4,0.9-0.6c0.3-0.2,0.6-0.3,0.9-0.5
		c0.1,0,0.1-0.1,0.2-0.1c0,0,0,0-0.1,0c0.2-0.1,0.4-0.1,0.5-0.2c0.7-0.2,1.4-0.4,2.1-0.6c0.8-0.2,1.6-0.3,2.4-0.4c0.1,0,0.2,0,0.3,0
		c0.2,0,0.4,0,0.6-0.1c0.4,0,0.8-0.1,1.3-0.1c1.6-0.1,3.3-0.2,4.9-0.1c0.8,0,1.6,0.1,2.4,0.2c0.2,0,0.4,0,0.6,0.1c0.1,0,0.1,0,0.2,0
		c0,0,0,0,0,0c0.4,0.1,0.9,0.1,1.3,0.2c0.9,0.1,1.7,0.3,2.6,0.5c0.7,0.2,1.4,0.4,2.1,0.6c0.2,0.1,0.3,0.1,0.5,0.2
		c0.1,0,0.1,0,0.2,0.1c0.3,0.2,0.6,0.3,0.9,0.4c0.7,0.3,1.3,0.7,1.9,1.2c0,0,0,0,0.1,0.1c0.1,0.1,0.3,0.2,0.4,0.3
		c0.3,0.2,0.5,0.5,0.8,0.8c0.1,0.1,0.2,0.2,0.3,0.4c0.1,0.1,0.1,0.1,0.2,0.2c0.3,0.3-0.1-0.1-0.1-0.1c0.1,0,0.2,0.3,0.3,0.4
		c0.1,0.2,0.2,0.3,0.3,0.5c0.2,0.3,0.3,0.6,0.5,0.9c0,0,0,0,0,0c0,0,0,0,0,0c0.1,0.2,0.1,0.4,0.2,0.6c0.1,0.3,0.2,0.6,0.3,1
		c0,0.1,0,0.3,0.1,0.4c0,0.1,0,0.1,0,0.2c0,0.4,0,0.7,0,1.1C126.6,40.6,126.6,40.8,126.6,40.9z M140,26.5c-2.9,0.9-5.7,2.2-8.2,3.9
		c-1.2,0.8-2.4,1.7-3.5,2.6c-1.8-2.4-4.5-4-7.3-5c-0.7-0.3-1.5-0.5-2.2-0.6c-2.5-0.6-5.1-1-7.7-1.1c0.5-0.4,0.9-0.9,1.4-1.3
		c0.3-0.3,0.7-0.6,1-0.9c0,0,0,0,0,0c0.1-0.1,0.1-0.1,0.2-0.2c0.2-0.2,0.5-0.3,0.7-0.5c0.8-0.6,1.5-1.1,2.3-1.6c1.6-1,3.3-1.9,5-2.8
		c0.4-0.2,0.9-0.4,1.3-0.6c0.2-0.1,0.3-0.2,0.5-0.2c-0.1,0-0.2,0.1,0,0c0.1-0.1,0.3-0.1,0.4-0.2c0.9-0.4,1.8-0.7,2.7-1
		c0.7-0.2,1.5-0.5,2.2-0.7c-0.2,0.6-0.4,1.2-0.6,1.8c-0.3,1-0.6,2-1,3c-0.1,0.2-0.2,0.5-0.3,0.7c0,0.1-0.1,0.2-0.1,0.3
		c0-0.1,0-0.1,0.1-0.1c0,0,0,0.1,0,0.1c-0.2,0.4-0.4,0.8-0.6,1.1c-1,1.6,0.6,3.5,2.4,3.1c1.6-0.4,3.2-0.8,4.8-1c0,0,0,0,0,0
		c0,0,0,0,0,0c0,0,0.1,0,0.1,0c0,0,0.1,0,0.1,0c0,0,0,0,0,0c0.2,0,0.4,0,0.5-0.1c0.4,0,0.7-0.1,1.1-0.1c0.7,0,1.4-0.1,2.1,0
		c0.7,0,1.3,0.1,2,0.1c0,0,0.1,0,0.2,0c0,0-0.1,0-0.2,0c0.2,0,0.3,0,0.5,0.1c0.3,0.1,0.6,0.1,0.9,0.2c0.4,0.1,0.9,0.2,1.3,0.3
		C141.5,26,140.7,26.2,140,26.5z"/>
	<path class="st2" d="M148.3,29c0.1,0,0.1,0,0.1,0C148.4,28.9,148.4,28.9,148.3,29C148.4,29,148.3,29,148.3,29z"/>
	<path class="st2" d="M133.8,25.4c-0.1,0-0.1,0-0.2,0c0,0,0,0,0,0C133.7,25.4,133.9,25.4,133.8,25.4z"/>
	<path class="st2" d="M139.7,25.3C140,25.4,139.9,25.3,139.7,25.3L139.7,25.3z"/>
</g>
<path class="st3" d="M137.4,75.8c0.2,0,0.3,0,0.5,0"/>
</svg>
