<?xml version="1.0" encoding="utf-8"?>
<!-- Generator: Adobe Illustrator 25.4.1, SVG Export Plug-In . SVG Version: 6.00 Build 0)  -->
<svg version="1.1" id="Calque_1" xmlns="http://www.w3.org/2000/svg" xmlns:xlink="http://www.w3.org/1999/xlink" x="0px" y="0px"
	 viewBox="0 0 155.7 155.7" style="enable-background:new 0 0 155.7 155.7;" xml:space="preserve">
<style type="text/css">
	.st0{fill:#F9D4AC;}
	.st1{fill:#C7C1C0;}
	.st2{fill:#193F79;}
</style>
<path class="st0" d="M109.9,17.4c-0.2-1.6-0.6-3.4-1.9-4.2c-1-0.6-2.3-0.5-3.5-0.4c-22.7,2.5-45.5,6.7-68.3,5.4
	c-10.4-0.6-21.3-2.3-30.7,2c1.5,19.7,2,39.4,1.4,59.2C6.6,89.7,6,100,5.2,110.3c-0.3,4.1-0.1,28.3-3.2,30.2c7-4.2,15.8-2.8,23.9-1.7
	c36.4,4.9,73.4,1.3,110-2.2C124.2,97.6,115.5,57.7,109.9,17.4z M22.5,131.1c-1.2,0-2.8-57.9-3-63.2c-0.3-10.8-1.2-21.8-0.7-32.6
	c0.4-9.2,7-8.9,15.3-9c22.6-0.4,45.2-0.7,67.7-1.1c4.1,33.4,9.7,66.7,16.8,99.6c-5.1,0.8-10.2,1.5-15.2,2.1c7.7-7.1,9.3-19.4,4-27.1
	c-3.2-4.6-8.8-7.9-15-8.5c-6.4-0.6-13.1,1.4-18.9,4.3c-2.7,1.3-4.7,2.8-6.4,5.1c-3.6,4.8-5.9,10.6-5.4,16.2
	c0.5,6.4,4.5,10.6,9.9,13.1C55.2,131.1,38.8,131.4,22.5,131.1z"/>
<path class="st1" d="M112.6,71.3c6.4,7.9,7.6,19.6,2.9,28.6c-2.8,5.5-7.6,9.9-13.3,12.2c-0.6,0.3-2.1,1.1-2.4,0
	c-0.1-0.4,0.1-0.9,0.2-1.3c1-2.4,1.9-5,2.5-7.5c0.5-2.3,0.5-4.7,0.7-7c0.1-1.4,0.2-2.9,0.2-4.3c-0.2-9.3-5.5-20.5-13.6-25.5
	c-0.8-0.5-5.1-1.5-5.4-2.1c-1.3-2.6,6.9-2.6,8.3-2.6C100.3,61.9,107.8,65.4,112.6,71.3z"/>
<path class="st1" d="M124.5,63.7c2.4-1.2,4.7-2.7,7.3-3.5c6.9-2,15,1.7,17.9,8.2s-0.1,15.2-6.5,18.4c-7,3.5-15.9,0.8-22.9,4.3
	c-0.6,0.3-1.2,0.6-1.8,0.3c-0.3-0.2-0.5-0.6-0.6-1c-1.8-5.4-1.4-11.7-4.7-16.4c-2.1-3-3.9-5,0.6-6.4C117.5,66.5,121,65.5,124.5,63.7
	z"/>
<g>
	<path class="st2" d="M84.1,104.6C84.1,104.6,84.1,104.6,84.1,104.6C84.1,104.6,84.1,104.6,84.1,104.6z"/>
	<polygon class="st2" points="84.1,104.6 84.1,104.6 84.1,104.6 	"/>
	<path class="st2" d="M77.2,71.4C77.2,71.4,77.2,71.4,77.2,71.4C77.2,71.5,77.2,71.5,77.2,71.4C77.2,71.4,77.3,71.4,77.2,71.4
		C77.3,71.3,77.3,71.3,77.2,71.4z"/>
	<path class="st2" d="M97.1,109.8C97.1,109.8,97.1,109.7,97.1,109.8C97.1,109.7,97,109.8,97.1,109.8C97,109.8,97,109.8,97.1,109.8z"
		/>
	<path class="st2" d="M84.1,104.7C84.2,104.7,84.2,104.7,84.1,104.7C84.1,104.7,84.1,104.7,84.1,104.7
		C84.1,104.7,84.1,104.7,84.1,104.7z"/>
	<path class="st2" d="M111.4,102.5c0,0,0.1-0.1,0.1-0.1c0,0,0,0,0,0c0,0,0,0,0,0C111.5,102.4,111.4,102.5,111.4,102.5
		C111.4,102.6,111.4,102.6,111.4,102.5z"/>
	<path class="st2" d="M96.2,63.9C96.2,63.9,96.1,63.9,96.2,63.9c-0.1,0-0.2,0-0.2,0c0,0-0.1,0-0.1,0C96.3,64,96.3,63.9,96.2,63.9z"
		/>
	<path class="st2" d="M99.1,64.7C98.9,64.6,98.7,64.6,99.1,64.7L99.1,64.7z"/>
	<path class="st2" d="M148.4,78.2C148.4,78.2,148.4,78.2,148.4,78.2C148.4,78.2,148.3,78.2,148.4,78.2
		C148.3,78.2,148.4,78.2,148.4,78.2z"/>
	<path class="st2" d="M113.1,66.6C113.1,66.6,113.1,66.6,113.1,66.6C113.1,66.6,113.1,66.6,113.1,66.6
		C113.1,66.6,113.1,66.6,113.1,66.6z"/>
</g>
<g>
	<path class="st2" d="M30.4,36.1c7.7,1,15.5,1,23.3,1c9,0,18-0.3,27-1c4.1-0.3,8.3-0.7,12.3-1.4c1.2-0.2,2-1.8,1.7-3
		c-0.4-1.3-1.6-1.9-3-1.7c-0.8,0.1-1.5,0.2-2.3,0.4c-0.2,0-0.4,0.1-0.6,0.1c0.9-0.1,0.2,0,0,0c-0.5,0.1-0.9,0.1-1.4,0.2
		c-1.9,0.2-3.7,0.4-5.6,0.6c-4.3,0.4-8.6,0.6-12.9,0.8c-8.9,0.4-17.9,0.5-26.8,0.2c-3.9-0.1-7.9-0.3-11.7-0.8
		c-0.6-0.1-1.3,0.3-1.7,0.7c-0.4,0.4-0.7,1.1-0.7,1.7c0,0.6,0.2,1.3,0.7,1.7C29.2,35.9,29.7,36.1,30.4,36.1L30.4,36.1z"/>
</g>
<g>
	<path class="st2" d="M29.1,52.5c8.1,1.2,16.3,1.2,24.4,1.1c9.3-0.2,18.6-0.8,27.9-1.6c4.7-0.4,9.5-0.9,14.2-1.5
		c0.7-0.1,1.2-0.2,1.7-0.7c0.4-0.4,0.7-1.1,0.7-1.7c-0.1-1.2-1.1-2.6-2.4-2.4c-8.7,1.1-17.5,1.9-26.3,2.5c-9,0.6-18.1,0.9-27.2,0.7
		c-2.2-0.1-4.4-0.2-6.6-0.3c-1-0.1-2-0.2-3-0.3c-0.5,0-0.9-0.1-1.4-0.2c-0.2,0-0.4-0.1-0.7-0.1c0.9,0.1,0,0-0.2,0
		c-0.7-0.1-1.2-0.1-1.8,0.2c-0.5,0.3-1,0.9-1.1,1.4C27.2,50.7,27.8,52.3,29.1,52.5L29.1,52.5z"/>
</g>
<path class="st2" d="M153.9,72.4c-0.4-3.6-2-6.8-4.5-9.4c-2.3-2.4-5.4-4.3-8.7-5c-3.9-0.8-8-0.3-11.7,1.2c-1.7,0.7-3.2,1.5-4.7,2.5
	c-1.1,0.7-2.3,1.4-3.4,2.1c-0.6,0.4-1.3,0.7-1.9,1c-0.3,0.2-0.6,0.3-1,0.5c-0.1,0-0.1,0.1-0.2,0.1c-0.2,0.1-0.3,0.1-0.5,0.2
	c-0.7,0.3-1.5,0.5-2.3,0.7c-0.4,0.1-0.7,0.2-1.1,0.3c-0.2,0-0.4,0.1-0.6,0.1c0,0-0.1,0-0.1,0c0.1,0,0.2,0,0,0c0,0,0,0,0,0
	c0,0-0.1,0-0.1,0c0,0,0.1,0,0.1,0c-0.6,0.1-1.2,0.1-1.9,0.1c-2.6-2.3-5.6-4.2-8.7-5.8c-1.5-0.7-3-1.3-4.6-1.6
	c-1.8-0.3-3.5-0.5-5.3-0.4c-3.6,0.1-7.2,0.9-10.4,2.5c-0.5,0.2-0.9,0.5-1.4,0.8c-6.4,0.3-12.9,0.6-19.3,0.9
	c-7.1,0.3-14.1,0.6-21.2,0.9c-3.6,0.2-7.3,0.3-10.9,0.5c-1.3,0.1-2.5,1.1-2.4,2.4c0.1,1.2,1.1,2.5,2.4,2.4
	c6.7-0.4,13.4-0.6,20.1-0.9c7.1-0.3,14.1-0.6,21.2-0.9c1.1-0.1,2.3-0.1,3.4-0.2c-1.2,1.9-1.9,4.1-2.3,6.3c-0.2,1.5-0.4,3-0.4,4.5
	c-0.1,6.9,1.6,13.8,4.2,20.2c1.7,4.2,3.6,8.3,6.9,11.6c2.3,2.3,5.2,4.3,8.4,5.2c1.5,0.4,3.1,0.6,4.7,0.4c2.2-0.1,4.5-0.5,6.6-1.2
	c3.1-1.1,6-2.6,8.6-4.5c1.2-0.9,2.3-1.8,3.3-2.8c0.8-0.8,1.5-1.7,2-2.7c0.9-1.9,1.7-3.9,2.3-5.9c0.6-1.7,1-3.4,1.3-5.2
	c0,0,0,0,0-0.1c0.2-0.2,0.5-0.3,0.8-0.4c0.2-0.1,0.3-0.2,0.5-0.2c0,0,0.1,0,0.1-0.1c0.1,0,0.3-0.1,0.3-0.1c0.2-0.1,0.4-0.1,0.6-0.2
	c0.7-0.2,1.4-0.4,2.1-0.6c0.3-0.1,0.7-0.1,1-0.2c0.2,0,0.3-0.1,0.5-0.1c0.1,0,0.3,0,0.4-0.1c3-0.3,6-0.4,9-0.6
	c3.1-0.2,6.2-0.6,9.1-1.7c3.3-1.3,6-3.6,7.8-6.7C153.5,79.2,154.3,75.7,153.9,72.4z M138.8,62.5c-0.1,0-0.2,0-0.2,0
	C138.6,62.4,138.7,62.4,138.8,62.5z M115.1,84.9c0,0.1,0,0.1,0,0.2C115.1,85,115.1,84.9,115.1,84.9z M82.7,66.8c-0.1,0-0.2,0-0.2,0
	C82.5,66.8,82.6,66.8,82.7,66.8z M78.6,69.1c0,0,0,0.1-0.1,0.2c0,0,0,0,0,0C78.5,69.3,78.5,69.1,78.6,69.1z M96,110.4
	c-0.3,0.2-0.1,0,0.1-0.1C96.1,110.4,96.1,110.4,96,110.4z M101,100.2C101,100.4,100.9,101,101,100.2c0,0.2,0,0.4-0.1,0.5
	c-0.1,0.3-0.1,0.7-0.2,1c-0.1,0.6-0.2,1.3-0.4,1.9c-0.1,0.5-0.3,1.1-0.5,1.6c-0.1,0.2-0.2,0.5-0.3,0.7c0,0.1-0.1,0.2-0.1,0.3
	c-0.4,0.8-0.8,1.6-1.3,2.3c0,0,0,0-0.1,0.1c-0.1,0.1-0.2,0.3-0.4,0.4c-0.2,0.2-0.4,0.4-0.7,0.6c0.1,0,0.1-0.1,0.1-0.1
	c0,0-0.2,0.1-0.2,0.1c0,0,0,0,0,0c0,0,0,0,0,0c-0.2,0.2-0.1,0.1,0,0c-0.1,0.1-0.3,0.2-0.4,0.3c-0.1,0.1-0.3,0.2-0.4,0.2c0,0,0,0,0,0
	c-0.3,0.1-0.6,0.2-0.8,0.3c-0.1,0-0.1,0-0.2,0c-0.1,0-0.2,0-0.4,0c-0.3,0-0.7,0-1,0c0,0-0.2,0-0.3,0c-0.1,0-0.2,0-0.3,0
	c-0.3,0-0.6-0.1-0.8,0c-0.2-0.1-0.5-0.1-0.7-0.2c-0.3-0.1-0.6-0.2-0.9-0.3c0,0,0,0,0,0c-0.2-0.1-0.3-0.2-0.5-0.2
	c-0.6-0.3-1.3-0.7-1.9-1.1c-0.3-0.2-0.6-0.4-0.9-0.6c0,0-0.1,0-0.1-0.1c-0.1-0.1-0.2-0.2-0.4-0.3c-1.1-0.9-2.1-1.9-2.9-3
	c0.1,0.1,0.1,0.2,0,0c0-0.1-0.1-0.1-0.1-0.2c0,0,0-0.1-0.1-0.1c0,0,0,0,0.1,0.1c-0.1-0.1-0.1-0.1-0.2-0.2c-0.2-0.3-0.4-0.5-0.5-0.8
	c-0.6-1-1.1-2-1.6-3.1c-0.4-0.7-0.7-1.4-1-2.1c-0.2-0.3-0.3-0.7-0.5-1.1c0-0.1-0.1-0.1-0.1-0.2c-0.1-0.2-0.2-0.4-0.3-0.6
	c-0.6-1.5-1.1-3-1.6-4.5c-0.5-1.6-0.9-3.2-1.3-4.8c-0.2-0.8-0.3-1.6-0.5-2.4c-0.1-0.4-0.1-0.8-0.2-1.1c0.2,0.6,0,0,0-0.2
	c0-0.2-0.1-0.5-0.1-0.7c-0.2-1.5-0.2-3.1-0.2-4.6c0-0.7,0-1.4,0.1-2c0-0.3,0.1-0.6,0.1-0.9c0,0,0,0,0,0c0-0.2,0.1-0.4,0.1-0.5
	c0.2-1.1,0.5-2.1,0.8-3.2c0,0,0-0.1,0-0.1c0,0,0,0,0,0c0,0,0,0,0,0c0-0.1,0.1-0.2,0.1-0.3c0,0,0,0,0,0.1c0.1-0.2,0.2-0.4,0.3-0.6
	c0.2-0.4,0.4-0.8,0.7-1.2c0-0.1,0.1-0.1,0.1-0.2c0.1-0.1,0.2-0.3,0.3-0.4c0.3-0.3,0.6-0.6,0.9-0.8c0,0,0.1,0,0.1-0.1
	c0.1-0.1,0.3-0.2,0.5-0.3c0.3-0.2,0.5-0.3,0.8-0.4c0.5-0.1,1-0.2,1.4-0.4c0.1,0,0.3-0.1,0.4-0.1c0.2,0,0.4,0,0.6,0
	c0.4,0,0.8,0,1.1,0c0.2,0,0.3,0,0.5,0c0.1,0,0.1,0,0.2,0c0.4,0.1,0.8,0.2,1.1,0.3c0.4,0.1,0.8,0.2,1.1,0.4c0.1,0,0.1,0.1,0.2,0.1
	c0.2,0.1,0.3,0.1,0.5,0.2c0.8,0.4,1.5,0.8,2.2,1.3c0.1,0.1,0.3,0.2,0.4,0.3c0.1,0.1,0.2,0.1,0.3,0.2c0.3,0.3,0.7,0.6,1,0.9
	c0.4,0.4,0.7,0.8,1.1,1.2c0.2,0.2,0.4,0.4,0.5,0.6c0,0,0.1,0.1,0.1,0.1c0.1,0.1,0.1,0.2,0.2,0.2c1.5,2,2.6,4.2,3.6,6.4c0,0,0,0,0,0
	c0,0.1,0.1,0.2,0.1,0.3c0.1,0.3,0.2,0.6,0.4,0.9c0.2,0.6,0.4,1.2,0.6,1.7c0.4,1.2,0.7,2.4,1.1,3.6c0.3,1.2,0.6,2.3,0.8,3.5
	c0.1,0.6,0.2,1.2,0.3,1.8c0,0.3,0.1,0.5,0.1,0.8c0,0.1,0,0.1,0,0.2c0,0,0,0.1,0,0.1c0.2,1.9,0.4,3.9,0.4,5.8
	C101.1,98.6,101.1,99.4,101,100.2z M115.2,90.1c0,0.3-0.1,0.7-0.1,1c0,0.1,0,0.2,0,0.4c0,0.1,0,0.3-0.1,0.4
	c-0.1,0.8-0.3,1.6-0.5,2.4c-0.4,1.8-1,3.5-1.7,5.2c-0.1,0.2-0.2,0.5-0.3,0.7c-0.1,0.1-0.3,0.8-0.1,0.3c-0.2,0.4-0.3,0.8-0.5,1.2
	c-0.1,0.2-0.2,0.3-0.3,0.5c0,0-0.1,0.1-0.1,0.2c0,0,0,0,0,0c-0.1,0.1-0.2,0.3-0.3,0.3c0,0,0-0.1,0.1-0.1c-0.1,0.1-0.1,0.2-0.2,0.3
	c-0.2,0.2-0.3,0.4-0.5,0.6c-0.4,0.4-0.8,0.8-1.3,1.2c-0.2,0.2-0.5,0.4-0.7,0.6c-0.1,0.1-0.1,0.1-0.2,0.2c-0.1,0-0.1,0.1-0.2,0.1
	c-0.6,0.4-1.2,0.8-1.8,1.2c-0.8,0.5-1.7,1-2.6,1.5c1.1-2.6,1.6-5.2,1.9-8c0.5-4.2-0.1-8.6-0.9-12.7c-1-5.2-2.7-10.4-5.4-14.9
	c-2.1-3.5-4.9-6.8-8.5-8.7c1.3-0.1,2.6-0.2,4-0.1c0.3,0,0.6,0.1,1,0.1c0,0,0,0-0.1,0c0.1,0,0.1,0,0.2,0c0,0,0,0,0.1,0
	c0,0,0.1,0,0.1,0c0.2,0,0.3,0.1,0.5,0.1c0.7,0.1,1.4,0.3,2,0.6c0.2,0.1,0.3,0.1,0.5,0.2c0,0-0.1,0-0.1,0c0,0,0.1,0,0.1,0
	c0.3,0.2,0.7,0.3,1,0.5c0.7,0.4,1.4,0.7,2.1,1.1c1.5,0.8,2.9,1.8,4.2,2.8c0,0,0.1,0.1,0.1,0.1c0,0,0,0,0,0c0.2,0.1,0.3,0.3,0.5,0.4
	c0.3,0.3,0.7,0.6,1,0.9c0.6,0.6,1.2,1.1,1.8,1.8c0.3,0.3,0.5,0.6,0.8,0.9c0,0,0.1,0.1,0.1,0.1c0.1,0.2,0.2,0.3,0.3,0.5
	c0.4,0.6,0.8,1.3,1.1,1.9c0,0,0,0.1,0,0.1c0.1,0.1,0.1,0.3,0.2,0.4c0.1,0.3,0.3,0.6,0.4,1c0.2,0.6,0.5,1.2,0.7,1.9
	c0.4,1.2,0.8,2.5,1.1,3.7c0.2,0.6,0.3,1.3,0.4,1.9c0,0.2,0.1,0.3,0.1,0.5c0,0.1,0,0.2,0,0.2c0,0,0,0,0,0.1c0,0.2,0,0.4,0.1,0.7
	C115.4,87.4,115.4,88.8,115.2,90.1z M149.2,74.8c0,0.2,0,0.4,0,0.6c0,0,0,0,0,0c-0.1,0.4-0.1,0.8-0.2,1.1c-0.1,0.3-0.2,0.7-0.3,1
	c-0.1,0.2-0.1,0.4-0.2,0.5c0,0,0,0.1,0,0.1c0,0,0,0,0,0c0,0,0,0,0,0c0,0,0,0.1,0,0.1c-0.1,0.3-0.1,0.1,0,0c-0.2,0.3-0.3,0.6-0.4,0.9
	c-0.2,0.3-0.4,0.7-0.6,1c-0.1,0.1-0.2,0.3-0.3,0.4c-0.1,0.2-0.5,0.6-0.1,0.1c-0.3,0.3-0.5,0.6-0.7,0.9c-0.2,0.2-0.5,0.5-0.7,0.7
	c-0.1,0.1-0.3,0.3-0.4,0.4c-0.1,0.1-0.1,0.1-0.2,0.2c-0.6,0.4-1.2,0.8-1.8,1.1c-0.1,0.1-0.3,0.1-0.4,0.2c0,0,0,0-0.1,0
	c-0.3,0.1-0.6,0.2-0.9,0.3c-0.7,0.2-1.3,0.4-2,0.6c-0.7,0.2-1.4,0.3-2.1,0.4c0,0,0,0,0,0c-0.2,0-0.4,0-0.6,0.1
	c-0.4,0-0.8,0.1-1.1,0.1c-5.2,0.5-10.8,0.2-15.8,2c0-1.4-0.1-2.7-0.4-4.1c-0.4-2.7-1.3-5.3-2.3-7.8c-0.6-1.6-1.2-3.1-2.2-4.5
	c0,0,0,0,0,0c1.9-0.4,3.7-1,5.5-1.8c2.4-1.1,4.6-2.6,6.9-4c0.7-0.4,1.5-0.8,2.2-1.2c0.2-0.1,0.4-0.2,0.6-0.3c0,0,0.1,0,0.1-0.1
	c0,0,0,0,0,0c0.4-0.2,0.9-0.3,1.3-0.5c0.9-0.3,1.7-0.5,2.6-0.7c0.2,0,0.4-0.1,0.6-0.1c0.1,0,0.2,0,0.2,0c0.5,0,0.9-0.1,1.4-0.1
	c0.4,0,0.9,0,1.3,0c0.2,0,0.4,0,0.6,0c0,0,0.1,0,0.1,0c0.1,0,0.1,0,0.2,0c0.8,0.1,1.6,0.3,2.3,0.6c0.2,0.1,0.3,0.1,0.5,0.2
	c0,0,0.1,0,0.1,0.1c0.3,0.2,0.7,0.3,1,0.5c0.6,0.4,1.2,0.8,1.8,1.2c0,0,0.1,0,0.1,0.1c0.1,0.1,0.3,0.2,0.4,0.3
	c0.3,0.3,0.6,0.5,0.8,0.8c0.3,0.3,0.5,0.5,0.7,0.8c0.1,0.1,0.2,0.3,0.3,0.4c-0.5-0.5,0,0,0.1,0.1c0.4,0.6,0.8,1.2,1.1,1.9
	c0.1,0.2,0.2,0.3,0.2,0.5c0,0,0,0,0,0c0.1,0.3,0.3,0.7,0.4,1.1c0.1,0.3,0.2,0.7,0.3,1c0,0.2,0.1,0.3,0.1,0.5c0,0.1,0,0.1,0,0.2
	C149.2,73.4,149.2,74.1,149.2,74.8z"/>
<g>
	<path class="st2" d="M29.9,83.3c10.3,0.9,20.7,0.8,31-0.4c3.1-0.3,6.1-0.8,9.1-1.3c1.2-0.2,2-1.8,1.7-3c-0.4-1.3-1.6-1.9-3-1.7
		c-1.3,0.2-2.6,0.4-3.9,0.6c-0.3,0-0.6,0.1-1,0.1c-0.1,0-0.5,0.1,0.1,0c-0.1,0-0.3,0-0.4,0.1c-0.7,0.1-1.4,0.2-2,0.3
		c-2.6,0.3-5.1,0.5-7.7,0.7C48.8,79,43.7,79.1,38.5,79c-2.9-0.1-5.8-0.3-8.7-0.5c-1.3-0.1-2.5,1.2-2.4,2.4
		C27.5,82.3,28.5,83.1,29.9,83.3L29.9,83.3z"/>
</g>
<g>
	<path class="st2" d="M33.3,120.1c0.1,0,0.2,0,0.2,0.1c0,0,0,0,0,0c0,0,0,0,0,0C33.3,120.1,33.2,120.1,33.3,120.1z"/>
	<path class="st2" d="M35,120.1C34.5,120.1,34.8,120.2,35,120.1L35,120.1z"/>
	<path class="st2" d="M39.9,116.3C39.9,116.3,39.9,116.3,39.9,116.3c0-0.1,0-0.2,0.1-0.3C40,116.1,39.9,116.1,39.9,116.3z"/>
	<path class="st2" d="M39,117.7C39.1,117.7,39.1,117.7,39,117.7c0.1-0.1,0.1-0.1,0.1-0.2C39.2,117.4,39.2,117.4,39,117.7z"/>
	<path class="st2" d="M30.4,109.9C30.4,109.9,30.4,109.9,30.4,109.9c0,0,0.1-0.1,0.1-0.1C30.5,109.8,30.4,109.8,30.4,109.9z"/>
	<path class="st2" d="M40,111.4C40,111.4,40,111.4,40,111.4c0-0.1-0.1-0.1-0.1-0.1C40,111.3,40,111.3,40,111.4
		C40,111.4,40,111.4,40,111.4z"/>
	<path class="st2" d="M40.3,112.6C40.4,113.2,40.4,112.9,40.3,112.6L40.3,112.6z"/>
	<path class="st2" d="M28.4,113.5C28.5,113.1,28.4,113.3,28.4,113.5L28.4,113.5z"/>
	<path class="st2" d="M38.8,109.7C38.7,109.7,38.7,109.7,38.8,109.7C38.8,109.7,38.8,109.7,38.8,109.7
		C38.8,109.7,38.8,109.7,38.8,109.7z"/>
	<path class="st2" d="M39.5,110.4C39.5,110.4,39.4,110.4,39.5,110.4c-0.1-0.1-0.1-0.1-0.1-0.1C39.4,110.4,39.5,110.5,39.5,110.4
		C39.5,110.5,39.5,110.5,39.5,110.4z"/>
	<path class="st2" d="M28.9,111.8c0,0.1-0.1,0.2-0.1,0.3c0,0,0,0,0,0C28.9,111.8,28.9,111.8,28.9,111.8z"/>
	<path class="st2" d="M57.1,115.2c-3-1-6-2-9-3c1.9-3.4,3.7-6.9,5.6-10.3c0.6-1.1,0.3-2.7-0.9-3.3c-1.1-0.6-2.6-0.3-3.3,0.9
		c-1.4,2.5-2.7,5.1-4.1,7.6c-0.2-0.7-0.4-1.3-0.5-2c-0.5-1.8-1-3.7-1.5-5.5c-0.3-1.2-1.7-2.1-3-1.7c-1.2,0.4-2,1.7-1.7,3
		c0.4,1.3,0.7,2.6,1.1,3.9c-2.5-1.2-5.5-1.4-8.1-0.8c-3.5,0.9-6.3,3.3-7.6,6.7c-1.9,5,0.8,11,5.6,13.3c1.4,0.6,2.9,1,4.4,1
		c1.6,0,3-0.4,4.5-1c2.2-1,4-2.7,5.1-4.8c0.1,0.4,0.2,0.7,0.3,1.1c0.5,1.8,1,3.7,1.5,5.5c0.3,1.2,1.7,2.1,3,1.7c1.2-0.4,2-1.7,1.7-3
		c-0.6-2.4-1.3-4.7-1.9-7.1c2.5,0.8,5,1.7,7.6,2.5c1.2,0.4,2.7-0.5,3-1.7C59.1,116.8,58.4,115.6,57.1,115.2z M39.9,116.3
		C39.9,116.3,39.9,116.3,39.9,116.3c0,0.1,0,0.1,0,0.1C39.9,116.4,39.9,116.4,39.9,116.3c-0.1,0.2-0.1,0.2-0.2,0.3
		c-0.2,0.3-0.3,0.6-0.5,0.8c0,0-0.1,0.1-0.1,0.1c0,0,0,0.1-0.1,0.1c0,0,0,0,0,0c0,0,0,0.1-0.1,0.1c0,0,0,0,0,0
		c-0.2,0.2-0.3,0.4-0.5,0.5c-0.2,0.2-0.4,0.4-0.6,0.6c0,0,0,0,0,0c-0.1,0.1-0.2,0.2-0.3,0.2c-0.4,0.3-0.9,0.5-1.4,0.8
		c-0.1,0-0.2,0.1-0.3,0.1c-0.3,0.1-0.6,0.2-0.9,0.2c0,0,0,0,0,0c0,0,0.1,0,0.1,0c-0.1,0-0.2,0-0.3,0c-0.3,0-0.6,0-0.8,0
		c-0.1,0-0.3,0-0.4,0c0,0,0,0,0.1,0c0,0-0.1,0-0.1,0c-0.1,0-0.2,0-0.2-0.1c-0.2,0-0.3-0.1-0.5-0.1c-0.2-0.1-0.5-0.2-0.7-0.3
		c-0.1,0-0.2-0.1-0.2-0.1c-0.2-0.1-0.5-0.3-0.7-0.4c-0.1-0.1-0.2-0.1-0.3-0.2c0,0-0.1-0.1-0.1-0.1c-0.4-0.3-0.7-0.7-1.1-1.1
		c-0.1-0.1-0.1-0.2-0.2-0.3c-0.2-0.3-0.3-0.5-0.5-0.8c-0.1-0.1-0.1-0.2-0.2-0.4c-0.1-0.2-0.1-0.4-0.2-0.6c-0.1-0.3-0.1-0.5-0.2-0.8
		c0-0.1,0-0.3,0-0.4c0-0.3,0-0.5,0-0.8c0-0.1,0-0.2,0-0.3c0,0.1,0,0.1-0.1,0.2c0.1-0.4,0.1-0.7,0.2-1.1c0-0.2,0.1-0.3,0.2-0.5
		c0,0,0,0,0,0c0,0,0,0.1-0.1,0.1c0,0,0-0.1,0.1-0.1c0-0.1,0.1-0.3,0.1-0.3c0.1-0.2,0.2-0.3,0.3-0.5c0.1-0.1,0.2-0.3,0.3-0.4
		c0,0,0,0,0,0c0.2-0.2,0.4-0.5,0.6-0.7c0.1-0.1,0.2-0.2,0.3-0.3c0,0,0,0,0,0c0,0-0.1,0-0.1,0.1c0,0,0.1,0,0.1-0.1
		c0.2-0.1,0.5-0.3,0.1-0.1c0.2-0.1,0.4-0.3,0.6-0.4c0.3-0.2,0.5-0.3,0.8-0.4c0.2-0.1,0.3-0.1,0.5-0.2c0.3-0.1,0.6-0.2,0.9-0.2
		c0.2,0,0.3-0.1,0.5-0.1c0,0,0,0,0,0c0.6-0.1,1.2-0.1,1.8,0c0.1,0,0.2,0,0.3,0c0,0,0,0,0,0c0.3,0.1,0.6,0.1,0.9,0.2
		c0.2,0.1,0.5,0.2,0.7,0.2c0,0,0,0,0,0c0.2,0.1,0.3,0.2,0.4,0.2c0.1,0.1,0.3,0.2,0.4,0.3c0.1,0.1,0.3,0.2,0.3,0.3
		c0,0-0.1-0.1-0.3-0.3c0.1,0.1,0.2,0.2,0.3,0.3c0,0,0,0,0,0c0.1,0.1,0.3,0.2,0.4,0.4c0.1,0.1,0.1,0.2,0.2,0.2c0,0-0.1-0.1-0.1-0.1
		c0,0.1,0.1,0.1,0.1,0.2c0,0,0,0,0.1,0.1c0.1,0.1,0.2,0.3,0.1,0.1c0.2,0.2,0.3,0.5,0.4,0.7c-0.1-0.2,0-0.1,0,0.1c0,0,0,0,0,0
		c0,0.1,0.1,0.2,0.1,0.2c0-0.1-0.1-0.1-0.1-0.2c0.1,0.2,0.1,0.3,0.2,0.5c0.1,0.2,0.1,0.4,0.1,0.6c0,0,0,0.1,0,0.1c0,0,0-0.1,0-0.1
		c0,0.4,0.1,0.8,0.1,1.3c0,0.2,0,0.5,0,0.7c0,0.1,0,0.2,0,0.3c0,0.3-0.1,0.5-0.2,0.8c0,0.1-0.1,0.3-0.2,0.5
		C40,116.1,40,116.1,39.9,116.3z"/>
</g>
</svg>
