<?xml version="1.0" encoding="utf-8"?>
<!-- Generator: Adobe Illustrator 25.4.1, SVG Export Plug-In . SVG Version: 6.00 Build 0)  -->
<svg version="1.1" id="Calque_1" xmlns="http://www.w3.org/2000/svg" xmlns:xlink="http://www.w3.org/1999/xlink" x="0px" y="0px"
	 viewBox="0 0 155.7 155.7" style="enable-background:new 0 0 155.7 155.7;" xml:space="preserve">
<style type="text/css">
	.st0{fill:#F9D4AC;}
	.st1{fill:#C7C1C0;}
	.st2{fill:#193F79;}
</style>
<path class="st0" d="M82.8,79.6c-15.5-8.4-35.9-15.9-48.5-27.9c-2.6,13.3-3,27-4.3,40.4c-1.2,11.9,0.8,25.4,10.2,32.6
	c6.9,5.3,16.1,6.1,24.8,6.5c15.1,0.7,30.1,0.9,45.2,0.7c9.1-0.1,18.7-0.7,26-6.1c7.5-5.6,10.7-15.2,12.6-24.3
	c3.5-16.5,4-33.5,1.6-50.2c-15.1,9.1-30.2,18.2-45.2,27.3c-3.9,2.4-8.1,4.8-12.7,4.6C89.1,83,85.9,81.3,82.8,79.6z"/>
<path class="st1" d="M21.7,28c37.8,0.6,78.1-1.8,115.9-1.2L92.7,54.9c0,0-9,7.7-22.5,1C55,48.4,28.4,33.5,28.4,33.5L21.7,28z"/>
<path class="st2" d="M140.8,34.1c-0.2-2.3-0.5-4.7-0.8-7c0-0.3-0.2-0.6-0.4-0.8c-0.2-0.8-0.9-1.5-2-1.5c-7.5-0.1-14.9-0.1-22.4-0.1
	c-7.6,0.1-15.1,0.2-22.7,0.4c-7.6,0.2-15.2,0.3-22.8,0.5c-7.6,0.2-15.2,0.3-22.7,0.4C39.5,26,32,26,24.5,25.9c-0.9,0-1.9,0-2.8,0
	c-0.1,0-0.3,0-0.4,0c-0.2,0-0.4,0.1-0.6,0.2c-0.5,0.2-0.9,0.7-1,1.3c0,0,0,0,0,0c0,0.1,0,0.2-0.1,0.3c-1.7,9.2-2.5,18.5-3.2,27.8
	c-0.4,4.6-0.8,9.2-1.2,13.8c-0.3,3.5-0.3,7.1,0,10.6c0.7,7.2,2.9,14.3,7.8,19.8c5.4,6.1,13.4,8.4,21.2,9.3c4.2,0.5,8.4,0.6,12.5,0.8
	c4.8,0.2,9.5,0.3,14.3,0.4c9.4,0.2,18.8,0.3,28.2,0c7.9-0.2,16.3-0.8,23.3-5c6.8-4,10.8-10.9,13.3-18.2c1.2-3.7,2.1-7.5,2.8-11.3
	c0.9-4.7,1.6-9.4,2-14.1C141.7,52.5,141.7,43.2,140.8,34.1z M44.1,30.1c7.6-0.1,15.1-0.2,22.7-0.4c7.6-0.2,15.2-0.3,22.8-0.5
	c7.6-0.2,15.2-0.3,22.7-0.4c6-0.1,12-0.1,18,0c-3.1,2-6.3,3.9-9.4,5.9c-4.4,2.7-8.8,5.5-13.1,8.2c-3.7,2.3-7.5,4.7-11.2,7
	c-1.6,1-3.3,2-5,3.1c-0.3,0.2-0.7,0.4-1,0.6c-1,0.6-1.9,1.1-2.9,1.6c-0.1,0-0.2,0.1-0.3,0.1c-0.3,0.1-0.6,0.2-0.9,0.3
	c-0.7,0.2-1.4,0.4-2,0.5c-0.3,0.1-0.7,0.1-1.1,0.2c-0.1,0-0.1,0-0.2,0c-0.2,0-0.4,0-0.6,0.1c-0.9,0.1-1.7,0.1-2.6,0
	c-0.4,0-0.9-0.1-1.3-0.1c0,0-0.2,0-0.3,0c0,0-0.1,0-0.1,0c-0.3,0-0.5-0.1-0.8-0.1c-1-0.2-2.1-0.5-3.1-0.8c-0.5-0.2-1-0.4-1.5-0.6
	c-0.1,0-0.2-0.1-0.3-0.1c-0.1,0-0.1-0.1-0.2-0.1c-0.3-0.2-0.7-0.3-1-0.5c-0.1,0-0.2-0.1-0.3-0.1c-3-1.7-6.1-3.2-9.3-4.7
	c-6-3.1-11.9-6.3-17.9-9.6c-4.4-2.4-8.7-4.8-13-7.2c-0.4-0.2-0.9-0.5-1.3-0.7c-0.1,0-0.1-0.1-0.2-0.1c-0.6-0.5-1.3-1-1.9-1.6
	C33.1,30.2,38.6,30.2,44.1,30.1z M137.1,54.9c-0.4,8.8-1.5,17.1-3.6,25.6c-0.4,1.8-0.9,3.5-1.5,5.2c-0.3,0.9-0.6,1.7-0.9,2.5
	c-0.1,0.2-0.2,0.4-0.2,0.6c0,0,0,0.1,0,0.1c0,0.1-0.1,0.1-0.1,0.2c-0.2,0.4-0.4,0.8-0.6,1.3c-0.8,1.6-1.7,3.2-2.7,4.7
	c-0.2,0.3-0.5,0.7-0.7,1c0,0,0,0,0,0c-0.1,0.1-0.1,0.1-0.2,0.2c-0.2,0.2-0.3,0.4-0.5,0.6c-0.6,0.7-1.2,1.3-1.8,1.9
	c-0.3,0.3-0.6,0.6-0.9,0.9c-0.2,0.1-0.3,0.3-0.5,0.4c-0.1,0.1-0.1,0.1-0.2,0.2c0,0,0,0,0,0c0,0,0,0-0.1,0c-0.8,0.5-1.5,1.1-2.3,1.5
	c-0.8,0.5-1.6,0.9-2.5,1.3c0,0-0.1,0.1-0.2,0.1c0,0-0.1,0-0.1,0c-0.2,0.1-0.4,0.2-0.6,0.2c-0.5,0.2-0.9,0.3-1.4,0.5
	c-1.8,0.6-3.7,1-5.6,1.3c-0.4,0.1-0.9,0.1-1.3,0.2c-0.1,0-0.2,0-0.3,0c-0.3,0-0.6,0.1-0.9,0.1c-1,0.1-1.9,0.2-2.9,0.2
	c-4.1,0.3-8.3,0.3-12.4,0.3c-4.7,0-9.4,0-14.1,0c-9.2-0.1-18.4-0.3-27.6-0.8c-1.9-0.1-3.8-0.2-5.7-0.5c-0.4,0-0.9-0.1-1.3-0.2
	c-0.1,0-0.3,0-0.4-0.1c-0.3,0-0.5-0.1-0.8-0.1c-0.9-0.2-1.9-0.3-2.8-0.5c-1.8-0.4-3.6-1-5.4-1.6c0,0-0.1,0-0.2-0.1
	c0,0-0.1,0-0.1-0.1c-0.2-0.1-0.4-0.2-0.6-0.3c-0.4-0.2-0.9-0.4-1.3-0.7c-0.8-0.4-1.6-0.9-2.4-1.5c-0.2-0.1-0.4-0.3-0.6-0.4
	c0,0,0,0,0,0c-0.1-0.1-0.1-0.1-0.2-0.2c-0.4-0.3-0.7-0.6-1-0.9c-0.6-0.6-1.2-1.1-1.7-1.8c-0.3-0.3-0.5-0.6-0.8-0.9c0,0,0,0,0,0
	c0-0.1-0.1-0.1-0.1-0.2c-0.1-0.2-0.3-0.4-0.4-0.5c-0.5-0.7-0.9-1.4-1.3-2.1c-0.4-0.7-0.8-1.4-1.1-2.2c-0.1-0.2-0.2-0.4-0.2-0.5
	c0-0.1-0.1-0.2-0.1-0.2c-0.2-0.4-0.3-0.8-0.5-1.2c-0.6-1.6-1-3.2-1.4-4.9c-0.2-0.8-0.3-1.7-0.4-2.5c0-0.1,0-0.2,0-0.2
	c0-0.2-0.1-0.4-0.1-0.6c-0.1-0.5-0.1-0.9-0.1-1.4c-0.1-1.7-0.2-3.4-0.2-5.2c0-3.9,0.5-7.9,0.9-11.8c0.4-4.6,0.7-9.1,1.1-13.7
	c0.2-2.3,0.4-4.5,0.7-6.8c0.1-1.1,0.3-2.3,0.4-3.4c0.2-1.2,0.2-1.9,0.4-3.1c0.2-1,0.3-2.1,0.5-3.1c4.6,3.9,9.7,7.1,15,10
	c6.6,3.7,13.4,6.9,20.2,10.1c0.6,0.3,1.1,0.5,1.7,0.8c1.8,1,3.7,1.9,5.5,2.8c1.1,0.6,2.2,1.1,3.4,1.7c0.1,0.1,0.2,0.1,0.3,0.2
	c2.2,1.2,4.4,2.4,6.8,3.1c2.5,0.8,5,0.9,7.6,0.5c2.2-0.4,4.4-1.3,6.4-2.3c1.1-0.5,2.2-1.1,3.3-1.8c0.1-0.1,0.2-0.2,0.4-0.3
	c1-0.6,2.1-1.3,3.1-1.9c9-5.5,18.1-10.9,27.1-16.4c4.2-2.5,8.3-5,12.5-7.5c0,0,0,0.1,0,0.1c0.1,1.1,0.2,2.2,0.4,3.4
	c0.2,2.3,0.4,4.6,0.5,6.8C137.3,45.9,137.3,50.4,137.1,54.9z"/>
</svg>
