<?xml version="1.0" encoding="utf-8"?>
<!-- Generator: Adobe Illustrator 25.4.1, SVG Export Plug-In . SVG Version: 6.00 Build 0)  -->
<svg version="1.1" id="Calque_1" xmlns="http://www.w3.org/2000/svg" xmlns:xlink="http://www.w3.org/1999/xlink" x="0px" y="0px"
	 viewBox="0 0 155.7 155.7" style="enable-background:new 0 0 155.7 155.7;" xml:space="preserve">
<style type="text/css">
	.st0{fill:#C7C1C0;}
	.st1{fill:#193F79;}
	.st2{fill:#F9D4AC;}
</style>
<g>
	<path class="st0" d="M43.1,104.7c-0.6,1.3-1.5,2.5-2.7,3.3c-4.2,2.7-10.9-0.1-13.8-3.4c-1.7-1.8-2.5-4.3-2.9-6.7
		c-1-5.7,0.5-11.7,3.8-16.4s8.7-7.9,14.4-8.8c3-0.5,6.2-0.2,8.8,1.3c8.7,5-2,15.9-4.5,21.4C45,97.9,44.5,101.8,43.1,104.7z"/>
	<g>
		<path class="st1" d="M35.1,106.9c0.1,0,0.2,0,0.2,0c0,0,0,0,0,0C35.2,106.9,35.1,106.9,35.1,106.9z"/>
		<path class="st1" d="M55.1,75.3c-0.9-1.5-2.3-2.6-3.8-3.4c-4.1-2-8.9-1.8-13.2-0.5c-3.9,1.2-7.5,3.5-10.3,6.5
			c-6,6.4-8.3,16.5-4.7,24.7c1.6,3.7,5.1,6.2,8.9,7.6c3.7,1.3,8.3,1.2,11.1-1.8c0.7-0.8,1.3-1.7,1.8-2.7c1-2,1.5-4.1,2.1-6.2
			c0.3-0.9,0.5-1.9,0.9-2.8c0-0.1,0.1-0.2,0.1-0.2c0,0,0,0,0,0c0.1-0.1,0.1-0.2,0.2-0.4c0.1-0.3,0.3-0.5,0.4-0.8
			c1.4-2.4,3-4.7,4.5-7.1c1.6-2.6,3-5.5,3.2-8.6C56.2,78.1,55.8,76.6,55.1,75.3z M39.6,106.1C39.6,106.1,39.6,106.1,39.6,106.1
			C39.7,106,39.8,105.9,39.6,106.1z M39.5,106.2C39.5,106.2,39.5,106.1,39.5,106.2C39.5,106.1,39.5,106.2,39.5,106.2z M40.5,105.2
			C40.5,105.2,40.5,105.2,40.5,105.2C40.5,105.2,40.5,105.2,40.5,105.2z M52.1,80.1C52.1,80.1,52.1,80.1,52.1,80.1
			c0,0.1,0,0.1,0,0.2C52.1,80.3,52.1,80.2,52.1,80.1c-0.1,0.6-0.3,1.2-0.5,1.8c-0.1,0.3-0.2,0.6-0.3,0.8c0-0.1,0,0-0.1,0.1
			c0,0,0,0,0,0c0,0.1,0,0.1-0.1,0.2c0-0.1,0-0.1,0.1-0.1c-0.1,0.2-0.1,0.3-0.2,0.5c-0.3,0.7-0.6,1.3-1,1.9c-1.3,2.4-2.9,4.6-4.4,6.9
			c-0.7,1.2-1.4,2.4-1.8,3.7c-0.6,1.8-1,3.6-1.6,5.4c-0.1,0.4-0.3,0.9-0.4,1.3c-0.1,0.2-0.1,0.5-0.2,0.6c0-0.1,0.1-0.2,0.1-0.2
			c0,0.1-0.1,0.2-0.1,0.2c-0.1,0.1-0.1,0.2-0.2,0.4c-0.2,0.4-0.4,0.8-0.7,1.2c-0.1,0.1-0.1,0.2-0.2,0.3c0,0,0,0.1-0.1,0.1
			c-0.1,0.1-0.4,0.4-0.4,0.4c0,0-0.3,0.3-0.5,0.4c-0.1,0.1-0.2,0.1-0.3,0.2c-0.2,0.1-0.3,0.2-0.5,0.3c-0.1,0-0.1,0.1-0.2,0.1
			c0,0,0,0,0,0c-0.3,0.1-0.7,0.2-1.1,0.3c-0.1,0-0.1,0-0.2,0c-0.2,0-0.4,0-0.6,0c-0.4,0-0.8,0-1.1,0c-0.1,0-0.1,0-0.2,0
			c0,0,0,0,0.1,0c0,0-0.1,0-0.1,0c0,0-0.1,0-0.1,0c-0.1,0-0.1,0-0.1,0c-0.1,0-0.2,0-0.4-0.1c-0.8-0.2-1.6-0.4-2.4-0.7c0,0,0,0,0,0
			c-0.1,0-0.1-0.1-0.2-0.1c-0.2-0.1-0.4-0.2-0.6-0.3c-0.4-0.2-0.8-0.4-1.1-0.6c-0.3-0.2-0.7-0.4-1-0.7c0,0-0.1-0.1-0.1-0.1
			c-0.2-0.1-0.3-0.3-0.5-0.4c-0.3-0.2-0.5-0.5-0.7-0.7c-0.1-0.1-0.3-0.3-0.4-0.5c0,0,0,0,0,0c-0.1-0.1-0.2-0.2-0.2-0.4
			c-0.3-0.4-0.5-0.8-0.7-1.2c-0.1-0.2-0.2-0.4-0.3-0.6c0,0,0,0,0,0c0-0.1-0.1-0.3-0.1-0.4c-0.3-0.9-0.6-1.9-0.7-2.8
			c0-0.2-0.1-0.5-0.1-0.7c0,0.1,0,0.2,0,0.3c0-0.1,0-0.2,0-0.3c0-0.1,0-0.2,0-0.3c0-0.5-0.1-1-0.1-1.5c0-1,0-2,0.1-3
			c0-0.1,0-0.2,0-0.3c0,0,0,0,0,0c0,0,0,0,0,0c0-0.2,0.1-0.5,0.1-0.7c0.1-0.5,0.2-1,0.3-1.5c0.2-0.9,0.5-1.9,0.9-2.8
			c0-0.1,0.1-0.2,0.1-0.3c0,0,0,0,0,0c0.1-0.2,0.2-0.4,0.3-0.6c0.2-0.5,0.5-0.9,0.7-1.3c0.2-0.4,0.5-0.8,0.8-1.2
			c0.1-0.2,0.3-0.4,0.4-0.6c0.1-0.1,0.1-0.2,0.2-0.3c0,0,0.4-0.5,0.2-0.2c-0.2,0.3,0.1-0.1,0.1-0.1c0.1-0.1,0.1-0.2,0.2-0.3
			c0.2-0.2,0.3-0.4,0.5-0.5c0.3-0.4,0.6-0.7,1-1c0.3-0.3,0.6-0.6,1-0.9c0.2-0.1,0.3-0.3,0.5-0.4c0.1-0.1,0.2-0.1,0.3-0.2
			c0,0,0,0,0.1-0.1c1.4-1.1,2.9-1.9,4.5-2.6c0.1,0,0.4-0.2,0.4-0.2c0.2-0.1,0.4-0.2,0.7-0.2c0.5-0.2,0.9-0.3,1.4-0.4
			c0.4-0.1,0.9-0.2,1.3-0.3c0.2,0,0.4-0.1,0.6-0.1c0.1,0,0.2,0,0.3,0c0.1,0,0.7-0.2,0.1,0c0.4-0.1,1-0.1,1.4-0.1c0.5,0,1,0,1.6,0
			c0.2,0,0.5,0,0.7,0c0.1,0,0.2,0,0.3,0c0.5,0.1,1,0.2,1.5,0.3c0.2,0.1,0.4,0.1,0.7,0.2c0.1,0,0.3,0.1,0.4,0.1c0,0,0.1,0,0.1,0
			c0.4,0.1,0.8,0.4,1.1,0.6c0.1,0.1,0.3,0.2,0.4,0.3c0,0,0.1,0,0.1,0.1c0,0,0,0,0,0c0.1,0,0.1,0.1,0.2,0.1c0,0-0.1-0.1-0.1-0.1
			c0.2,0.2,0.5,0.4,0.7,0.7c0,0,0.1,0.1,0.1,0.1c0.1,0.1,0.1,0.2,0.2,0.3c0.1,0.1,0.1,0.2,0.2,0.4c0,0,0,0.1,0.1,0.1
			c0.1,0.2,0.2,0.4,0.2,0.7c0,0.1,0,0.2,0.1,0.3c0,0,0,0.1,0,0.1c0,0.3,0,0.5,0,0.8C52.1,79.7,52.1,79.9,52.1,80.1
			C52.1,79.9,52.1,79.9,52.1,80.1z M52.1,78.5c0,0,0,0.1,0,0.1C52.1,78.5,52.1,78.5,52.1,78.5z"/>
		<path class="st1" d="M50.5,76.2C50.5,76.1,50.5,76.1,50.5,76.2c-0.1-0.1-0.1-0.1-0.1-0.1C50.4,76.1,50.5,76.1,50.5,76.2
			C50.6,76.2,50.6,76.2,50.5,76.2z"/>
		<path class="st1" d="M51.3,82.9C51.3,82.8,51.3,82.8,51.3,82.9c0-0.1,0.1-0.1,0.1-0.1C51.3,82.7,51.3,82.8,51.3,82.9
			C51.2,82.9,51.3,82.9,51.3,82.9z"/>
		<path class="st1" d="M52.1,80.1C52.1,80.1,52.1,80.1,52.1,80.1c0-0.1,0-0.1,0-0.1C52.1,80,52.1,80.1,52.1,80.1
			C52.1,80.1,52.1,80.1,52.1,80.1z"/>
	</g>
</g>
<g>
	<path class="st2" d="M89,51.2C89,51.2,89,51.2,89,51.2C89.1,51.2,89,51.2,89,51.2C89,51.2,89,51.2,89,51.2z"/>
	<path class="st2" d="M95.5,50.9c-0.1,0.3-0.2,0.5-0.4,0.8c-0.1,0.2-0.1,0.3-0.2,0.5c0,0,0,0.1,0,0.1c-2.7,6.7-4.5,13.7-5.8,20.8
		c-0.1,0.6-0.6,1-1.1,1.3c14.2-3.1,25.5-14.9,18.9-30.2c-3.5-8.3-13-14.4-21.8-15.4c-16.9-2-33.7,10.6-29.9,29.5
		c1.3,6.4,6.1,11.7,12,14.4c5.9,2.7,12.7,3.1,19.1,2c0.3,0,0.6-0.1,0.9-0.2c-0.2,0-0.3,0-0.5,0c-1.1-0.3-1.6-1.4-1.4-2.5
		c0.4-2.3,0.9-4.7,1.5-7c0.7-3,1.6-6,2.5-8.9c-0.7,0.5-1.3,1.1-1.9,1.7c-0.9,0.8-2.5,0.8-3.1-0.4c-0.9-1.8-1.9-3.6-2.9-5.4
		c-0.1,0.6-0.2,1.2-0.4,1.8c-0.5,2.2-1.1,4.4-2,6.5c-0.4,0.8-1.5,1.1-2.3,0.9c-1.2-0.3-2.2-0.9-3.2-1.7c-0.2-0.2-0.5-0.4-0.7-0.6
		c1.1,4.5,2.5,9,4.1,13.4c0.4,1.1-0.4,2.1-1.4,2.5c-1.1,0.4-2.1-0.4-2.5-1.4c-0.6-1.6-1.1-3.2-1.6-4.8c-1.8-5.7-3.2-11.5-4.2-17.4
		c-0.2-0.9,0.1-1.7,0.9-2.3c0.7-0.5,1.8-0.3,2.4,0.3c1.3,1.4,2.2,3.2,3.4,4.8c0.1,0.1,0.1,0.2,0.2,0.3c0,0,0,0.1,0.1,0.1
		c0.2,0.3,0.1,0.1,0,0c0,0,0,0-0.1-0.1c0.2,0.2,0.4,0.4,0.5,0.7c0.4,0.4,0.7,0.8,1.2,1.2c0.1,0.1,0.2,0.2,0.3,0.3c0,0,0,0,0,0
		c0.1-0.3,0.2-0.7,0.3-1c0.9-3.1,1.5-6.4,2-9.6c0.1-0.8,1-1.3,1.7-1.4c0.8-0.1,1.6,0.3,2,1c1.6,2.5,3.1,5.1,4.5,7.8
		c0.2-0.2,0.5-0.4,0.7-0.6c0.5-0.4,1-0.8,1.5-1.2c0.1-0.1,0.2-0.1,0.3-0.2c0.4-0.3,0.1-0.1,0,0c0.2-0.1,0.3-0.2,0.5-0.4
		c0.7-0.5,1.3-1.1,1.9-1.6c0.3-0.3,0.6-0.6,0.8-0.9c0.1-0.1,0.1-0.1,0.2-0.2c0.1-0.2,0.2-0.3,0.3-0.5c0.6-0.9,1.7-1.2,2.7-0.7
		c0.9,0.5,1.3,1.9,0.7,2.7C96,50,95.8,50.4,95.5,50.9z"/>
	<polygon class="st2" points="89.1,51.1 89.1,51.1 89.1,51.1 	"/>
	<path class="st2" d="M77.1,57C77.2,57,77.2,57.1,77.1,57c0.1,0,0.1,0,0.1,0.1C77.1,57,77.1,57,77.1,57z"/>
	<path class="st2" d="M76.1,56.4C76.1,56.4,76.1,56.4,76.1,56.4C76.1,56.4,76.1,56.4,76.1,56.4C76.1,56.4,76.1,56.4,76.1,56.4z"/>
	<path class="st2" d="M76.1,56.4C76.3,56.5,76.5,56.7,76.1,56.4L76.1,56.4z"/>
</g>
<path class="st2" d="M65.7,89c6.6,3.3,11.9,4.8,20.9,4.8c9.3,0,18.5-1.4,27.9-1.2c3.5,0.1,8,1,7.7,3.1c-0.3,1.9-4.3,2.5-7.5,2.7
	c-3.1,0.2-6.1,0.3-9.2,0.5c-1.3,0.1-2.9,0.2-3.6,0.9c-0.8,0.7-0.3,1.6,0.5,2.3c1.8,1.6,4.9,2.5,7.9,3.3c7.3,2,14.8,5,22.3,7.2
	c2.2,0.7,4.6,1.3,6.3,2.4c1.7,1.1,2.7,2.7,1.7,4c-1.7,2.1-7,1.6-10.8,0.7c-7.3-1.8-13.8-4.5-20.5-6.8c-1.8-0.6-3.6-1.2-5.6-1.2
	c-2,0-4.2,0.9-4.1,2.1c0.1,0.5,0.5,1,1.1,1.4c3.2,2.6,7.9,4.4,12.3,6.3c5.3,2.2,10.3,4.6,15.1,7.2c2.1,1.1,4.3,2.4,5.4,3.9
	c1.1,1.6,0.9,3.6-1.3,4.7c-1.8,1-4.5,1.1-6.8,0.7c-2.3-0.4-4.3-1.3-6.1-2.2c-6.2-3-11.9-6.4-17-10c-1.1-0.8-9.7-7.5-12.5-5.3
	c-3.3,2.5-1.9,3.6,1.3,6.5c2,1.9,4.3,3.3,6.6,4.6c4.6,2.7,9.6,5,13,9.1c1.3,1.6,2.4,3.9,1.7,5.9c-0.6,1.6-2.3,2.6-4,2.8
	s-3.4-0.3-4.9-1c-5.4-2.3-9.6-6.7-13.9-10.7c-3.4-3.2-6.9-6.4-10.6-9.2c-3-2.3-11.6-9.8-12.9-2c-0.4,2.1,0.4,4.3,1.1,6.3
	c0.7,2,1.4,4.2,0.9,6.3c-0.8,3.4-4.9,5.4-8.3,4.7c-3.5-0.7-6.1-3.7-7.5-6.9s-1.5-6.9-1.5-10.4c0.1-5.7,4.4-14.1,0.9-19.2
	c-2.8-4-9.6-6.2-16.1-8.1c-1.4-0.4-2.9-0.8-3.8-1.6c-5.3-4.8,4.7-17.4,10.5-18.2C47.5,78.8,63.5,87.9,65.7,89z"/>
<path class="st0" d="M92.1,74c-0.3-0.4-0.6-0.8-0.9-0.9c-1.2-0.6-2.6-0.6-4-0.7c-4.6-0.1-9.2-0.3-13.8-0.4
	c-6.9-0.2-4.5,8.8-4.5,13.7c0,4,0,8,0,12l9.5,14.5h6.6c0,0,8.6-15.2,8.6-15.2C95.2,94.1,94.8,78.3,92.1,74z"/>
<g>
	<path class="st2" d="M111.7,69.2c1.1,0.7,2.3,1.3,3.5,1.9c2.1,1.1,4.3,2.2,6.4,3.3c4.7,2.4,9.5,4.8,14.2,7.3
		c1.4,0.7,2.8,1.4,4.1,2.2c0.9,0.6,2.2,0.2,2.7-0.7c0.5-1,0.2-2.1-0.7-2.7c-1.1-0.7-2.3-1.3-3.5-1.9c-2.1-1.1-4.3-2.2-6.4-3.3
		c-4.7-2.4-9.5-4.8-14.2-7.3c-1.4-0.7-2.8-1.4-4.1-2.2c-0.9-0.6-2.2-0.2-2.7,0.7C110.5,67.4,110.8,68.6,111.7,69.2L111.7,69.2z"/>
</g>
<g>
	<path class="st2" d="M116,54.9c5.5-0.1,11-0.3,16.5-0.4c1,0,2-0.9,2-2c0-1.1-0.9-2-2-2c-5.5,0.1-11,0.3-16.5,0.4c-1,0-2,0.9-2,2
		C114.1,54,114.9,54.9,116,54.9L116,54.9z"/>
</g>
<g>
	<path class="st2" d="M115.1,41.8c3.3-2.3,6.6-4.6,9.9-7c4.1-2.9,8.1-5.7,12.2-8.6c1.6-1.1,3.2-2.2,4.8-3.4c0.9-0.6,1.3-1.8,0.7-2.7
		c-0.5-0.8-1.8-1.4-2.7-0.7c-3.3,2.3-6.6,4.6-9.9,7c-4.1,2.9-8.1,5.7-12.2,8.6c-1.6,1.1-3.2,2.2-4.8,3.4c-0.9,0.6-1.3,1.8-0.7,2.7
		C112.9,41.9,114.2,42.4,115.1,41.8L115.1,41.8z"/>
</g>
<g>
	<path class="st2" d="M105.9,27.9c1.5-3.3,2.9-6.7,4.4-10c0.3-0.7,0.6-1.4,0.9-2.1c0.2-0.5,0.4-1,0.2-1.5c-0.1-0.5-0.5-1-0.9-1.2
		c-0.9-0.5-2.3-0.3-2.7,0.7c-1.5,3.3-2.9,6.7-4.4,10c-0.3,0.7-0.6,1.4-0.9,2.1c-0.2,0.5-0.4,1-0.2,1.5c0.1,0.5,0.5,1,0.9,1.2
		C104,29.1,105.4,28.9,105.9,27.9L105.9,27.9z"/>
</g>
<g>
	<path class="st2" d="M87,20.9c0-3.4,0-6.7,0-10.1c0-1-0.9-2-2-2c-1.1,0-2,0.9-2,2c0,3.4,0,6.7,0,10.1c0,1,0.9,2,2,2
		C86.1,22.8,87,22,87,20.9L87,20.9z"/>
</g>
<g>
	<path class="st2" d="M62,24.1c-2.9-2.9-5.9-5.9-8.8-8.8c-0.7-0.7-1.4-1.4-2-2c-0.7-0.7-2.1-0.8-2.8,0c-0.7,0.8-0.8,2,0,2.8
		c2.9,2.9,5.9,5.9,8.8,8.8c0.7,0.7,1.4,1.4,2,2c0.7,0.7,2.1,0.8,2.8,0C62.7,26.2,62.8,24.9,62,24.1L62,24.1z"/>
</g>
<g>
	<path class="st2" d="M47.9,37.9c-7-2-14.1-3.7-21.2-5.2c-2-0.4-4-0.8-6.1-1.2c-1-0.2-2.2,0.3-2.5,1.4c-0.2,1,0.3,2.3,1.4,2.5
		c7.2,1.3,14.3,2.9,21.3,4.8c2,0.5,4,1.1,6,1.6c1,0.3,2.2-0.3,2.5-1.4C49.5,39.3,49,38.2,47.9,37.9L47.9,37.9z"/>
</g>
<g>
	<path class="st2" d="M47.8,54.7c-4.4,1.2-8.6,3-12.7,4.9c-0.3,0.1-0.6,0.3-0.9,0.4c-0.9,0.5-1.3,1.9-0.7,2.7c0.6,1,1.7,1.2,2.7,0.7
		c0.9-0.4,1.7-0.8,2.6-1.2c0.4-0.2,0.8-0.4,1.3-0.6c0.2-0.1,0.5-0.2,0.7-0.3c0.3-0.1-0.4,0.1,0,0c0.1-0.1,0.3-0.1,0.4-0.2
		c1.1-0.5,2.3-0.9,3.4-1.3c1.4-0.5,2.8-1,4.3-1.4c1-0.3,1.7-1.4,1.4-2.5C49.9,55,48.9,54.4,47.8,54.7L47.8,54.7z"/>
</g>
<g>
	<path class="st1" d="M109.7,47.7c-2.5-12.2-12-20.5-24.8-21.7c-13-1.2-25.3,5.5-29.7,16.3c-3.9,9.4-4.1,17.2-0.8,23.2
		c3.4,6,9.5,8.4,12.4,9.2v23.7l10.4,15.9h8.9l9.4-16.7V74.4c0.9-0.4,2.1-1.1,3.5-2c0.3-0.1,0.6-0.2,0.9-0.4c0.3-0.1,0.5-0.4,0.7-0.8
		C106,67.3,112.3,59.9,109.7,47.7z M57.9,63.5c-2.7-4.8-2.4-11.4,1-19.6c3.8-9.2,14.4-14.9,25.7-13.8c11.1,1,19.1,8,21.3,18.5
		c2.3,11-3.9,17.2-8.5,20.3c-0.2,0.1-0.4,0.1-0.6,0.2c-0.5,0.2-1,0.4-1.5,0.6c-1,0.4-2,0.7-3.1,1c-2,0.6-4.1,1.1-6.2,1.3
		c0.6-0.1-0.2,0-0.3,0c-0.3,0-0.5,0.1-0.8,0.1c-0.6,0.1-1.1,0.1-1.7,0.1c-1.1,0.1-2.1,0.1-3.2,0.1c-2.1,0-4.2-0.1-6.3-0.4
		c0,0-0.1,0-0.1,0c-0.2,0-0.3,0-0.5-0.1c-0.3,0-0.6-0.1-0.9-0.1c-0.6-0.1-1.2-0.2-1.7-0.3c-1.2-0.3-2.4-0.6-3.6-0.9
		c-0.2-0.1-0.4-0.1-0.6-0.1C63.8,69.4,60.1,67.4,57.9,63.5z M90.2,94.8C90.2,94.8,90.2,94.8,90.2,94.8c-0.8,0.1-1.5,0.2-2.3,0.3
		c-1.5,0.2-2.9,0.3-4.4,0.4c-3,0.2-5.9,0.2-8.9,0.2c-1.3,0-2.6-0.1-3.8-0.2v-2.6c2.3-0.6,4.7-0.8,7.1-1.2c3.3-0.5,6.5-1.2,9.6-2.4
		c1.4-0.5,2.7-1.1,4-1.8v7.1c-0.2,0-0.4,0.1-0.6,0.1c-0.2,0-0.4,0.1-0.6,0.1C90.3,94.7,90.3,94.8,90.2,94.8z M90.3,75.1
		c-0.2,0.1-0.5,0.3-0.6,0.6c-0.9,0.5-1.9,1-2.8,1.4c-0.1,0-0.1,0-0.2,0.1c0,0,0,0,0,0c-0.2,0.1-0.3,0.1-0.5,0.2
		c-0.4,0.2-0.8,0.3-1.2,0.4c-0.7,0.3-1.4,0.5-2.1,0.7c-2.8,0.9-5.8,1.4-8.7,2c-1.1,0.2-2.2,0.4-3.3,0.6v-5.7
		C77.3,76.6,83.9,76.5,90.3,75.1z M91.5,82.9c-0.8,0.5-1.7,1-2.5,1.4c-0.4,0.2-0.8,0.4-1.2,0.6c0,0-0.1,0-0.1,0c0,0,0,0-0.1,0
		c0,0,0,0-0.1,0c0,0,0,0,0,0c0,0,0,0,0,0c-0.2,0.1-0.4,0.2-0.7,0.3c-1.6,0.6-3.2,1.1-4.9,1.5c-2.9,0.7-5.9,1.1-8.8,1.6
		c-0.8,0.1-1.6,0.3-2.4,0.4v-3.5c5.8-1.1,11.6-1.9,17-4.2c1.3-0.5,2.5-1.1,3.7-1.7V82.9z M83.8,110.3h-4.4l-7.1-10.8
		c5.1,0.3,10.2,0.1,15.3-0.4c0.9-0.1,1.8-0.2,2.7-0.3L83.8,110.3z"/>
	<path class="st1" d="M87.6,84.9C87.6,84.9,87.6,84.9,87.6,84.9c0,0,0.1,0,0.1-0.1C87.8,84.8,87.7,84.8,87.6,84.9z"/>
</g>
</svg>
