<?xml version="1.0" encoding="utf-8"?>
<!-- Generator: Adobe Illustrator 25.4.1, SVG Export Plug-In . SVG Version: 6.00 Build 0)  -->
<svg version="1.1" id="Calque_1" xmlns="http://www.w3.org/2000/svg" xmlns:xlink="http://www.w3.org/1999/xlink" x="0px" y="0px"
	 viewBox="0 0 155.7 155.7" style="enable-background:new 0 0 155.7 155.7;" xml:space="preserve">
<style type="text/css">
	.st0{fill:#F9D4AC;}
	.st1{fill:#C7C1C0;}
	.st2{fill:#193F79;}
</style>
<path class="st0" d="M7.1,113.9c3.3,1.2,7,1.7,9.5,4c3.2,3,2.2,7.5-0.5,10.8c-1,1.2-2.1,2.4-2.1,3.8c0.2,3,5.5,3.8,9.4,3.4
	C39.2,134,52.2,125,67.9,123c9.6-1.3,19.5,0.2,29,2s18.9,4.2,28.6,4.6c9.8,0.5,20.2-1.1,27.3-6.2c0.8-0.6,1.6-1.2,1.8-2
	c0.3-1.3-1-2.5-2.4-3.3c-5.5-3.1-12.8-3.7-18.8-6.3c-0.9-0.4-1.9-0.9-2.3-1.7c-1-1.8,1.2-3.6,3.3-4.7c2.3-1.1,4.8-2,7.4-2.6
	c1.7-0.4,3.5-0.7,4.7-1.7c2-1.7,1.2-4.5-1-6.1C130.3,84,109.7,84.6,92,80.3c-1.3-0.3-2.7-0.7-3.5-1.7c-4.3-5,4.9-9,8.1-10.1
	c2.5-0.8,5.2-2.2,5.8-4.8c0.6-2.1-0.5-4.5-2.2-5.9c-1.7-1.4-3.9-2.1-6-2.7c-11.3-2.8-23.5-2-34.4,2.1c-5.3,2-10.8,4.7-15.2,8.4
	c-3.7,3.1-6.4,7.3-10.3,10.3c-6.7,5.1-15.4,6.8-23.5,9c-2.5,0.7-5.3,1.8-6.1,4.3c-1.2,4.1,4.1,9.1,1,12c-0.8,0.7-1.9,1-2.7,1.6
	c-2.1,1.4-2.4,4.7-1.2,6.9C3,112,4.9,113.1,7.1,113.9z"/>
<path class="st1" d="M106.5,69.6c3.2,4.7,9.6,5.9,15.3,5.3c2.7-0.3,6.8-0.7,8.6-2.7c0.8-0.9,1.8-2.8,2.2-3.9
	c2-5.5,0.7-11.7-3.8-15.4C112.5,39.5,97.4,56.3,106.5,69.6z"/>
<g>
	<path class="st2" d="M110.9,81.5C110.9,81.5,110.9,81.5,110.9,81.5C111,81.5,111,81.6,110.9,81.5c0,0.1,0.1,0.1,0.1,0.2
		c0,0,0,0,0,0C111,81.7,111,81.6,110.9,81.5z"/>
	<path class="st2" d="M111.2,51.3C111,51.3,110.8,51.4,111.2,51.3L111.2,51.3z"/>
	<path class="st2" d="M105.9,59.3C105.9,59.3,105.9,59.3,105.9,59.3C105.9,59.3,105.9,59.3,105.9,59.3
		C105.9,59.3,105.9,59.3,105.9,59.3z"/>
	<path class="st2" d="M135.3,62.9c0-0.2,0-0.4-0.1-0.6c-0.1-2.4-0.8-4.8-1.9-6.9c-2.7-5.1-7.9-8.4-13.6-9c-1.2-0.1-2.5-0.1-3.7,0
		c-1.2,0.1-2.5,0.2-3.7,0.4c-2.3,0.4-4.5,1.4-6.2,3c-2,1.9-3.3,4.7-3.9,7.4c-0.4,1.7-0.5,3.5-0.4,5.2c0,0.1,0,0.2,0,0.4
		c0,0.5,0.1,1,0.2,1.6c0.1,0.8,0.2,1.7,0.3,2.5c0.7,4.7,2.3,9.2,4,13.6c1.6,4.1,3.5,8.2,5.4,12.1c0.5,1.1,1.1,2.3,1.7,3.4
		c0.3,0.7,0.7,1.4,1.2,2c1,1.2,2.5,1.6,4,1.3c2-0.3,3.5-2,4.5-3.7c0.8-1.3,1.4-2.6,2.1-3.9c1.8-3.6,3.4-7.3,4.9-11.1
		c1.2-2.9,2.4-5.8,3.4-8.8c0.1-0.4,0.2-0.7,0.3-1.1c0.6-2.3,1.2-4.7,1.4-7C135.2,63.5,135.3,63.2,135.3,62.9z M123.4,51.3
		C123.4,51.3,123.5,51.3,123.4,51.3C123.4,51.3,123.2,51.2,123.4,51.3z M120,50.4C120,50.4,120.1,50.4,120,50.4
		C120.4,50.4,120.1,50.4,120,50.4z M105.8,61.1c0-0.4,0-0.7,0.1-1.1c0-0.2,0-0.3,0-0.5c0-0.1,0-0.1,0-0.2c0,0,0,0,0,0c0,0,0,0,0,0
		c0,0,0,0,0-0.1c0-0.2,0-0.1,0,0c0.1-0.3,0.1-0.7,0.2-1c0.1-0.3,0.2-0.7,0.3-1c0.1-0.3,0.2-0.7,0.3-1c0-0.1,0.1-0.2,0.1-0.3
		c0,0,0-0.1,0.1-0.1c0-0.1,0.1-0.2,0.1-0.3c0.3-0.5,0.5-1.1,0.9-1.6c0.1-0.1,0.2-0.2,0.3-0.4c0,0,0,0,0,0c0.2-0.2,0.3-0.4,0.5-0.6
		c0.2-0.2,0.4-0.4,0.5-0.5c0.1-0.1,0.2-0.2,0.3-0.2c0,0,0,0,0,0c0.4-0.3,0.8-0.5,1.2-0.7c0.2-0.1,0.4-0.2,0.6-0.3c0,0-0.1,0-0.1,0
		c0,0,0.1,0,0.1,0c0.1,0,0.2-0.1,0.4-0.1c0.5-0.2,1-0.3,1.4-0.4c0.2-0.1,0.5-0.1,0.7-0.1c0.1,0,0.3,0,0.4-0.1c0,0,0,0,0,0
		c0.5-0.1,1.1-0.1,1.6-0.1c1.2-0.1,2.3-0.1,3.5-0.1c0.3,0,0.5,0,0.8,0.1c0.1,0,0.2,0,0.2,0c0.2,0,0.3,0.1,0.5,0.1
		c0.6,0.1,1.2,0.3,1.8,0.5c0.3,0.1,0.5,0.2,0.8,0.3c0,0,0.1,0.1,0.2,0.1c0.1,0.1,0.2,0.1,0.4,0.2c0.6,0.3,1.1,0.6,1.6,0.9
		c0.2,0.2,0.5,0.3,0.7,0.5c0,0,0.1,0.1,0.2,0.2c0,0,0,0,0,0c0.1,0.1,0.2,0.1,0.2,0.2c0.5,0.4,0.9,0.8,1.3,1.3
		c0.2,0.2,0.4,0.4,0.6,0.6c0,0,0.1,0.1,0.1,0.1c0,0,0.1,0.1,0.1,0.1c0.1,0.1,0.1,0.2,0.2,0.2c0.4,0.5,0.7,1.1,1,1.7
		c0.1,0.3,0.3,0.5,0.4,0.8c0.1,0.1,0.1,0.3,0.2,0.4c0,0.1,0.1,0.1,0.1,0.2c0.2,0.5,0.4,1.1,0.5,1.6c0.1,0.2,0.1,0.5,0.2,0.7
		c0,0,0,0.2,0,0.2c0,0.1,0,0.2,0,0.2c0,0.5,0.1,1.1,0,1.6c0,0.3,0,0.5-0.1,0.8c0,0.1,0,0.2,0,0.3c-0.1,0.5-0.2,1.1-0.4,1.6
		c-0.1,0.5-0.3,0.9-0.5,1.4c0,0.1-0.1,0.2-0.1,0.3c-0.1,0.2-0.2,0.4-0.3,0.6c-0.2,0.4-0.4,0.7-0.7,1.1c0,0.1-0.1,0.1-0.1,0.2
		c-0.1,0.1-0.2,0.3-0.4,0.4c-0.3,0.3-0.5,0.5-0.8,0.8c-0.1,0.1-0.3,0.2-0.4,0.3c-0.1,0-0.1,0.1-0.2,0.1c-0.6,0.4-1.2,0.8-1.8,1.1
		c0,0-0.1,0-0.1,0.1c-0.1,0.1-0.3,0.1-0.4,0.2c-0.3,0.1-0.6,0.2-0.9,0.3c-0.6,0.2-1.2,0.3-1.8,0.4c-0.1,0-0.2,0-0.3,0
		c0,0-0.1,0-0.1,0c-0.3,0-0.5,0.1-0.8,0.1c-0.8,0.1-1.6,0.1-2.4,0.1c-0.9,0-1.8,0-2.7-0.1c0,0,0,0,0,0c-0.1,0-0.2,0-0.3,0
		c-0.3,0-0.6-0.1-0.8-0.2c-0.5-0.1-1-0.2-1.4-0.4c-0.2-0.1-0.4-0.1-0.7-0.2c-0.1,0-0.2-0.1-0.3-0.1c0,0,0,0,0,0
		c-0.4-0.2-0.8-0.3-1.1-0.6c-0.4-0.2-0.7-0.4-1.1-0.7c-0.1,0-0.1-0.1-0.2-0.1c0,0,0,0,0,0c0,0-0.1,0-0.1-0.1
		c-0.1-0.1-0.2-0.1-0.3-0.2c-0.5-0.5-1-1-1.5-1.5c0,0,0,0-0.1-0.1c0,0-0.1-0.1-0.1-0.1c0,0,0,0,0,0c0,0,0,0,0,0
		c-0.1-0.1-0.1-0.2-0.2-0.3c-0.2-0.3-0.4-0.5-0.5-0.8c-0.2-0.3-0.3-0.6-0.4-0.8c-0.1-0.1-0.1-0.2-0.2-0.4c0,0,0-0.1,0-0.1
		c-0.2-0.5-0.3-0.9-0.5-1.4c-0.1-0.4-0.2-0.8-0.3-1.2c0,0,0,0,0,0c0-0.1,0-0.2,0-0.3C105.8,62.5,105.8,61.8,105.8,61.1z M122.2,72.9
		C122.2,72.9,122.2,72.9,122.2,72.9C122.3,72.9,122.5,72.9,122.2,72.9z M122.1,72.9c0,0-0.1,0-0.1,0C122,72.9,122,72.9,122.1,72.9z
		 M110.1,70.6c-0.1-0.1-0.2-0.1-0.2-0.2C109.8,70.4,110,70.5,110.1,70.6z M117.8,95.7C117.8,95.7,117.8,95.7,117.8,95.7
		C117.9,95.7,117.9,95.7,117.8,95.7C117.9,95.7,117.9,95.7,117.8,95.7z M126.5,79.3c-0.2,0.4-0.4,0.9-0.5,1.3
		c-0.1,0.2-0.2,0.4-0.3,0.6c0,0,0,0,0,0.1c0,0.1-0.1,0.2-0.1,0.3c-0.8,1.8-1.5,3.5-2.3,5.3c-0.7,1.5-1.4,3.1-2.2,4.6
		c-0.5,1.1-1.1,2.1-1.8,3.1c0,0,0,0,0,0.1c-0.2,0.2-0.3,0.4-0.5,0.6c0,0-0.1,0-0.1,0.1c-0.1,0-0.1,0.1-0.2,0.1
		c-0.1,0.1-0.2,0.1-0.3,0.2c-0.1,0-0.2,0.1-0.2,0.1c0,0-0.1,0-0.1,0c0,0,0,0,0,0c0,0,0,0-0.1,0c-0.1-0.1-0.2-0.2-0.2-0.2
		c0,0,0,0,0-0.1c-0.1-0.1-0.2-0.3-0.2-0.4c-0.1-0.1-0.1-0.2-0.2-0.4c-0.1-0.2-0.1-0.3-0.2-0.5c-0.2-0.5-0.4-0.9-0.7-1.4
		c-1.6-3.3-3.2-6.6-4.7-10c-0.1-0.2-0.2-0.5-0.3-0.7c-0.1-0.1-0.1-0.2-0.2-0.4c0,0,0,0,0-0.1c0,0,0-0.1-0.1-0.1c0,0,0,0,0,0.1
		c-0.2-0.5-0.4-1.1-0.7-1.6c-0.4-1.1-0.9-2.2-1.3-3.3c-0.3-0.9-0.6-1.8-0.9-2.7c0.8,0.6,1.7,1.1,2.6,1.5c3.1,1.3,6.5,1.7,9.9,1.5
		c2.6-0.1,5.3-0.7,7.6-1.9c-0.2,0.6-0.5,1.2-0.7,1.8C127.2,77.7,126.8,78.5,126.5,79.3z"/>
	<path class="st2" d="M108,68.5C108,68.5,108,68.5,108,68.5c0.1,0.1,0.1,0.2,0.1,0.2c0,0,0,0,0,0C108.2,68.7,108.1,68.6,108,68.5z"
		/>
</g>
<path class="st1" d="M18.9,83c3.9,5.7,11.9,7.3,18.8,6.5c3.3-0.4,8.4-0.8,10.6-3.4c0.9-1.1,2.2-3.4,2.7-4.8c2.5-6.8,0.9-14.4-4.7-19
	C26.2,45.9,7.7,66.7,18.9,83z"/>
<g>
	<path class="st2" d="M28.1,116C28,115.8,27.7,115.3,28.1,116L28.1,116z"/>
	<path class="st2" d="M18.9,65.8c0,0,0,0.1,0,0.1C18.9,65.9,18.9,65.9,18.9,65.8C18.9,65.8,18.9,65.8,18.9,65.8z"/>
	<path class="st2" d="M32.3,115.4c0.1,0,0.1,0.1,0.2,0.1c0,0,0,0,0,0C32.4,115.5,32.3,115.4,32.3,115.4z"/>
	<path class="st2" d="M34.8,114.1C34.9,114,34.9,114,34.8,114.1L34.8,114.1z"/>
	<path class="st2" d="M32,115.1C32,115.1,32,115.1,32,115.1c0.1,0.1,0.1,0.1,0.2,0.2C32.2,115.2,32.1,115.2,32,115.1z"/>
	<path class="st2" d="M35.7,58.9C35.7,58.9,35.7,58.9,35.7,58.9c-0.1,0-0.2,0-0.3,0C35.4,58.9,35.5,58.9,35.7,58.9z"/>
	<path class="st2" d="M23.9,97.8C24,98,24.1,98.2,23.9,97.8L23.9,97.8z"/>
	<path class="st2" d="M22.8,84.5C22.9,84.6,23.2,84.7,22.8,84.5L22.8,84.5z"/>
	<path class="st2" d="M53.9,74.7c0-0.2,0-0.4-0.1-0.6c-0.1-2.9-0.9-5.7-2.3-8.3c-1.6-3.1-4-5.6-6.9-7.5c-2.9-1.9-6.2-3-9.6-3.3
		c-1.5-0.1-3-0.1-4.5,0c-1.5,0.1-3,0.2-4.5,0.5c-2.7,0.5-5.3,1.7-7.3,3.7c-2.5,2.4-4,5.7-4.6,9c-0.4,2-0.5,4.1-0.4,6.1
		c0,0.1,0,0.3,0,0.4c0,0.5,0.1,1,0.2,1.5c0.1,1.2,0.2,2.4,0.4,3.5c0.9,5.8,2.8,11.3,5,16.7c2,5,4.3,9.9,6.6,14.8
		c0.7,1.4,1.4,2.8,2,4.2c0.1,0.2,0.2,0.4,0.3,0.6c0,0,0,0,0,0.1c0,0,0,0,0-0.1c0,0,0,0.1,0,0.1c0.1,0.2,0.2,0.4,0.3,0.6
		c0.2,0.4,0.5,0.8,0.9,1.2c1.1,1.3,2.8,1.8,4.5,1.5c2.4-0.4,4-2.5,5.2-4.4c0.9-1.5,1.7-3.2,2.5-4.8c2.2-4.4,4.1-9,6-13.5
		c1.5-3.6,2.9-7.1,4.2-10.8c0.1-0.4,0.3-0.9,0.4-1.3c0.7-2.8,1.5-5.6,1.7-8.5C53.8,75.6,53.9,75.1,53.9,74.7z M48.9,69.2
		C48.9,69.2,48.9,69.2,48.9,69.2C49,69.4,48.9,69.3,48.9,69.2z M48.8,69.1C48.8,69.1,48.8,69.1,48.8,69.1
		C48.8,69.1,48.8,69.1,48.8,69.1z M46.5,65.2C46.5,65.2,46.5,65.2,46.5,65.2C46.5,65.1,46.4,64.9,46.5,65.2z M46.6,65.3
		C46.6,65.3,46.6,65.3,46.6,65.3C46.6,65.3,46.6,65.3,46.6,65.3z M43.6,62.3C43.6,62.3,43.6,62.3,43.6,62.3
		C43.6,62.3,43.4,62.1,43.6,62.3z M17.5,72.4c0-0.4,0-0.8,0.1-1.3c0-0.2,0-0.4,0.1-0.6c0-0.1,0-0.2,0-0.3c0,0,0,0,0,0c0,0,0,0,0,0
		c0.1-0.9,0.3-1.7,0.5-2.5c0.1-0.4,0.2-0.8,0.4-1.2c0-0.1,0.2-0.3,0.2-0.5c0,0.1-0.1,0.1,0-0.1c0,0,0,0,0-0.1c0,0,0,0,0,0
		c0,0,0,0,0,0c0-0.1,0.1-0.2,0.1-0.3c0.3-0.7,0.7-1.4,1.1-2c0.1-0.1,0.2-0.2,0.3-0.4c0,0,0.1-0.1,0.1-0.1c0.2-0.2,0.4-0.5,0.6-0.7
		c0.2-0.2,0.4-0.4,0.7-0.6c0.1-0.1,0.2-0.2,0.3-0.3c0,0,0.1,0,0.1-0.1c0,0,0,0,0,0c0.5-0.3,1-0.7,1.5-0.9c0.2-0.1,0.3-0.2,0.5-0.2
		c0,0,0.2-0.1,0.3-0.1c0.2-0.1,0.3-0.1,0.5-0.2c0.6-0.2,1.1-0.3,1.7-0.5c0.3-0.1,0.6-0.1,0.9-0.2c0.2,0,0.3-0.1,0.5-0.1c0,0,0,0,0,0
		c0,0,0,0,0.1,0c0.7-0.1,1.3-0.1,2-0.2c1.4-0.1,2.9-0.1,4.3-0.1c0.2,0,0.5,0.1,0.8,0.1c0,0,0.1,0,0.2,0c0,0,0,0,0.1,0c0,0,0,0,0,0
		c0,0,0,0,0,0c0.1,0,0.2,0,0.2,0c0.2,0,0.4,0.1,0.6,0.1c0.8,0.2,1.5,0.4,2.2,0.6c0.4,0.1,0.7,0.3,1,0.4c0.1,0,0.1,0.1,0.2,0.1
		c0.2,0.1,0.4,0.2,0.6,0.3c0.7,0.3,1.4,0.7,2,1.1c0.3,0.2,0.6,0.4,0.9,0.6c0,0,0.2,0.2,0.2,0.2c0.1,0.1,0.3,0.2,0.4,0.3
		c0.6,0.5,1.1,1,1.7,1.6c0.2,0.3,0.5,0.5,0.7,0.8c0,0.1,0.1,0.1,0.2,0.2c0.1,0.1,0.2,0.3,0.3,0.4c0.5,0.7,0.9,1.4,1.3,2.1
		c0.2,0.3,0.3,0.6,0.5,1c0.1,0.1,0.1,0.3,0.2,0.4c0,0.1,0.1,0.2,0.1,0.3c0.3,0.7,0.5,1.3,0.6,2c0.1,0.3,0.1,0.6,0.2,1
		c0,0.1,0,0.3,0.1,0.4c-0.1-0.7,0-0.1,0,0.1c0.1,0.7,0.1,1.4,0.1,2c0,0.3,0,0.6-0.1,1c0,0.2-0.1,0.4-0.1,0.5c-0.1,0.7-0.3,1.3-0.5,2
		c-0.2,0.6-0.4,1.1-0.6,1.7c0,0,0,0,0,0c-0.1,0.1-0.1,0.2-0.2,0.4c-0.1,0.3-0.2,0.5-0.4,0.7c-0.3,0.5-0.5,0.9-0.8,1.4
		c-0.1,0.1-0.1,0.2-0.2,0.3c-0.2,0.2-0.3,0.4-0.5,0.6c-0.3,0.3-0.6,0.7-1,1c-0.2,0.1-0.3,0.3-0.5,0.4c0,0,0,0,0,0
		C45.1,84.9,45,85,45,85c-0.7,0.5-1.5,0.9-2.3,1.3c-0.1,0-0.1,0.1-0.2,0.1c-0.2,0.1-0.3,0.1-0.5,0.2c-0.4,0.1-0.8,0.3-1.2,0.4
		c-0.7,0.2-1.5,0.4-2.2,0.5c-0.1,0-0.2,0-0.3,0c-0.1,0-0.2,0-0.3,0c-0.3,0-0.7,0.1-1,0.1c-1,0.1-2,0.1-2.9,0.1
		c-1.1,0-2.2-0.1-3.3-0.2c0,0-0.1,0-0.2,0c-0.1,0-0.3,0-0.4-0.1c-0.3-0.1-0.7-0.1-1-0.2c-0.6-0.1-1.2-0.3-1.8-0.5
		c-0.3-0.1-0.5-0.2-0.8-0.3c-0.1,0-0.2-0.1-0.3-0.1c0,0-0.1,0-0.1,0c-0.5-0.2-1-0.4-1.4-0.7c-0.5-0.3-0.9-0.5-1.3-0.8
		c-0.2-0.1-0.4-0.3-0.6-0.4c0,0,0.1,0,0.1,0.1c0,0,0,0,0,0c-0.1-0.1-0.2-0.2-0.3-0.3c-0.7-0.6-1.3-1.2-1.9-1.9
		c0-0.1-0.1-0.2-0.2-0.2c-0.1-0.2-0.2-0.3-0.3-0.5c-0.2-0.3-0.4-0.7-0.7-1c-0.2-0.3-0.4-0.7-0.5-1c-0.1-0.2-0.2-0.3-0.2-0.5
		c0,0,0-0.1-0.1-0.1c-0.2-0.6-0.4-1.2-0.6-1.8c-0.1-0.5-0.3-1-0.4-1.5c0,0,0,0,0-0.1c0-0.2,0-0.4,0-0.6
		C17.5,74.1,17.5,73.2,17.5,72.4z M38.3,87.6C38.4,87.5,38.4,87.5,38.3,87.6L38.3,87.6z M33.3,115.4c0.1,0,0.1-0.1,0.1-0.1
		C33.5,115.4,33.4,115.4,33.3,115.4z M43.9,95.2c-0.2,0.5-0.4,1.1-0.7,1.6c-0.1,0.3-0.2,0.5-0.3,0.8c0,0,0,0,0,0.1
		c-0.1,0.1-0.1,0.3-0.2,0.4c-0.9,2.2-1.9,4.4-2.9,6.5c-0.9,1.9-1.8,3.8-2.7,5.6c-0.7,1.3-1.4,2.6-2.2,3.8c0,0.1-0.1,0.1-0.1,0.2
		c0-0.1,0.1-0.1,0.1-0.1c0,0.1-0.1,0.1-0.1,0.2c-0.2,0.2-0.4,0.5-0.7,0.7c0,0,0,0-0.1,0.1c-0.1,0.1-0.2,0.1-0.3,0.2
		c-0.1,0.1-0.2,0.1-0.3,0.2c0,0,0,0,0,0c-0.1,0-0.2,0.1-0.3,0.1c-0.1,0-0.2,0-0.2,0c0,0-0.1,0-0.1,0c0,0,0,0,0,0c0,0,0,0,0,0
		c0,0,0,0,0,0c0,0,0,0-0.1,0c-0.1,0-0.2-0.1-0.2-0.1c0,0,0,0,0,0c0,0,0,0,0,0c0,0-0.1-0.1-0.1-0.1c0,0-0.1,0-0.1-0.1c0,0,0,0,0,0
		c0,0,0,0-0.1-0.1c0,0,0,0,0,0c0,0-0.1-0.1-0.1-0.1c-0.1-0.2-0.2-0.3-0.3-0.5c0-0.1-0.1-0.2-0.1-0.2c0,0.1,0.1,0.2,0.1,0.3
		c-0.1-0.2-0.1-0.3-0.2-0.5c0,0,0-0.1-0.1-0.1c-0.1-0.2-0.2-0.4-0.3-0.6c-0.3-0.6-0.5-1.1-0.8-1.7c-2-4.1-4-8.2-5.8-12.3
		c-0.1-0.3-0.3-0.6-0.4-0.9C24.1,98.3,24,98.1,24,98c0-0.1-0.1-0.1-0.1-0.2c0,0,0,0,0,0.1c0,0,0,0,0,0c-0.3-0.7-0.6-1.4-0.8-2
		c-0.5-1.3-1.1-2.7-1.6-4.1c-0.6-1.5-1.1-3.1-1.6-4.6c1.3,1.1,2.7,2,4.3,2.7c3.8,1.6,7.9,2,12,1.9c3.4-0.1,6.9-0.9,9.8-2.6
		c0.2-0.1,0.3-0.2,0.5-0.3c-0.4,1.1-0.9,2.3-1.3,3.4C44.7,93.1,44.3,94.2,43.9,95.2z"/>
</g>
<path class="st1" d="M69.9,41.1c2,2.9,6.1,3.7,9.6,3.3c1.7-0.2,4.3-0.4,5.4-1.7c0.5-0.5,1.1-1.8,1.4-2.4c1.3-3.5,0.5-7.3-2.4-9.7
	C73.7,22.2,64.2,32.8,69.9,41.1z"/>
<g>
	<path class="st2" d="M70.3,34.6C70.3,34.6,70.3,34.6,70.3,34.6c0,0.1,0,0.1,0,0.2C70.3,34.8,70.3,34.8,70.3,34.6z"/>
	<path class="st2" d="M71.6,31.5C71.6,31.5,71.6,31.5,71.6,31.5c-0.1,0.1-0.1,0.1-0.1,0.2C71.4,31.7,71.5,31.6,71.6,31.5z"/>
	<path class="st2" d="M82.1,31.4C82.1,31.4,82,31.4,82.1,31.4C82,31.4,82,31.3,82.1,31.4C82,31.3,82,31.3,82.1,31.4
		c-0.1-0.1-0.1-0.1-0.1-0.1c0,0,0,0,0,0C82.1,31.4,82.1,31.4,82.1,31.4z"/>
	<path class="st2" d="M76.9,56.8C76.9,56.8,77,56.8,76.9,56.8C77,56.8,77,56.8,76.9,56.8C77,56.8,77,56.8,76.9,56.8
		C77,56.8,77,56.8,76.9,56.8C77,56.8,77,56.8,76.9,56.8C77,56.8,77,56.8,76.9,56.8C77,56.8,77,56.8,76.9,56.8
		C76.9,56.8,76.9,56.8,76.9,56.8C76.9,56.8,76.9,56.8,76.9,56.8c-0.1,0-0.1,0-0.2,0l0,0C76.8,56.8,76.9,56.8,76.9,56.8
		C76.9,56.8,76.9,56.8,76.9,56.8z"/>
	<path class="st2" d="M84.8,36.1C84.8,36,84.8,36,84.8,36.1C84.8,36,84.8,36,84.8,36.1c0-0.1,0-0.2,0-0.2
		C84.7,35.8,84.8,35.9,84.8,36.1z"/>
	<path class="st2" d="M83.3,32.7c0,0-0.1-0.1-0.1-0.1c0,0,0,0,0,0C83.3,32.7,83.4,32.8,83.3,32.7z"/>
	<path class="st2" d="M88.8,36.9c0-0.2,0-0.3,0-0.5c-0.1-1.6-0.5-3.2-1.3-4.6c-1.8-3.4-5.2-5.6-9-6c-1.6-0.2-3.3,0-4.8,0.3
		c-1.5,0.3-3,1-4.2,2c-1.4,1.2-2.3,3.1-2.7,4.8c-0.3,1.2-0.4,2.4-0.3,3.6c0,0.1,0,0.2,0,0.3c0,0.4,0,0.8,0.1,1.1
		c0,0.4,0.1,0.9,0.1,1.3c0.4,3,1.4,5.9,2.5,8.8c1.1,2.7,2.3,5.3,3.5,7.9c0.4,0.7,0.7,1.5,1.1,2.2c0.2,0.5,0.5,1,0.9,1.4
		c0.6,0.7,1.6,1.2,2.6,1.1c2.7-0.2,4-2.9,5-5c1.1-2.3,2.2-4.7,3.2-7.1c0.8-1.9,1.5-3.7,2.2-5.7c0.1-0.2,0.2-0.5,0.2-0.7
		c0.4-1.5,0.8-3.1,0.9-4.6C88.7,37.3,88.7,37.1,88.8,36.9z M80.2,30.3C80.2,30.3,80.2,30.3,80.2,30.3C80.5,30.4,80.3,30.3,80.2,30.3
		z M70.2,35.3c0-0.1,0-0.3,0.1-0.5c0,0,0-0.1,0-0.1c0,0,0,0,0-0.1c0,0,0,0,0,0c0,0,0,0,0,0c0-0.1,0-0.2,0-0.3c0-0.2,0.1-0.4,0.1-0.6
		c0.1-0.2,0.1-0.4,0.2-0.6c0-0.1,0.1-0.2,0.1-0.3c0,0,0,0,0,0c0,0,0,0,0,0c0.2-0.3,0.3-0.7,0.5-1c0,0,0.1-0.1,0.1-0.1c0,0,0,0,0-0.1
		c0,0,0,0,0.1-0.1c0,0,0,0,0-0.1c0,0,0,0,0,0c0,0,0.1-0.1,0.1-0.1c0.2-0.2,0.4-0.4,0.7-0.6c-0.4,0.4-0.1,0.1,0.1,0
		c0.1-0.1,0.3-0.2,0.4-0.2c0.1,0,0.2-0.1,0.3-0.1c0,0,0.1,0,0.1,0c0.3-0.1,0.6-0.2,1-0.3c0.1,0,0.3-0.1,0.4-0.1c0,0,0.1,0,0.2,0
		c0.1,0,0.3,0,0.3,0c0.2,0,0.4,0,0.5,0c0.7,0,1.5-0.1,2.2,0c0.2,0,0.3,0,0.5,0c0.1,0,0.1,0,0.2,0c0.4,0.1,0.8,0.2,1.2,0.3
		c0.1,0,0.2,0.1,0.4,0.1c0.1,0,0.2,0.1,0.3,0.1c0.4,0.2,0.7,0.4,1,0.6c0.2,0.1,0.3,0.2,0.5,0.3c0,0-0.1,0-0.1-0.1
		c0,0,0.1,0.1,0.1,0.1c0,0,0,0,0,0c0,0,0,0,0,0c0,0,0,0,0,0c0,0,0,0,0,0c0.3,0.3,0.6,0.5,0.9,0.8c0.1,0.1,0.2,0.2,0.3,0.4
		c0,0,0,0,0,0c0,0,0,0,0,0c0,0,0,0,0,0c0,0,0,0.1,0.1,0.1c0,0,0,0,0,0c0.2,0.3,0.4,0.7,0.6,1c0.1,0.2,0.2,0.3,0.3,0.5
		c0,0.1,0.1,0.1,0.1,0.2c0.1,0.3,0.2,0.6,0.3,1c0,0.1,0.1,0.3,0.1,0.4c0,0,0,0.1,0,0.1c0,0,0,0,0,0c0,0.1,0,0.1,0,0.2
		c0-0.1,0-0.1,0-0.1c0,0.3,0,0.7,0,1c0,0.2,0,0.3,0,0.5c0,0,0,0,0,0c-0.1,0.3-0.1,0.7-0.2,1c-0.1,0.3-0.2,0.5-0.3,0.8c0,0,0,0,0,0
		c-0.1,0.1-0.1,0.3-0.2,0.4c-0.1,0.2-0.3,0.4-0.4,0.6c0,0,0,0,0,0c-0.1,0.1-0.1,0.2-0.2,0.3c-0.2,0.2-0.3,0.3-0.5,0.5
		c0,0-0.1,0.1-0.1,0.1c0,0,0,0-0.1,0c-0.3,0.2-0.7,0.5-1.1,0.6c-0.1,0-0.1,0-0.2,0.1c-0.2,0.1-0.4,0.1-0.6,0.2
		c-0.4,0.1-0.8,0.2-1.1,0.2c0,0,0,0,0,0c0,0,0,0,0,0c-0.2,0-0.3,0-0.5,0c-0.5,0-1,0-1.4,0c-0.6,0-1.1,0-1.6-0.1c-0.1,0-0.1,0-0.2,0
		c-0.1,0-0.3-0.1-0.4-0.1c-0.3-0.1-0.6-0.2-1-0.3c-0.1,0-0.3-0.1-0.4-0.1c0,0-0.1,0-0.2-0.1c0,0,0.1,0,0.2,0.1
		c-0.3-0.1-0.5-0.2-0.8-0.4c-0.2-0.1-0.4-0.3-0.6-0.4c-0.1-0.1-0.2-0.1-0.3-0.2c0,0,0.1,0,0.1,0.1c0,0-0.1,0-0.1-0.1
		c-0.3-0.3-0.6-0.6-0.9-1c0-0.1-0.1-0.1-0.1-0.2c-0.1-0.2-0.2-0.3-0.3-0.5c-0.1-0.2-0.2-0.4-0.3-0.6c0,0,0-0.1-0.1-0.1
		c-0.1-0.3-0.2-0.6-0.3-1c0-0.2-0.1-0.4-0.1-0.5c0-0.4,0-0.8,0-1.1C70.2,35.8,70.2,35.6,70.2,35.3z M76.8,56.8
		C76.8,56.8,76.8,56.8,76.8,56.8C76.8,56.8,76.8,56.8,76.8,56.8c0,0,0.1,0,0.1,0c-0.1,0-0.1,0,0,0c0,0,0,0,0,0c0,0,0,0,0,0
		c0,0,0,0,0,0c0,0,0,0,0,0c0,0,0,0,0,0c0,0,0,0,0,0c0,0,0,0,0,0c0,0,0,0,0,0C76.8,56.8,76.7,56.8,76.8,56.8z M77.4,56.9
		C77.4,56.9,77.4,56.9,77.4,56.9C77.5,56.9,77.5,56.9,77.4,56.9z M81.8,47c-0.1,0.3-0.2,0.5-0.3,0.8c-0.1,0.1-0.1,0.3-0.2,0.4
		c0,0,0,0,0,0.1c-0.5,1.1-0.9,2.2-1.4,3.3c-0.7,1.6-1.5,3.4-2.5,4.9c0,0,0,0,0,0c0,0,0,0,0,0c0,0-0.1,0.1-0.1,0.1c0,0,0-0.1,0-0.1
		c0-0.1-0.1-0.2-0.1-0.3c-0.1-0.3-0.3-0.6-0.4-0.9c-1-2-2-4.1-2.9-6.2c-0.1-0.2-0.1-0.3-0.2-0.5c0-0.1-0.3-0.6-0.1-0.3
		c0.1,0.3,0,0,0,0c0-0.1-0.1-0.2-0.1-0.3c-0.1-0.2-0.1-0.4-0.2-0.5c-0.3-0.7-0.5-1.4-0.8-2.1c2.1,0.9,4.3,1.1,6.6,1.1
		c1.2-0.1,2.3-0.2,3.5-0.6C82.1,46.3,82,46.6,81.8,47z"/>
	<path class="st2" d="M73.9,41.9C73.7,41.8,73.8,41.9,73.9,41.9L73.9,41.9z"/>
	<path class="st2" d="M72.5,41.1C72.7,41.2,72.9,41.3,72.5,41.1L72.5,41.1z"/>
</g>
</svg>
